<svg width="364" height="345" viewBox="0 0 364 345" fill="none" xmlns="http://www.w3.org/2000/svg">
<path d="M359.5 132.797C343.23 54.3965 261.084 7.01156 192.137 0.967829C135.017 -4.03915 65.7826 9.61839 33.7865 59.8718C14.1823 90.6623 38.366 104.222 24.8042 172.37C13.0661 231.354 -8.33124 252.606 4.69217 282.668C15.3395 307.246 39.5674 318.017 55.4724 325.447C118.163 354.734 233.63 352.407 302.193 298.983C318.238 286.481 377.904 221.484 359.5 132.797Z" fill="#1E222D"/>
<path d="M120.834 73.8713C119.782 76.6275 118.979 79.4288 118.441 82.2517L104.459 85.229L104.445 97.691L118.44 100.701C118.98 103.551 119.768 106.353 120.797 109.08L110.242 118.304L116.797 129.103L130.484 125.077C132.434 127.27 134.6 129.32 136.959 131.212L132.681 144.204L144.05 150.447L153.793 140.456C156.698 141.454 159.651 142.215 162.626 142.726L165.764 155.991L178.9 156.004L182.073 142.727C185.077 142.215 188.031 141.467 190.904 140.491L200.627 150.505L212.01 144.285L207.766 131.301C210.078 129.451 212.239 127.396 214.234 125.157L227.928 129.216L234.508 118.43L223.976 109.187C225.029 106.431 225.831 103.63 226.37 100.807L240.351 97.8296L240.365 85.3678L226.37 82.3577C225.831 79.5079 225.042 76.7055 224.014 73.9793L234.568 64.7552L228.013 53.9559L214.326 57.982C212.376 55.7892 210.21 53.7389 207.851 51.8464L212.129 38.8546L200.76 32.6119L191.018 42.6031C188.112 41.6046 185.159 40.8441 182.184 40.3324L179.046 27.0679L165.91 27.0547L162.737 40.3324C159.733 40.8442 156.779 41.5918 153.906 42.5676L144.183 32.5544L132.8 38.7736L137.043 51.7582C134.732 53.608 132.571 55.663 130.576 57.9018L116.882 53.8429L110.302 64.6286L120.834 73.8713ZM143.139 75.4591C152.494 60.1245 173.181 54.8883 189.344 63.7637C205.508 72.639 211.027 92.2649 201.672 107.599C192.317 122.934 171.63 128.17 155.466 119.295C139.303 110.419 133.784 90.7935 143.139 75.4591Z" fill="white"/>
<path d="M239.251 329.815H165.998L128.191 267.033V321.869C128.191 330.444 134.783 337.303 142.774 337.303H171.481H230.418H239.251C240.807 337.303 242.203 336.271 242.203 334.795V332.339C242.203 330.862 240.807 329.815 239.251 329.815Z" fill="#1E222D"/>
<path d="M138.934 286.758V317.854C138.934 324.158 144.2 329.192 150.845 329.192H213.919V286.758H138.934Z" fill="white"/>
<path d="M214.577 329.815H150.845C143.797 329.815 138.276 324.561 138.276 317.853V286.133H214.577V329.815ZM139.592 287.381V317.853C139.592 323.861 144.535 328.567 150.845 328.567H213.262V287.381H139.592Z" fill="black"/>
<path d="M337.409 289.627L29.8659 290.263C27.1774 290.263 24.9076 288.365 24.5658 285.83L0.067921 104.198C-0.528134 99.7788 2.86761 95.6055 7.55438 95.6055L311.119 95.8669L337.409 289.627Z" fill="#343E57"/>
<path d="M343.711 289.394H42.3117C39.625 289.394 37.3559 287.491 37.012 284.948L12.6691 104.951C11.993 99.9506 16.0746 95.5215 21.3586 95.5215H318.87C321.557 95.5215 323.826 97.425 324.17 99.9673L349.01 283.644C349.423 286.693 346.933 289.394 343.711 289.394Z" fill="white"/>
<path d="M343.711 290.019H42.3116C39.3032 290.019 36.7446 287.874 36.36 285.029L12.0173 105.031C11.6692 102.46 12.5029 99.8714 14.304 97.9295C16.0906 96.0034 18.6617 94.8984 21.3587 94.8984H318.871C321.879 94.8984 324.438 97.044 324.822 99.8887L349.663 283.565C349.885 285.203 349.353 286.851 348.206 288.088C347.068 289.315 345.43 290.019 343.711 290.019ZM21.3587 96.1464C19.0399 96.1464 16.8285 97.0966 15.2915 98.7538C13.74 100.427 13.0223 102.656 13.322 104.872L37.6649 284.87C37.9654 287.094 39.9633 288.771 42.3116 288.771H343.711C345.051 288.771 346.33 288.221 347.219 287.263C348.116 286.296 348.531 285.006 348.358 283.724L323.517 100.047C323.216 97.8235 321.219 96.1464 318.87 96.1464H21.3587Z" fill="black"/>
<path d="M36.3672 78.3008H300.335C306.161 78.3008 311.462 82.7966 312.175 88.3441L334.443 261.562C335.163 267.167 330.998 271.712 325.139 271.712H59.6867C53.8278 271.712 48.5313 267.167 47.8573 261.562L27.0257 88.3441C26.3585 82.7964 30.541 78.3008 36.3672 78.3008Z" fill="#1E222D"/>
<path d="M313.01 94.478L312.513 88.2545C311.806 82.7568 306.319 78.3789 300.493 78.3789H36.5247C30.6986 78.3789 26.4554 82.7568 27.1165 88.2545L27.7349 95.916L313.01 94.478Z" fill="#343E57"/>
<path d="M43.733 88.5115C43.9486 90.2981 42.5973 91.7465 40.7148 91.7465C38.8323 91.7465 37.1314 90.2981 36.9161 88.5115C36.7008 86.7252 38.0521 85.2773 39.9342 85.2773C41.8165 85.2772 43.5173 86.7252 43.733 88.5115Z" fill="#1E222D"/>
<path d="M54.6137 88.2947C54.83 90.0813 53.4793 91.5295 51.5966 91.5295C49.714 91.5295 48.0129 90.0811 47.7968 88.2947C47.581 86.5084 48.9317 85.0605 50.814 85.0605C52.6963 85.0605 54.3974 86.5084 54.6137 88.2947Z" fill="#1E222D"/>
<path d="M66.482 88.7266C66.6988 90.5131 65.3485 91.9615 63.466 91.9615C61.5833 91.9615 59.8818 90.5131 59.6651 88.7266C59.4487 86.9402 60.7989 85.4922 62.6813 85.4922C64.5634 85.4924 66.2651 86.9402 66.482 88.7266Z" fill="#1E222D"/>
<path d="M128.598 191.502H140.571L142.084 203.783H130.107L132.616 224.21H116.527L114.027 203.783H72.4055L70.813 194.461L104.789 132.607H121.363L128.598 191.502ZM87.3217 191.502H112.524L107.844 153.264L106.901 155.274L87.3217 191.502Z" fill="white"/>
<path d="M213.253 185.583C214.905 198.764 213.558 208.708 209.213 215.411C204.865 222.117 197.394 225.47 186.8 225.47C176.382 225.47 168.131 222.201 162.049 215.663C155.967 209.129 152.071 199.457 150.357 186.653L148.399 170.798C146.774 157.64 148.143 147.777 152.506 141.205C156.866 134.636 164.35 131.352 174.959 131.352C185.48 131.352 193.726 134.552 199.701 140.954C205.676 147.358 209.533 156.949 211.266 169.73L213.253 185.583ZM195.045 168.472C193.973 159.882 191.953 153.588 188.988 149.588C186.022 145.59 181.854 143.591 176.482 143.591C171.241 143.591 167.623 145.485 165.627 149.274C163.63 153.065 163.065 158.98 163.93 167.026L166.503 187.786C167.565 196.349 169.613 202.733 172.649 206.933C175.685 211.135 179.895 213.236 185.278 213.236C190.441 213.236 194.015 211.293 196.002 207.406C197.987 203.521 198.53 197.442 197.63 189.172L195.045 168.472Z" fill="white"/>
<path d="M282.589 191.502H294.562L296.13 203.783H284.153L286.753 224.21H270.664L268.073 203.783H226.452L224.817 194.461L258.517 132.607H275.091L282.589 191.502ZM241.313 191.502H266.515L261.665 153.264L260.731 155.274L241.313 191.502Z" fill="white"/>
<path d="M135.702 221.428H119.613C119.279 221.428 118.998 221.191 118.959 220.876L116.527 201.002H75.4913C75.1688 201.002 74.8935 200.78 74.8422 200.478L73.2497 191.155C73.2271 191.022 73.25 190.886 73.3157 190.767L107.291 128.914C107.404 128.707 107.629 128.578 107.875 128.578H124.449C124.783 128.578 125.063 128.815 125.102 129.13L132.269 187.472H143.656C143.99 187.472 144.271 187.709 144.31 188.024L145.823 200.306C145.845 200.483 145.786 200.66 145.661 200.793C145.536 200.926 145.357 201.002 145.17 201.002H133.931L136.356 220.732C136.377 220.909 136.318 221.086 136.193 221.219C136.068 221.352 135.89 221.428 135.702 221.428ZM120.199 220.18H134.963L132.539 200.45C132.518 200.273 132.576 200.096 132.701 199.963C132.826 199.83 133.005 199.754 133.193 199.754H144.431L143.071 188.72H131.684C131.35 188.72 131.069 188.483 131.03 188.168L123.863 129.826H108.274L74.5833 191.16L76.0513 199.754H117.113C117.447 199.754 117.728 199.991 117.767 200.306L120.199 220.18ZM115.61 188.72H90.4076C90.1784 188.72 89.9658 188.607 89.8462 188.421C89.7267 188.236 89.7178 188.005 89.8222 187.811L109.402 151.584L110.329 149.604C110.45 149.347 110.735 149.198 111.029 149.241C111.322 149.284 111.549 149.507 111.584 149.786L116.263 188.024C116.285 188.201 116.226 188.378 116.101 188.511C115.977 188.644 115.798 188.72 115.61 188.72ZM91.4843 187.472H114.871L110.553 152.187L91.4843 187.472Z" fill="#1E222D"/>
<path d="M189.886 222.689C179.319 222.689 170.826 219.318 164.641 212.67C158.501 206.073 154.513 196.201 152.79 183.327L150.831 167.466C149.196 154.226 150.61 144.132 155.034 137.467C159.502 130.735 167.244 127.322 178.045 127.322C188.713 127.322 197.202 130.624 203.279 137.135C209.316 143.606 213.261 153.4 215.004 166.245L216.991 182.104C218.654 195.369 217.263 205.539 212.859 212.332C208.404 219.204 200.675 222.689 189.886 222.689ZM178.045 128.57C167.726 128.57 160.359 131.787 156.148 138.132C151.888 144.55 150.539 154.37 152.138 167.32L154.096 183.175C155.785 195.791 159.665 205.438 165.627 211.844C171.551 218.211 179.714 221.44 189.886 221.44C200.186 221.44 207.539 218.156 211.738 211.678C215.984 205.13 217.311 195.229 215.685 182.251L213.698 166.398C211.991 153.811 208.153 144.242 202.294 137.962C196.478 131.73 188.32 128.57 178.045 128.57ZM188.364 210.454C182.775 210.454 178.344 208.242 175.192 203.88C172.11 199.617 170.005 193.081 168.936 184.453L166.362 163.693C165.487 155.557 166.08 149.469 168.124 145.589C170.232 141.589 174.082 139.561 179.567 139.561C185.14 139.561 189.529 141.668 192.611 145.823C195.627 149.89 197.703 156.34 198.784 164.993L201.368 185.692C202.279 194.051 201.71 200.299 199.679 204.272C197.582 208.374 193.775 210.454 188.364 210.454ZM179.567 140.809C174.552 140.809 171.193 142.555 169.301 146.147C167.37 149.812 166.822 155.67 167.67 163.557L170.242 184.308C171.286 192.732 173.317 199.079 176.277 203.174C179.209 207.233 183.163 209.206 188.364 209.206C193.297 209.206 196.611 207.414 198.495 203.728C200.418 199.966 200.945 193.945 200.061 185.83L197.478 165.14C196.423 156.694 194.424 150.437 191.535 146.541C188.674 142.684 184.759 140.809 179.567 140.809Z" fill="#1E222D"/>
<path d="M289.839 221.428H273.75C273.417 221.428 273.137 221.192 273.097 220.879L270.576 201.002H229.538C229.216 201.002 228.941 200.782 228.889 200.48L227.254 191.158C227.231 191.025 227.253 190.888 227.319 190.769L261.018 128.916C261.131 128.708 261.357 128.578 261.603 128.578H278.177C278.51 128.578 278.79 128.814 278.83 129.127L280.863 145.099C280.907 145.441 280.65 145.752 280.289 145.793C279.926 145.833 279.601 145.591 279.557 145.249L277.594 129.826H262.003L228.588 191.158L230.095 199.754H271.159C271.492 199.754 271.772 199.99 271.812 200.303L274.333 220.18H289.097L287.019 203.858C286.975 203.515 287.233 203.205 287.593 203.163C287.95 203.123 288.282 203.366 288.325 203.708L290.492 220.729C290.515 220.906 290.456 221.084 290.331 221.218C290.206 221.352 290.027 221.428 289.839 221.428ZM269.601 188.72H244.399C244.17 188.72 243.958 188.607 243.838 188.422C243.718 188.237 243.709 188.007 243.813 187.813L263.23 151.586L264.149 149.607C264.268 149.349 264.555 149.197 264.847 149.241C265.14 149.282 265.368 149.504 265.404 149.783L268.417 173.537C268.46 173.879 268.203 174.19 267.842 174.231C267.479 174.276 267.154 174.028 267.111 173.686L264.383 152.186L245.471 187.472H268.859L268.326 183.266C268.282 182.924 268.539 182.613 268.9 182.572C269.267 182.527 269.588 182.775 269.632 183.117L270.254 188.021C270.276 188.199 270.218 188.376 270.093 188.51C269.968 188.644 269.789 188.72 269.601 188.72Z" fill="#1E222D"/>
<path d="M278.83 272.335H59.7829C53.6094 272.335 48.0094 267.533 47.3 261.631L26.4682 88.4138C26.1217 85.5329 26.9852 82.8255 28.8998 80.7902C30.7891 78.7819 33.475 77.6758 36.4632 77.6758H300.431C306.569 77.6758 312.174 82.4272 312.924 88.2677L320.165 144.596C320.209 144.938 319.953 145.249 319.592 145.291C319.231 145.329 318.903 145.089 318.859 144.747L311.618 88.4187C310.946 83.183 305.927 78.9237 300.431 78.9237H36.4632C33.8548 78.9237 31.5175 79.8817 29.8812 81.6214C28.2197 83.3874 27.472 85.7494 27.7751 88.2723L48.6069 261.49C49.2432 266.782 54.257 271.087 59.7829 271.087H278.83C279.193 271.087 279.487 271.367 279.487 271.711C279.487 272.056 279.193 272.335 278.83 272.335Z" fill="#5479F7"/>
<path d="M238.794 337.719H146.169C145.806 337.719 145.512 337.439 145.512 337.095C145.512 336.75 145.806 336.471 146.169 336.471H238.794C239.968 336.471 240.888 335.559 240.888 334.396V331.94C240.888 330.768 239.948 329.814 238.794 329.814H211.946C211.583 329.814 211.288 329.535 211.288 329.19C211.288 328.846 211.583 328.566 211.946 328.566H238.794C240.674 328.566 242.203 330.08 242.203 331.94V334.396C242.203 336.228 240.674 337.719 238.794 337.719Z" fill="black"/>
<path d="M116.129 331.063H36.3091L43.8629 316.958L50.4469 304.674L57.8037 290.947L64.3837 278.67L72.943 262.709C73.57 261.538 74.8354 260.805 76.2192 260.805C77.603 260.805 78.8684 261.538 79.4954 262.708L88.0547 278.668L94.6347 290.943L101.991 304.667L108.575 316.958L116.129 331.063Z" fill="#343E57"/>
<path d="M94.6342 291.125H57.8032L64.3832 278.645H88.0542L94.6342 291.125Z" fill="#1E222D"/>
<path d="M108.575 316.918H43.863L50.4468 304.854H101.991L108.575 316.918Z" fill="#1E222D"/>
<path d="M115.735 331.896H35.9145C35.6864 331.896 35.4743 331.783 35.3544 331.599C35.2344 331.415 35.2241 331.184 35.3274 330.991L42.8811 316.782L49.4656 304.446L63.4028 278.402L71.9619 262.434C72.7048 261.047 74.1847 260.186 75.8244 260.186C77.4659 260.186 78.9458 261.045 79.6866 262.428L102.183 304.385L116.321 330.991C116.425 331.184 116.414 331.414 116.295 331.599C116.175 331.783 115.963 331.896 115.735 331.896ZM36.983 330.648H114.666L101.009 304.949L78.5143 262.994C77.9987 262.032 76.968 261.433 75.8246 261.433C74.6829 261.433 73.6521 262.034 73.1346 263L57.9953 291.257L50.6391 305.01L44.0549 317.345L36.983 330.648Z" fill="black"/>
<path d="M123.529 331.326C123.529 329.925 122.332 328.789 120.856 328.789H31.1881C29.7115 328.789 28.5146 329.925 28.5146 331.326V339.344C28.5146 340.745 29.7115 341.88 31.1881 341.88H120.856C122.332 341.88 123.529 340.745 123.529 339.344V331.326Z" fill="#1E222D"/>
<path d="M120.856 342.503H31.1878C29.3511 342.503 27.8567 341.086 27.8567 339.343V331.325C27.8567 329.582 29.3513 328.164 31.1878 328.164H120.856C122.692 328.164 124.187 329.582 124.187 331.325V339.343C124.187 341.086 122.692 342.503 120.856 342.503ZM31.1878 329.412C30.0766 329.412 29.1721 330.27 29.1721 331.325V339.343C29.1721 340.397 30.0766 341.255 31.1878 341.255H120.856C121.967 341.255 122.871 340.397 122.871 339.343V331.325C122.871 330.27 121.967 329.412 120.856 329.412H31.1878Z" fill="black"/>
<path d="M338.412 178.348C348.789 181.117 362.146 191.774 362.146 211.109C362.146 225.038 340.519 236.837 340.519 236.837L336.952 228.53C336.952 228.53 348.873 220.156 348.302 210.379C347.844 202.54 334.52 200.104 334.52 200.104L338.412 178.348Z" fill="#FFD600"/>
<path d="M334.033 328.941H326.575V337.248H334.033V328.941Z" fill="#FFD600"/>
<path d="M312.177 327.654L304.918 329.279L306.929 337.364L314.188 335.739L312.177 327.654Z" fill="#FFD600"/>
<path d="M340.195 225.879C340.195 225.879 342.422 242.584 340.713 249.07C339.004 255.557 335.006 315.494 335.006 331.709H324.954L320.414 255.105L306.386 282.899C305.367 285.154 305.109 287.653 305.645 290.053L313.928 331.709L304.524 332.324L288.803 286.586C288.099 284.318 288.047 281.913 288.652 279.619L301.402 231.234L340.195 225.879Z" fill="black"/>
<path d="M320.9 254.038C320.756 254.038 320.611 253.993 320.489 253.901C320.206 253.686 320.16 253.293 320.387 253.024L325.575 246.871C325.802 246.602 326.216 246.558 326.5 246.774C326.783 246.989 326.829 247.382 326.602 247.651L321.414 253.804C321.284 253.958 321.093 254.038 320.9 254.038Z" fill="white"/>
<path d="M334.52 335.4H325.764L324.466 341.67C324.216 342.88 325.137 344.014 326.369 344.014H333.915C335.147 344.014 336.068 342.88 335.818 341.67L334.52 335.4Z" fill="white"/>
<path d="M333.915 344.638H326.369C325.609 344.638 324.889 344.311 324.395 343.74C323.868 343.132 323.658 342.333 323.821 341.549L325.119 335.279C325.18 334.987 325.45 334.775 325.765 334.775H334.52C334.834 334.775 335.105 334.987 335.165 335.279L336.464 341.549C336.626 342.334 336.416 343.132 335.889 343.741C335.395 344.311 334.675 344.638 333.915 344.638ZM326.306 336.024L325.111 341.789C325.025 342.207 325.134 342.629 325.411 342.948C325.658 343.232 325.998 343.389 326.369 343.389H333.915C334.286 343.389 334.626 343.233 334.873 342.948C335.15 342.629 335.259 342.207 335.173 341.789L333.978 336.024H326.306Z" fill="black"/>
<path d="M334.52 342.639H325.44C325.077 342.639 324.782 342.359 324.782 342.015C324.782 341.67 325.077 341.391 325.44 341.391H334.52C334.883 341.391 335.177 341.67 335.177 342.015C335.177 342.359 334.883 342.639 334.52 342.639Z" fill="black"/>
<path d="M314.415 333.555L316.813 341.104C317.23 342.418 316.386 343.806 315.146 343.846L298.675 344.375C297.656 344.408 297.249 342.91 298.11 342.296C300.79 340.385 304.356 337.731 305.335 336.472C307.605 333.555 309.875 336.108 309.875 336.108C309.875 336.108 311.497 333.555 314.415 333.555Z" fill="white"/>
<path d="M298.643 345C297.955 345 297.354 344.573 297.103 343.898C296.81 343.112 297.056 342.268 297.714 341.798C301.567 339.052 304.085 337.029 304.806 336.102C305.633 335.039 306.577 334.484 307.611 334.452C308.53 334.41 309.286 334.824 309.778 335.181C310.508 334.341 312.082 332.932 314.415 332.932C314.705 332.932 314.961 333.112 315.045 333.376L317.443 340.925C317.723 341.809 317.564 342.767 317.018 343.491C316.564 344.091 315.89 344.448 315.169 344.471L298.697 345C298.679 345.001 298.661 345 298.643 345ZM307.702 335.699C307.683 335.699 307.665 335.699 307.647 335.699C307.038 335.721 306.438 336.106 305.864 336.843C305.047 337.894 302.571 339.897 298.505 342.796C298.278 342.957 298.262 343.265 298.343 343.482C298.374 343.564 298.463 343.753 298.644 343.753C298.647 343.753 298.649 343.753 298.652 343.753L315.124 343.224C315.549 343.21 315.823 342.929 315.948 342.763C316.254 342.359 316.344 341.793 316.183 341.285L313.935 334.207C311.729 334.464 310.451 336.411 310.437 336.432C310.327 336.603 310.137 336.715 309.926 336.73C309.714 336.745 309.509 336.664 309.372 336.511C309.367 336.505 308.625 335.699 307.702 335.699Z" fill="black"/>
<path d="M300.47 342.64C300.12 342.64 299.829 342.378 299.813 342.043C299.798 341.698 300.079 341.407 300.442 341.392L315.359 340.777C315.731 340.755 316.029 341.029 316.045 341.373C316.06 341.718 315.779 342.009 315.416 342.024L300.499 342.639C300.489 342.64 300.48 342.64 300.47 342.64Z" fill="black"/>
<path d="M323.17 174.041L331.277 179.271L308.954 178.257L315.388 174.348L316.254 170.564C315.112 170.403 313.541 170.294 313.041 169.704C312.159 168.661 312.558 165.051 312.558 165.051L311.591 164.329C311.488 164.28 311.411 164.192 311.38 164.087C311.35 163.981 311.367 163.869 311.428 163.776C312.25 162.534 313.025 162.133 313.388 160.867C313.746 159.62 313.588 159.809 315.004 157.12L323.494 157.109L323.542 163.146C323.542 163.146 324.845 162.347 325.67 163.427C326.27 164.212 324.942 166.833 323.864 166.834L323.17 174.041Z" fill="white"/>
<path d="M331.278 179.895C331.267 179.895 331.257 179.895 331.246 179.895L308.923 178.881C308.637 178.868 308.392 178.681 308.319 178.419C308.245 178.156 308.358 177.879 308.6 177.732L314.803 173.964L315.46 171.091C314.279 170.939 313.091 170.76 312.528 170.096C311.649 169.057 311.777 166.402 311.87 165.332L311.223 164.85C310.991 164.718 310.82 164.504 310.747 164.255C310.666 163.983 310.712 163.686 310.872 163.445C311.197 162.953 311.514 162.586 311.794 162.262C312.239 161.746 312.562 161.373 312.754 160.704C312.802 160.538 312.84 160.397 312.874 160.272C313.116 159.391 313.2 159.152 314.416 156.843C314.527 156.631 314.755 156.498 315.003 156.497L323.494 156.486C323.494 156.486 323.494 156.486 323.495 156.486C323.856 156.486 324.15 156.763 324.152 157.106L324.193 162.268C324.873 162.173 325.646 162.333 326.203 163.061C326.858 163.918 326.177 165.347 325.953 165.765C325.735 166.169 325.216 167.001 324.478 167.325L323.86 173.732L331.647 178.755C331.891 178.913 331.994 179.204 331.901 179.469C331.812 179.725 331.559 179.895 331.278 179.895ZM311.046 177.728L328.978 178.542L322.801 174.557C322.603 174.43 322.494 174.21 322.516 173.984L323.21 166.777C323.241 166.456 323.524 166.211 323.864 166.21C323.955 166.205 324.327 165.983 324.715 165.316C325.144 164.579 325.217 163.93 325.135 163.789C324.691 163.209 323.979 163.621 323.899 163.67C323.698 163.794 323.441 163.803 323.23 163.695C323.019 163.587 322.886 163.379 322.885 163.151L322.842 157.735L315.412 157.744C314.395 159.684 314.345 159.865 314.148 160.586C314.112 160.715 314.073 160.86 314.023 161.032C313.758 161.958 313.298 162.49 312.811 163.053C312.584 163.317 312.35 163.587 312.112 163.924L312.965 164.561C313.142 164.693 313.236 164.903 313.213 165.116C313.059 166.51 313.064 168.734 313.555 169.313C313.816 169.622 315.067 169.781 315.814 169.876C315.999 169.9 316.179 169.923 316.351 169.947C316.531 169.972 316.692 170.068 316.795 170.21C316.898 170.351 316.935 170.528 316.897 170.697L316.031 174.481C315.994 174.643 315.89 174.785 315.743 174.874L311.046 177.728Z" fill="black"/>
<path d="M324.28 169.533C322.57 170.074 320.882 168.804 320.579 168.576C319.39 167.681 318.419 166.087 318.896 165.383C319.159 164.997 319.627 165.208 320.242 164.745C321.147 164.064 321.405 162.588 320.915 162.191C320.514 161.866 319.888 162.489 319.233 162.191C318.433 161.828 318.843 160.663 318.224 159.637C317.212 157.961 314.856 158.972 313.044 157.188C311.861 156.024 311.347 154.083 312.022 152.986C312.22 152.666 312.522 152.382 312.952 152.157C315.803 150.668 316.23 152.706 319.005 152.729C324.717 152.775 327.518 153.86 328.552 156.106C329.253 157.63 328.396 160.058 327.982 161.233C327.843 161.626 327.553 162.366 327.309 163.468C327.042 164.673 327.124 164.983 326.972 165.702C326.865 166.206 326.297 168.895 324.28 169.533Z" fill="black"/>
<path d="M311.488 160.079C311.488 160.079 314.009 160.963 314.558 159.767C315.106 158.571 314.229 157.583 315.599 156.646C316.969 155.711 320.258 154.722 319.052 153.318C317.846 151.914 314.174 151.342 313.132 153.006C312.091 154.67 311.324 157.531 310.611 157.582C309.898 157.635 310.163 159.787 311.488 160.079Z" fill="white"/>
<path d="M313.223 161.018C312.371 161.018 311.534 160.757 311.297 160.676C310.006 160.364 309.505 158.961 309.574 158.1C309.631 157.38 310.039 157.054 310.44 156.976C310.677 156.735 311.096 155.767 311.377 155.116C311.726 154.312 312.12 153.401 312.567 152.687C313.043 151.925 313.958 151.46 315.141 151.377C316.826 151.258 318.69 151.909 319.562 152.924C319.992 153.424 320.006 153.891 319.942 154.194C319.735 155.182 318.46 155.834 317.226 156.463C316.749 156.707 316.298 156.937 315.983 157.152C315.42 157.537 315.421 157.844 315.424 158.455C315.427 158.89 315.429 159.43 315.161 160.015C314.802 160.798 314.005 161.018 313.223 161.018ZM311.715 159.493C312.508 159.768 313.763 159.936 313.954 159.518C314.112 159.173 314.11 158.843 314.109 158.461C314.105 157.765 314.101 156.9 315.215 156.14C315.599 155.877 316.086 155.628 316.603 155.365C317.337 154.99 318.566 154.362 318.652 153.951C318.665 153.892 318.628 153.812 318.542 153.712C317.952 153.025 316.473 152.537 315.239 152.622C314.808 152.653 314.036 152.784 313.698 153.325C313.3 153.96 312.925 154.827 312.594 155.591C311.971 157.03 311.571 157.954 310.888 158.163C310.869 158.322 310.893 158.631 311.057 158.952C311.141 159.117 311.328 159.403 311.636 159.471C311.663 159.476 311.69 159.484 311.715 159.493Z" fill="black"/>
<path d="M300.471 177.118C300.471 177.118 319.927 171.888 338.411 178.348C339.833 186.123 340.811 192.837 341.492 198.153C342.691 207.513 341.944 204.524 343.437 218.189C344.365 226.681 344.613 227.459 343.762 228.956C339.473 236.5 322.19 236.091 315.55 234.494C315.078 234.38 313.128 233.893 309.937 233.129C306.285 232.255 303.285 231.565 301.281 231.109C300.198 230.643 298.735 229.818 297.714 228.341C295.429 225.03 296.957 220.743 297.714 217.881C299.66 210.529 297.104 210.371 297.714 196.961C297.928 192.272 298.551 185.461 300.471 177.118Z" fill="#FFD600"/>
<path d="M336.061 234.708C335.74 234.708 335.459 234.484 335.411 234.174C335.359 233.833 335.607 233.516 335.966 233.466C336.319 233.416 344.588 232.169 343.494 224.734C343.443 224.392 343.694 224.077 344.054 224.03C344.41 223.982 344.746 224.219 344.797 224.561C346.073 233.232 336.256 234.687 336.157 234.701C336.124 234.706 336.093 234.708 336.061 234.708Z" fill="white"/>
<path d="M313.527 227.529C313.36 227.529 313.193 227.47 313.065 227.35C305.31 220.097 303.71 209.122 303.646 208.658C303.599 208.316 303.852 208.003 304.212 207.958C304.572 207.915 304.903 208.154 304.95 208.495C304.965 208.605 306.561 219.515 313.988 226.461C314.247 226.703 314.25 227.098 313.995 227.343C313.867 227.467 313.697 227.529 313.527 227.529Z" fill="white"/>
<path d="M293.565 167.217C293.578 166.89 293.827 166.613 294.166 166.55L313.388 160.868L311.721 157.111C311.721 157.111 285.695 149.27 273.483 159.271C261.272 169.272 285.819 193.981 299.676 199.704L312.364 175.539L294.114 167.923C293.78 167.838 293.553 167.545 293.565 167.217Z" fill="#FFD600"/>
<path d="M345.286 123.538C355.622 113.732 355.622 97.8343 345.286 88.0288C334.951 78.2233 318.193 78.2233 307.858 88.0288C297.522 97.8343 297.522 113.732 307.858 123.538C318.193 133.343 334.951 133.343 345.286 123.538Z" fill="white"/>
<path d="M326.576 131.515C311.62 131.515 299.452 119.971 299.452 105.781C299.452 91.5924 311.62 80.0488 326.576 80.0488C341.532 80.0488 353.7 91.5926 353.7 105.781C353.7 119.971 341.532 131.515 326.576 131.515ZM326.576 81.2969C312.345 81.2969 300.768 92.2809 300.768 105.782C300.768 119.283 312.345 130.267 326.576 130.267C340.807 130.267 352.385 119.283 352.385 105.782C352.385 92.2807 340.807 81.2969 326.576 81.2969Z" fill="black"/>
<path d="M338.362 116.969C344.874 110.791 344.874 100.775 338.362 94.5974C331.85 88.4197 321.293 88.4197 314.781 94.5974C308.269 100.775 308.269 110.791 314.781 116.969C321.293 123.147 331.85 123.147 338.362 116.969Z" fill="#FFD600"/>
<path d="M319.404 112.943C319.346 112.943 319.288 112.936 319.229 112.92C318.879 112.829 318.673 112.487 318.769 112.154C319.746 108.77 323.013 106.406 326.716 106.406C330.236 106.406 333.368 108.527 334.511 111.684C334.628 112.011 334.446 112.365 334.102 112.477C333.756 112.587 333.384 112.415 333.266 112.09C332.307 109.437 329.674 107.654 326.716 107.654C323.604 107.654 320.858 109.64 320.038 112.483C319.958 112.761 319.693 112.943 319.404 112.943Z" fill="white"/>
<path d="M321.115 103.103C320.947 103.103 320.778 103.042 320.65 102.92L316.904 99.3659C316.647 99.1222 316.647 98.7273 316.904 98.4836C317.161 98.2399 317.577 98.2399 317.834 98.4836L321.58 102.038C321.837 102.281 321.837 102.676 321.58 102.92C321.451 103.042 321.283 103.103 321.115 103.103Z" fill="white"/>
<path d="M321.115 103.103C320.947 103.103 320.778 103.042 320.65 102.92L316.904 99.3659C316.647 99.1222 316.647 98.7273 316.904 98.4836C317.161 98.2399 317.577 98.2399 317.834 98.4836L321.58 102.038C321.837 102.281 321.837 102.676 321.58 102.92C321.451 103.042 321.283 103.103 321.115 103.103Z" fill="white"/>
<path d="M317.369 103.103C317.2 103.103 317.032 103.042 316.904 102.92C316.647 102.676 316.647 102.281 316.904 102.038L320.65 98.4836C320.907 98.2399 321.323 98.2399 321.58 98.4836C321.837 98.7273 321.837 99.1222 321.58 99.3659L317.834 102.92C317.705 103.042 317.537 103.103 317.369 103.103Z" fill="white"/>
<path d="M336.024 103.103C335.856 103.103 335.687 103.042 335.559 102.92L331.813 99.3659C331.556 99.1222 331.556 98.7273 331.813 98.4836C332.07 98.2399 332.486 98.2399 332.743 98.4836L336.489 102.038C336.746 102.281 336.746 102.676 336.489 102.92C336.361 103.042 336.192 103.103 336.024 103.103Z" fill="white"/>
<path d="M332.278 103.103C332.11 103.103 331.941 103.042 331.813 102.92C331.556 102.676 331.556 102.281 331.813 102.038L335.559 98.4836C335.816 98.2399 336.232 98.2399 336.489 98.4836C336.746 98.7273 336.746 99.1222 336.489 99.3659L332.743 102.92C332.615 103.042 332.446 103.103 332.278 103.103Z" fill="white"/>
<path d="M237.198 27.3508C237.086 27.3508 236.971 27.3301 236.861 27.2863C210.851 17.0011 180.847 13.8615 150.093 18.2073C149.615 18.2731 149.168 17.9615 149.097 17.507C149.025 17.0525 149.356 16.629 149.835 16.5611C180.904 12.1713 211.231 15.3479 237.536 25.7504C237.983 25.9272 238.194 26.4143 238.008 26.8383C237.867 27.1578 237.541 27.3504 237.198 27.3508Z" fill="black"/>
<path d="M249.724 23.8009C249.587 23.8009 249.449 23.7708 249.32 23.7067C247.087 22.6031 244.769 21.5356 242.433 20.5342C209.713 6.51103 170.121 3.85757 130.948 13.0657C130.475 13.175 130.003 12.904 129.886 12.4583C129.77 12.0122 130.056 11.5609 130.526 11.4503C170.079 2.15284 210.078 4.84072 243.155 19.0179C245.521 20.0319 247.868 21.113 250.13 22.2312C250.559 22.4433 250.727 22.9458 250.503 23.3533C250.346 23.6378 250.04 23.8009 249.724 23.8009Z" fill="black"/>
<path d="M277.351 53.2205C277.002 53.2205 276.711 52.9605 276.694 52.6267C276.677 52.2825 276.957 51.9901 277.32 51.9733L280.479 51.8287C280.841 51.8137 281.151 52.0777 281.168 52.4219C281.185 52.766 280.905 53.0584 280.542 53.0752L277.383 53.2198C277.373 53.22 277.362 53.2205 277.351 53.2205Z" fill="black"/>
<path d="M288.409 52.7127C288.06 52.7127 287.769 52.4526 287.753 52.1188C287.735 51.7746 288.015 51.4822 288.378 51.4655L291.537 51.3209C291.892 51.3066 292.208 51.5699 292.226 51.914C292.243 52.2581 291.963 52.5506 291.6 52.5673L288.441 52.7119C288.431 52.7123 288.42 52.7127 288.409 52.7127Z" fill="black"/>
<path d="M284.843 59.6389C284.496 59.6389 284.205 59.3813 284.186 59.0486L284.016 56.0516C283.997 55.7075 284.275 55.4133 284.637 55.3947C285.006 55.3866 285.31 55.6405 285.33 55.9843L285.5 58.9813C285.519 59.3255 285.241 59.6196 284.879 59.6382C284.867 59.6386 284.854 59.6389 284.843 59.6389Z" fill="black"/>
<path d="M284.246 49.1473C283.899 49.1473 283.609 48.8897 283.59 48.557L283.419 45.5596C283.399 45.2155 283.678 44.9214 284.04 44.9027C284.399 44.8909 284.713 45.1482 284.733 45.4923L284.904 48.4897C284.923 48.8338 284.645 49.128 284.282 49.1466C284.27 49.1468 284.258 49.1473 284.246 49.1473Z" fill="black"/>
<path d="M255.639 305.555C255.521 305.555 255.402 305.524 255.294 305.461L253.045 304.141C252.735 303.96 252.64 303.575 252.831 303.282C253.022 302.989 253.428 302.898 253.737 303.08L255.986 304.4C256.295 304.581 256.39 304.966 256.199 305.259C256.075 305.45 255.859 305.555 255.639 305.555Z" fill="black"/>
<path d="M263.511 310.174C263.393 310.174 263.274 310.144 263.166 310.08L260.917 308.76C260.608 308.579 260.512 308.195 260.703 307.902C260.895 307.608 261.3 307.518 261.609 307.699L263.858 309.019C264.167 309.2 264.262 309.585 264.071 309.878C263.947 310.069 263.732 310.174 263.511 310.174Z" fill="black"/>
<path d="M255.349 312.023C255.232 312.023 255.113 311.994 255.006 311.932C254.696 311.752 254.599 311.368 254.788 311.073L256.167 308.932C256.356 308.637 256.761 308.545 257.071 308.724C257.381 308.904 257.479 309.288 257.29 309.583L255.911 311.725C255.787 311.917 255.57 312.023 255.349 312.023Z" fill="black"/>
<path d="M260.174 304.527C260.057 304.527 259.939 304.498 259.832 304.436C259.522 304.256 259.424 303.872 259.613 303.577L260.992 301.436C261.182 301.142 261.587 301.048 261.897 301.228C262.207 301.408 262.305 301.792 262.115 302.087L260.736 304.228C260.612 304.421 260.396 304.527 260.174 304.527Z" fill="black"/>
<path d="M85.4129 43.3289C85.3479 43.3289 85.2819 43.3201 85.2163 43.3005L82.7633 42.572C82.4168 42.4687 82.2237 42.119 82.3322 41.7899C82.441 41.4608 82.8079 41.2763 83.1566 41.3808L85.6096 42.1094C85.9561 42.2126 86.1491 42.5624 86.0407 42.8915C85.9525 43.1582 85.693 43.3289 85.4129 43.3289Z" fill="black"/>
<path d="M76.827 40.7799C76.762 40.7799 76.696 40.7711 76.6304 40.7515L74.1774 40.023C73.8309 39.9197 73.6378 39.57 73.7462 39.2409C73.8547 38.9118 74.2224 38.728 74.5706 38.8317L77.0234 39.5602C77.3699 39.6634 77.563 40.0132 77.4548 40.3423C77.3666 40.6093 77.1071 40.7799 76.827 40.7799Z" fill="black"/>
<path d="M80.8351 38.7754C80.7713 38.7754 80.7062 38.7669 80.642 38.7481C80.2947 38.6469 80.0995 38.2979 80.2057 37.9684L80.9586 35.6369C81.0652 35.3074 81.4327 35.1216 81.7804 35.223C82.1277 35.3242 82.3229 35.6732 82.2169 36.0027L81.464 38.3342C81.3768 38.6027 81.1164 38.7754 80.8351 38.7754Z" fill="black"/>
<path d="M78.1998 46.9355C78.136 46.9355 78.071 46.927 78.0067 46.9082C77.6595 46.8071 77.4642 46.458 77.5705 46.1286L78.3233 43.7969C78.4296 43.4674 78.7979 43.2821 79.1451 43.3829C79.4924 43.4841 79.6877 43.8332 79.5814 44.1626L78.8286 46.4941C78.7416 46.7627 78.4811 46.9355 78.1998 46.9355Z" fill="black"/>
<path d="M121.411 18.168C120.692 18.168 119.993 17.9538 119.401 17.5448C118.66 17.0336 118.174 16.2794 118.031 15.4209C117.737 13.6492 119.016 11.9802 120.884 11.7008C122.749 11.4189 124.51 12.6352 124.805 14.4073C125.099 16.1789 123.82 17.8479 121.952 18.1274C121.772 18.1545 121.59 18.168 121.411 18.168ZM121.419 12.9088C121.31 12.9088 121.2 12.9165 121.088 12.9333C119.938 13.1055 119.149 14.1346 119.33 15.2266C119.418 15.7556 119.718 16.2203 120.175 16.5357C120.631 16.8505 121.189 16.9782 121.748 16.8949C122.899 16.7226 123.687 15.6939 123.506 14.6015C123.342 13.6148 122.44 12.9088 121.419 12.9088Z" fill="black"/>
</svg>
