<svg width="100" height="100" viewBox="0 0 100 100" fill="none" xmlns="http://www.w3.org/2000/svg">
<path d="M50 0C22.3884 0 0 22.3884 0 50C0 77.6116 22.3884 100 50 100C77.6116 100 100 77.6116 100 50C100 22.3884 77.6116 0 50 0ZM50 91.5179C27.0759 91.5179 8.48214 72.9241 8.48214 50C8.48214 27.0759 27.0759 8.48214 50 8.48214C72.9241 8.48214 91.5179 27.0759 91.5179 50C91.5179 72.9241 72.9241 91.5179 50 91.5179Z" fill="#1711CE"/>
<path d="M44.6429 69.6429C44.6429 71.0637 45.2073 72.4263 46.2119 73.4309C47.2166 74.4356 48.5792 75 50 75C51.4208 75 52.7834 74.4356 53.7881 73.4309C54.7927 72.4263 55.3571 71.0637 55.3571 69.6429C55.3571 68.2221 54.7927 66.8595 53.7881 65.8548C52.7834 64.8501 51.4208 64.2857 50 64.2857C48.5792 64.2857 47.2166 64.8501 46.2119 65.8548C45.2073 66.8595 44.6429 68.2221 44.6429 69.6429ZM47.3214 57.1429H52.6786C53.1696 57.1429 53.5714 56.7411 53.5714 56.25V25.8929C53.5714 25.4018 53.1696 25 52.6786 25H47.3214C46.8304 25 46.4286 25.4018 46.4286 25.8929V56.25C46.4286 56.7411 46.8304 57.1429 47.3214 57.1429Z" fill="#1711CE"/>
<path d="M50 0C22.3884 0 0 22.3884 0 50C0 77.6116 22.3884 100 50 100C77.6116 100 100 77.6116 100 50C100 22.3884 77.6116 0 50 0ZM50 91.5179C27.0759 91.5179 8.48214 72.9241 8.48214 50C8.48214 27.0759 27.0759 8.48214 50 8.48214C72.9241 8.48214 91.5179 27.0759 91.5179 50C91.5179 72.9241 72.9241 91.5179 50 91.5179Z" fill="white" fill-opacity="0.85"/>
<path d="M44.6429 69.6429C44.6429 71.0637 45.2073 72.4263 46.2119 73.4309C47.2166 74.4356 48.5792 75 50 75C51.4208 75 52.7834 74.4356 53.7881 73.4309C54.7927 72.4263 55.3571 71.0637 55.3571 69.6429C55.3571 68.2221 54.7927 66.8595 53.7881 65.8548C52.7834 64.8501 51.4208 64.2857 50 64.2857C48.5792 64.2857 47.2166 64.8501 46.2119 65.8548C45.2073 66.8595 44.6429 68.2221 44.6429 69.6429ZM47.3214 57.1429H52.6786C53.1696 57.1429 53.5714 56.7411 53.5714 56.25V25.8929C53.5714 25.4018 53.1696 25 52.6786 25H47.3214C46.8304 25 46.4286 25.4018 46.4286 25.8929V56.25C46.4286 56.7411 46.8304 57.1429 47.3214 57.1429Z" fill="white" fill-opacity="0.85"/>
</svg>
