<svg width="80" height="80" viewBox="0 0 80 80" fill="none" xmlns="http://www.w3.org/2000/svg">
<path d="M40 0C17.9107 0 0 17.9107 0 40C0 62.0893 17.9107 80 40 80C62.0893 80 80 62.0893 80 40C80 17.9107 62.0893 0 40 0ZM40 73.2143C21.6607 73.2143 6.78571 58.3393 6.78571 40C6.78571 21.6607 21.6607 6.78571 40 6.78571C58.3393 6.78571 73.2143 21.6607 73.2143 40C73.2143 58.3393 58.3393 73.2143 40 73.2143Z" fill="#1D1D1D"/>
<path d="M35.7143 55.7143C35.7143 56.8509 36.1658 57.941 36.9695 58.7447C37.7733 59.5485 38.8634 60 40 60C41.1366 60 42.2267 59.5485 43.0305 58.7447C43.8342 57.941 44.2857 56.8509 44.2857 55.7143C44.2857 54.5776 43.8342 53.4876 43.0305 52.6838C42.2267 51.8801 41.1366 51.4286 40 51.4286C38.8634 51.4286 37.7733 51.8801 36.9695 52.6838C36.1658 53.4876 35.7143 54.5776 35.7143 55.7143ZM37.8571 45.7143H42.1429C42.5357 45.7143 42.8571 45.3929 42.8571 45V20.7143C42.8571 20.3214 42.5357 20 42.1429 20H37.8571C37.4643 20 37.1429 20.3214 37.1429 20.7143V45C37.1429 45.3929 37.4643 45.7143 37.8571 45.7143Z" fill="#1D1D1D"/>
<path d="M40 0C17.9107 0 0 17.9107 0 40C0 62.0893 17.9107 80 40 80C62.0893 80 80 62.0893 80 40C80 17.9107 62.0893 0 40 0ZM40 73.2143C21.6607 73.2143 6.78571 58.3393 6.78571 40C6.78571 21.6607 21.6607 6.78571 40 6.78571C58.3393 6.78571 73.2143 21.6607 73.2143 40C73.2143 58.3393 58.3393 73.2143 40 73.2143Z" fill="white" fill-opacity="0.85"/>
<path d="M35.7143 55.7143C35.7143 56.8509 36.1658 57.941 36.9695 58.7447C37.7733 59.5485 38.8634 60 40 60C41.1366 60 42.2267 59.5485 43.0305 58.7447C43.8342 57.941 44.2857 56.8509 44.2857 55.7143C44.2857 54.5776 43.8342 53.4876 43.0305 52.6838C42.2267 51.8801 41.1366 51.4286 40 51.4286C38.8634 51.4286 37.7733 51.8801 36.9695 52.6838C36.1658 53.4876 35.7143 54.5776 35.7143 55.7143ZM37.8571 45.7143H42.1429C42.5357 45.7143 42.8571 45.3929 42.8571 45V20.7143C42.8571 20.3214 42.5357 20 42.1429 20H37.8571C37.4643 20 37.1429 20.3214 37.1429 20.7143V45C37.1429 45.3929 37.4643 45.7143 37.8571 45.7143Z" fill="white" fill-opacity="0.85"/>
</svg>
