<svg width="194" height="184" viewBox="0 0 194 184" fill="none" xmlns="http://www.w3.org/2000/svg">
<g clip-path="url(#clip0_118_2652)">
<path d="M97 184.001C150.572 184.001 194 157.974 194 125.869C194 93.7632 150.572 67.7366 97 67.7366C43.4284 67.7366 0 93.7632 0 125.869C0 157.974 43.4284 184.001 97 184.001Z" fill="#F5F5F5"/>
<path d="M114.176 99.9674L112.421 98.9521C111.753 98.6126 111.014 98.4357 110.264 98.4357C109.515 98.4357 108.776 98.6126 108.108 98.9521L15.3228 152.594C14.1369 153.28 14.1369 154.402 15.3228 155.088L17.0784 156.103C17.7471 156.441 18.4857 156.617 19.2348 156.617C19.9839 156.617 20.7225 156.441 21.3911 156.103L49.5783 139.807L62.1198 147.058C65.3525 148.927 70.6414 148.927 73.8741 147.058L93.32 135.815C96.0801 134.219 96.0801 131.608 93.32 130.012L79.923 122.265L114.178 102.461C115.363 101.775 115.363 100.652 114.176 99.9674Z" fill="#E0E0E0"/>
<path d="M147.942 165.837C157.624 171.434 173.321 171.434 183.003 165.837C192.685 160.239 192.685 151.164 183.003 145.567C173.321 139.969 157.624 139.97 147.942 145.567C138.26 151.164 138.261 160.24 147.942 165.837Z" fill="#E0E0E0"/>
<path d="M53.0979 19.1099L54.6555 18.1663C54.6411 18.0578 54.6336 17.9486 54.6332 17.8392V17.0678C54.6736 16.3206 54.8894 15.5934 55.263 14.9454C55.6366 14.2973 56.1574 13.7465 56.7833 13.3376C56.9695 13.2125 57.1789 13.126 57.3991 13.0833C57.6193 13.0406 57.8457 13.0426 58.0651 13.0892C58.2595 11.1374 59.6128 8.92966 61.256 7.97983C63.034 6.95258 64.4734 7.78523 64.4734 9.83974V10.9941C64.4658 11.5555 64.3739 12.1125 64.2009 12.6466L66.4106 11.3692C67.0693 10.9883 67.6035 11.2972 67.6035 12.059C67.5813 12.4737 67.4617 12.8773 67.2544 13.2371C67.0471 13.5968 66.758 13.9025 66.4106 14.1293L53.0962 21.8691C52.4371 22.25 51.9033 21.9411 51.9033 21.1793C51.9258 20.7646 52.0457 20.361 52.2533 20.0014C52.4608 19.6418 52.7502 19.3364 53.0979 19.1099Z" fill="#EBEBEB"/>
<path d="M39.7475 15.9619L38.1142 16.5908V12.9886C38.1142 10.1316 35.84 9.44805 33.3694 10.8769C30.8996 12.3033 28.8984 15.7764 28.8984 18.6321V19.1554C28.5509 19.0474 28.1834 19.0202 27.8238 19.0756C27.4642 19.1311 27.122 19.2678 26.823 19.4755C25.8863 20.0871 25.1068 20.9112 24.5477 21.8811C23.9887 22.8509 23.666 23.9391 23.6057 25.0573V25.2949L21.3286 26.6116C20.7118 27.0144 20.1984 27.5571 19.8302 28.1957C19.462 28.8343 19.2494 29.5508 19.2095 30.2871C19.2095 31.6407 20.1605 32.1889 21.3286 31.5123L39.7495 20.8625C40.3665 20.4599 40.88 19.9172 41.2483 19.2786C41.6166 18.64 41.8293 17.9234 41.8691 17.187C41.867 15.8335 40.9181 15.2853 39.7475 15.9619Z" fill="#EBEBEB"/>
<path d="M74.0984 144.168L90.1832 134.855C91.8412 133.896 92.6703 132.639 92.6707 131.383C92.6711 130.127 92.6777 129.142 92.6777 129.142L77.5407 120.54C77.0745 120.235 76.6865 119.825 76.4082 119.342C76.13 118.86 75.9693 118.318 75.9393 117.762V97.904L47.8423 114.162V134.021C47.8724 134.578 48.0331 135.119 48.3113 135.602C48.5896 136.084 48.9776 136.494 49.4437 136.799L62.0878 144.169C65.4052 146.087 70.7822 146.087 74.0984 144.168Z" fill="#263238"/>
<path opacity="0.15" d="M54.5898 137.538V139.769L49.4402 136.798C48.9747 136.493 48.5873 136.083 48.3095 135.601C48.0316 135.118 47.8711 134.577 47.8408 134.021V114.163L53.1939 111.071C53.3047 112.432 53.4246 113.839 53.5354 115.211L49.7822 117.387V132.902C49.8103 133.459 49.97 134.001 50.2482 134.484C50.5263 134.967 50.9148 135.377 51.3819 135.68L54.5898 137.538Z" fill="black"/>
<path d="M49.7798 132.904C49.8102 133.46 49.9712 134.001 50.2497 134.484C50.5283 134.966 50.9165 135.376 51.3829 135.68L62.0869 141.932C65.4035 143.849 70.7809 143.85 74.0975 141.932L90.1917 132.619C93.5087 130.703 93.5087 127.595 90.1917 125.678L79.4807 119.423C79.0145 119.118 78.6266 118.708 78.3483 118.226C78.0701 117.743 77.9094 117.202 77.8793 116.645V101.127L49.7798 117.385V132.904Z" fill="#455A64"/>
<path opacity="0.3" d="M82.7423 121.313V121.31L79.4807 119.425C79.0145 119.12 78.6266 118.71 78.3483 118.228C78.0701 117.745 77.9094 117.204 77.8793 116.647V101.127L49.7798 117.385V132.904C49.8102 133.46 49.9712 134.001 50.2497 134.484C50.5283 134.966 50.9165 135.376 51.3829 135.68L54.5882 137.533L82.7423 121.313Z" fill="black"/>
<path d="M16.311 145.149C16.9178 145.443 17.5851 145.59 18.259 145.577C18.9329 145.565 19.5944 145.394 20.1899 145.077L112.63 91.6349C113.213 91.2547 113.698 90.7422 114.045 90.1391C114.393 89.536 114.594 88.8593 114.631 88.1639V3.8292C114.607 3.15462 114.424 2.49527 114.098 1.90454C113.772 1.31382 113.311 0.808336 112.754 0.429032C112.147 0.135208 111.479 -0.0113805 110.805 0.00113593C110.131 0.0136523 109.47 0.184922 108.874 0.501076L16.4363 53.9436C15.8536 54.3239 15.3687 54.8365 15.0209 55.4396C14.6731 56.0428 14.4722 56.7195 14.4346 57.415V141.749C14.4588 142.424 14.6412 143.083 14.9672 143.674C15.2932 144.264 15.7536 144.77 16.311 145.149Z" fill="#455A64"/>
<path d="M20.191 145.075L112.63 91.6328C113.213 91.2524 113.698 90.7398 114.046 90.1366C114.393 89.5334 114.594 88.8565 114.632 88.161V3.82672C114.632 2.54813 113.736 2.03016 112.63 2.66945L20.1926 56.112C19.6099 56.4924 19.125 57.005 18.7772 57.6082C18.4294 58.2114 18.2285 58.8883 18.1909 59.5838V143.918C18.1893 145.196 19.0857 145.714 20.191 145.075Z" fill="#37474F"/>
<path d="M20.8354 130.756V60.4773C20.8585 60.0496 20.9819 59.6334 21.1957 59.2625C21.4095 58.8916 21.7077 58.5764 22.066 58.3425L110.754 7.0683C111.434 6.67537 111.985 6.99377 111.985 7.78005L111.989 78.0607C111.966 78.4884 111.842 78.9045 111.628 79.2755C111.415 79.6464 111.116 79.9616 110.758 80.1955L22.0652 131.468C21.3854 131.861 20.8354 131.542 20.8354 130.756Z" fill="#313A46"/>
<path opacity="0.7" d="M20.8354 130.756V60.4773C20.8585 60.0496 20.9819 59.6334 21.1957 59.2625C21.4095 58.8916 21.7077 58.5764 22.066 58.3425L110.754 7.0683C111.434 6.67537 111.985 6.99377 111.985 7.78005L111.989 78.0607C111.966 78.4884 111.842 78.9045 111.628 79.2755C111.415 79.6464 111.116 79.9616 110.758 80.1955L22.0652 131.468C21.3854 131.861 20.8354 131.542 20.8354 130.756Z" fill="white"/>
<path d="M15.0239 55.4346L18.778 57.6005C18.4208 58.202 18.2176 58.8826 18.1863 59.5817V134.562L18.1892 143.92C18.1892 145.086 18.9773 145.738 20.19 145.079C19.5956 145.398 18.9337 145.571 18.2593 145.584C17.5848 145.597 16.917 145.448 16.3111 145.151C15.7605 144.823 15.3003 144.362 14.9723 143.811C14.6443 143.259 14.4588 142.635 14.4326 141.994V57.4154C14.4598 56.7158 14.6632 56.0344 15.0239 55.4346Z" fill="#263238"/>
<path d="M64.6587 114.04L69.186 111.438C69.5913 111.204 69.92 111.37 69.92 111.811C69.9019 112.058 69.826 112.297 69.6985 112.509C69.571 112.721 69.3955 112.9 69.186 113.031L64.6587 115.633C64.2535 115.868 63.9248 115.701 63.9248 115.261C63.9429 115.014 64.0188 114.775 64.1463 114.563C64.2738 114.351 64.4494 114.172 64.6587 114.04Z" fill="#313A46"/>
<path d="M42.3811 158.366L45.5389 156.539C45.5389 156.539 47.4186 148.719 46.6694 141.682C45.6162 131.788 39.112 128.066 36.6402 128.919C34.1684 129.773 33.451 132.651 37.5429 138.543C39.9568 142.02 42.9228 149.261 42.3811 158.366Z" fill="#313A46"/>
<g opacity="0.3">
<path d="M42.3811 158.366L45.5389 156.539C45.5389 156.539 47.4186 148.719 46.6694 141.682C45.6162 131.788 39.112 128.066 36.6402 128.919C34.1684 129.773 33.451 132.651 37.5429 138.543C39.9568 142.02 42.9228 149.261 42.3811 158.366Z" fill="white"/>
</g>
<path d="M43.6898 154.524C43.6799 154.523 43.6701 154.522 43.6604 154.519C43.6321 154.514 43.6051 154.503 43.581 154.488C43.5569 154.472 43.5361 154.451 43.5199 154.428C43.5037 154.404 43.4923 154.377 43.4865 154.349C43.4807 154.321 43.4805 154.291 43.4859 154.263C45.2168 145.138 42.0337 134.886 38.0915 130.618C38.0708 130.597 38.0546 130.572 38.0437 130.544C38.0328 130.517 38.0275 130.488 38.0281 130.458C38.0288 130.429 38.0353 130.4 38.0474 130.373C38.0595 130.346 38.0769 130.322 38.0985 130.302C38.1201 130.282 38.1455 130.267 38.1732 130.257C38.2009 130.247 38.2303 130.242 38.2597 130.244C38.289 130.246 38.3178 130.253 38.3441 130.266C38.3705 130.279 38.394 130.298 38.4132 130.32C42.427 134.665 45.6729 145.086 43.9159 154.345C43.9064 154.397 43.8781 154.444 43.8365 154.477C43.7949 154.51 43.7427 154.527 43.6898 154.524Z" fill="white"/>
<path d="M34.4333 162.961C33.9615 163.201 32.707 162.126 32.3572 161.864C31.7582 161.41 31.2862 160.808 30.9865 160.118C30.651 159.335 30.567 158.467 30.7462 157.634C30.8417 157.194 30.9679 156.761 31.1237 156.338L31.5529 155.084C31.722 154.681 31.8074 154.247 31.8039 153.81C31.7369 152.934 30.996 152.285 30.3207 151.723C29.5744 151.102 28.8053 150.294 28.8624 149.246C28.9606 148.436 29.3241 147.68 29.8961 147.098C30.4287 146.489 31.0506 145.959 31.5368 145.311C31.9162 144.863 32.1309 144.298 32.1455 143.71C32.1152 143.348 32.0121 142.996 31.8424 142.675C31.4502 142.004 31.1128 141.303 30.8335 140.578C30.6151 139.833 30.6974 138.922 31.2953 138.425C31.5602 138.247 31.858 138.124 32.1711 138.062C32.4842 138.001 32.8064 138.003 33.1188 138.068C33.7095 138.17 34.2708 138.401 34.7637 138.743C36.3788 139.752 37.2277 141.77 38.9548 142.571C39.644 142.825 40.3483 143.035 41.0636 143.201C41.4213 143.286 41.7573 143.445 42.0498 143.669C42.3424 143.892 42.5852 144.174 42.7626 144.496C43.3444 145.824 42.063 147.358 42.4488 148.755C42.7903 149.991 43.9469 150.516 44.5543 151.646C44.8003 152.143 44.8807 152.706 44.7838 153.253C44.6795 154.18 44.4065 155.08 43.9783 155.909C43.497 156.759 42.9642 157.579 42.3831 158.365C42.3831 158.365 34.5057 162.925 34.4333 162.961Z" fill="#313A46"/>
<g opacity="0.65">
<path d="M34.4333 162.961C33.9615 163.201 32.707 162.126 32.3572 161.864C31.7582 161.41 31.2862 160.808 30.9865 160.118C30.651 159.335 30.567 158.467 30.7462 157.634C30.8417 157.194 30.9679 156.761 31.1237 156.338L31.5529 155.084C31.722 154.681 31.8074 154.247 31.8039 153.81C31.7369 152.934 30.996 152.285 30.3207 151.723C29.5744 151.102 28.8053 150.294 28.8624 149.246C28.9606 148.436 29.3241 147.68 29.8961 147.098C30.4287 146.489 31.0506 145.959 31.5368 145.311C31.9162 144.863 32.1309 144.298 32.1455 143.71C32.1152 143.348 32.0121 142.996 31.8424 142.675C31.4502 142.004 31.1128 141.303 30.8335 140.578C30.6151 139.833 30.6974 138.922 31.2953 138.425C31.5602 138.247 31.858 138.124 32.1711 138.062C32.4842 138.001 32.8064 138.003 33.1188 138.068C33.7095 138.17 34.2708 138.401 34.7637 138.743C36.3788 139.752 37.2277 141.77 38.9548 142.571C39.644 142.825 40.3483 143.035 41.0636 143.201C41.4213 143.286 41.7573 143.445 42.0498 143.669C42.3424 143.892 42.5852 144.174 42.7626 144.496C43.3444 145.824 42.063 147.358 42.4488 148.755C42.7903 149.991 43.9469 150.516 44.5543 151.646C44.8003 152.143 44.8807 152.706 44.7838 153.253C44.6795 154.18 44.4065 155.08 43.9783 155.909C43.497 156.759 42.9642 157.579 42.3831 158.365C42.3831 158.365 34.5057 162.925 34.4333 162.961Z" fill="white"/>
</g>
<path d="M39.0045 160.575H38.9987C38.9713 160.573 38.9445 160.566 38.92 160.553C38.8956 160.541 38.8738 160.524 38.8561 160.503C38.8383 160.482 38.8249 160.457 38.8167 160.431C38.8084 160.405 38.8055 160.377 38.808 160.35C39.5643 152.142 36.1518 142.866 33.4703 140.087C33.4319 140.047 33.4108 139.994 33.4116 139.939C33.4125 139.883 33.4351 139.831 33.4747 139.792C33.5142 139.754 33.5674 139.733 33.6224 139.734C33.6775 139.734 33.7301 139.757 33.7684 139.797C36.5037 142.633 39.9877 152.063 39.2211 160.386C39.2166 160.44 39.1914 160.489 39.151 160.525C39.1106 160.56 39.058 160.578 39.0045 160.575Z" fill="white"/>
<path d="M38.1902 150.455C38.1694 150.454 38.1489 150.45 38.1294 150.443C36.2102 149.808 34.2275 149.384 32.2165 149.18C32.1894 149.177 32.1631 149.17 32.139 149.157C32.1148 149.144 32.0935 149.127 32.0761 149.106C32.0587 149.085 32.0456 149.061 32.0375 149.035C32.0295 149.009 32.0267 148.981 32.0292 148.954C32.0308 148.927 32.038 148.9 32.0504 148.875C32.0628 148.851 32.08 148.829 32.1011 148.812C32.1222 148.794 32.1466 148.781 32.173 148.773C32.1993 148.765 32.2269 148.763 32.2542 148.766C34.3005 148.975 36.318 149.407 38.2709 150.054C38.3178 150.07 38.3572 150.103 38.3817 150.147C38.4061 150.191 38.4141 150.241 38.404 150.29C38.3939 150.339 38.3665 150.383 38.3269 150.413C38.2872 150.443 38.2379 150.458 38.1882 150.455H38.1902Z" fill="white"/>
<path d="M149.95 5.84615C149.945 5.76918 149.931 5.69305 149.909 5.61925C149.911 5.6111 149.912 5.60245 149.911 5.59402C149.909 5.58559 149.906 5.57763 149.901 5.57081C149.892 5.49572 149.872 5.42219 149.844 5.35219C149.812 5.23978 149.763 5.13304 149.698 5.03585C149.679 4.98804 149.651 4.94415 149.616 4.90626C149.596 4.87304 149.572 4.84302 149.543 4.81724C149.497 4.75537 149.443 4.70067 149.381 4.65493L149.365 4.63878C149.299 4.59072 149.229 4.54991 149.155 4.51705C148.882 4.4143 148.588 4.37979 148.299 4.41652C148.01 4.45325 147.734 4.5601 147.496 4.7278L63.3589 53.3736C61.9994 54.1603 60.8904 56.0802 60.8904 58.8303V136.476C60.891 136.774 60.9698 137.066 61.1188 137.324C61.2679 137.581 61.482 137.795 61.7397 137.944C61.9974 138.092 62.2895 138.171 62.5869 138.17C62.8842 138.17 63.1763 138.092 63.4338 137.943L147.499 89.2919C148.217 88.8232 148.815 88.1915 149.244 87.4481C149.672 86.7046 149.92 85.8704 149.967 85.0131V6.1542C149.968 6.04903 149.958 5.94345 149.95 5.84615Z" fill="#FAFAFA"/>
<path d="M148.593 4.79417C148.732 4.79276 148.869 4.82261 148.995 4.88153C149.034 4.89899 149.072 4.91976 149.108 4.94364L149.121 4.95648L149.144 4.97387C149.176 4.99709 149.204 5.02502 149.227 5.05668L149.26 5.10181L149.277 5.11381C149.284 5.12458 149.293 5.137 149.307 5.15522C149.314 5.1635 149.321 5.17178 149.327 5.18048L149.338 5.21194L149.368 5.25666C149.409 5.31914 149.441 5.3879 149.461 5.46037L149.466 5.47652L149.472 5.49184C149.48 5.51379 149.488 5.53614 149.494 5.55767L149.479 5.5879L149.532 5.74524C149.543 5.78886 149.55 5.83352 149.553 5.87856C149.56 5.96551 149.568 6.0595 149.568 6.15349V85.0149C149.518 85.8014 149.288 86.5658 148.894 87.2482C148.5 87.9306 147.954 88.5125 147.298 88.9484L63.2332 137.599C63.0371 137.715 62.8135 137.777 62.5857 137.777C62.2417 137.776 61.912 137.639 61.6687 137.396C61.4255 137.152 61.2885 136.822 61.2877 136.477V58.8329C61.2877 56.0315 62.46 54.3554 63.557 53.7211L147.694 5.07448C147.964 4.90528 148.274 4.80874 148.592 4.79417M148.592 4.39503C148.205 4.40904 147.828 4.52315 147.497 4.72626L63.3589 53.3737C61.9994 54.1604 60.8904 56.0803 60.8904 58.8309V136.476C60.8904 136.699 60.9342 136.92 61.0194 137.126C61.1046 137.332 61.2295 137.519 61.3869 137.677C61.5443 137.834 61.7312 137.959 61.9369 138.045C62.1426 138.13 62.3631 138.174 62.5857 138.174C62.8837 138.173 63.1761 138.093 63.4329 137.942L147.498 89.2912C148.216 88.8225 148.814 88.1908 149.243 87.4474C149.672 86.7039 149.919 85.8697 149.966 85.0124V6.15432C149.966 6.04915 149.958 5.94357 149.95 5.84627C149.945 5.7693 149.931 5.69317 149.908 5.61937C149.911 5.61122 149.912 5.60257 149.91 5.59414C149.909 5.58571 149.905 5.57775 149.9 5.57092C149.891 5.49584 149.872 5.42231 149.843 5.35231C149.812 5.2399 149.763 5.13316 149.698 5.03597C149.678 4.98816 149.65 4.94427 149.615 4.90638C149.596 4.87316 149.571 4.84314 149.542 4.81736C149.497 4.75549 149.442 4.70078 149.381 4.65505L149.365 4.6389C149.299 4.59084 149.229 4.55003 149.154 4.51717C148.977 4.43501 148.785 4.39329 148.59 4.39503H148.592Z" fill="#E0E0E0"/>
<path d="M85.2073 51.8252L141.343 19.3741V21.9797L85.2077 54.4312C84.6788 54.7368 84.2463 54.4867 84.2463 53.8755V53.4917C84.2651 53.158 84.3618 52.8334 84.5287 52.5439C84.6956 52.2545 84.9281 52.0083 85.2073 51.8252Z" fill="#E0E0E0"/>
<path d="M145.85 16.7656L142.451 18.7306V21.3363L145.85 19.3712C146.13 19.1886 146.363 18.9426 146.53 18.653C146.697 18.3634 146.793 18.0385 146.811 17.7046V17.3204C146.811 16.7068 146.381 16.4579 145.85 16.7656Z" fill="#E0E0E0"/>
<path d="M144.198 19.6639C144.131 19.6644 144.064 19.6467 144.006 19.6126C143.923 19.5527 143.857 19.4719 143.814 19.3783C143.772 19.2846 143.755 19.1815 143.765 19.0793C143.768 18.8546 143.824 18.6338 143.928 18.435C144.033 18.2362 144.183 18.0652 144.367 17.9361C144.434 17.89 144.512 17.863 144.594 17.8579C144.675 17.8528 144.756 17.8698 144.828 17.9071C144.912 17.9672 144.978 18.0481 145.02 18.1417C145.062 18.2354 145.079 18.3385 145.069 18.4408C145.066 18.6649 145.011 18.8851 144.906 19.0834C144.802 19.2816 144.652 19.4522 144.469 19.5811C144.388 19.6322 144.294 19.6608 144.198 19.6639ZM144.636 18.0566C144.576 18.0597 144.518 18.0779 144.467 18.1096C144.315 18.2219 144.19 18.3678 144.103 18.5359C144.016 18.7041 143.969 18.89 143.965 19.0793C143.957 19.1463 143.966 19.2143 143.99 19.2772C144.015 19.3401 144.055 19.3958 144.106 19.4395C144.148 19.4577 144.195 19.4645 144.241 19.4594C144.286 19.4542 144.33 19.4372 144.367 19.4101C144.52 19.2979 144.644 19.1521 144.731 18.984C144.818 18.816 144.865 18.6301 144.869 18.4408C144.877 18.3738 144.869 18.3059 144.844 18.243C144.82 18.1801 144.78 18.1243 144.729 18.0806C144.7 18.0638 144.668 18.0551 144.634 18.0553L144.636 18.0566Z" fill="#FAFAFA"/>
<path d="M145.251 19.49C145.229 19.49 145.208 19.4829 145.19 19.4697L144.747 19.1339C144.737 19.126 144.728 19.1161 144.721 19.1047C144.715 19.0934 144.71 19.0808 144.708 19.0678C144.707 19.0547 144.707 19.0415 144.711 19.0288C144.714 19.016 144.72 19.0041 144.728 18.9936C144.736 18.9831 144.746 18.9742 144.757 18.9676C144.768 18.9609 144.781 18.9566 144.794 18.9548C144.807 18.953 144.82 18.9537 144.833 18.9571C144.846 18.9604 144.857 18.9662 144.868 18.9741L145.311 19.3099C145.328 19.3226 145.34 19.3402 145.346 19.3602C145.353 19.3803 145.352 19.4018 145.346 19.4217C145.339 19.4416 145.326 19.4589 145.309 19.4712C145.292 19.4834 145.272 19.49 145.251 19.49Z" fill="#FAFAFA"/>
<path d="M63.3589 53.3737C61.9994 54.1604 60.8904 56.0803 60.8904 58.8304V136.476C60.891 136.774 60.9698 137.066 61.1188 137.324C61.2679 137.582 61.482 137.795 61.7397 137.944C61.9974 138.093 62.2895 138.171 62.5869 138.17C62.8842 138.17 63.1763 138.092 63.4338 137.943L82.1086 127.136V50.0646L82.1367 42.5173L63.3589 53.3737Z" fill="#F0F0F0"/>
<path d="M81.7355 43.2096L81.7099 50.0646V126.905L63.2335 137.598C63.0374 137.714 62.8139 137.775 62.586 137.776C62.242 137.775 61.9123 137.638 61.6691 137.394C61.4258 137.151 61.2888 136.821 61.2881 136.476V58.8329C61.2881 56.0315 62.4603 54.3554 63.5573 53.7211L81.7351 43.2117M82.1358 42.5194L63.3584 53.3758C61.9989 54.1625 60.8899 56.0824 60.8899 58.8329V136.476C60.8899 136.699 60.9337 136.92 61.0189 137.126C61.1041 137.332 61.229 137.519 61.3864 137.677C61.5439 137.834 61.7307 137.959 61.9364 138.045C62.1421 138.13 62.3626 138.174 62.5852 138.174C62.8832 138.173 63.1756 138.093 63.4324 137.942L82.1077 127.135V50.0646L82.1354 42.5173L82.1358 42.5194Z" fill="#E0E0E0"/>
<path d="M68.3183 62.5623L78.1829 56.8625C78.5298 56.6617 78.8114 56.8244 78.8114 57.2256V58.0462C78.7996 58.2648 78.7365 58.4775 78.6272 58.667C78.5179 58.8566 78.3656 59.0177 78.1825 59.1373L68.3175 64.8366C67.9706 65.0375 67.689 64.8747 67.689 64.4731V63.6541C67.7007 63.4354 67.7638 63.2225 67.8732 63.0328C67.9825 62.8431 68.135 62.6819 68.3183 62.5623Z" fill="#E0E0E0"/>
<path d="M65.7228 64.7899V65.6093C65.711 65.8277 65.648 66.0403 65.5388 66.2298C65.4296 66.4193 65.2773 66.5803 65.0943 66.6999L64.8438 66.8539C64.4964 67.0547 64.2148 66.892 64.2148 66.4908V65.6709C64.2267 65.4524 64.2898 65.2398 64.399 65.0503C64.5083 64.8608 64.6607 64.6998 64.8438 64.5803L65.0943 64.4263C65.4413 64.2255 65.7228 64.3882 65.7228 64.7899Z" fill="#313A46"/>
<path d="M68.3184 67.092L78.183 61.3926C78.5299 61.1918 78.8115 61.3545 78.8115 61.7557V62.5751C78.7997 62.7937 78.7366 63.0063 78.6273 63.1959C78.518 63.3855 78.3657 63.5466 78.1826 63.6661L68.318 69.3659C67.971 69.5667 67.6895 69.404 67.6895 69.0024V68.1834C67.7013 67.9648 67.7644 67.7521 67.8737 67.5624C67.983 67.3728 68.1353 67.2116 68.3184 67.092Z" fill="#E0E0E0"/>
<path d="M65.7228 69.3196V70.1389C65.7111 70.3574 65.6481 70.57 65.5389 70.7595C65.4296 70.949 65.2774 71.1101 65.0943 71.2296L64.8438 71.384C64.4964 71.5848 64.2148 71.4221 64.2148 71.0209V70.2011C64.2267 69.9826 64.2899 69.77 64.3991 69.5805C64.5084 69.391 64.6607 69.23 64.8438 69.1105L65.0943 68.9564C65.4413 68.7556 65.7228 68.9183 65.7228 69.3196Z" fill="#313A46"/>
<path d="M68.3184 71.6221L78.183 65.9227C78.5299 65.7219 78.8115 65.8842 78.8115 66.2858V67.1052C78.7996 67.3238 78.7365 67.5364 78.6272 67.726C78.5179 67.9155 78.3656 68.0766 78.1826 68.1962L68.318 73.8956C67.971 74.0968 67.6895 73.9341 67.6895 73.5325V72.7131C67.7013 72.4946 67.7645 72.2819 67.8737 72.0923C67.983 71.9028 68.1353 71.7417 68.3184 71.6221Z" fill="#E0E0E0"/>
<path d="M65.7228 73.8497V74.6691C65.7111 74.8875 65.6481 75.1001 65.5389 75.2896C65.4296 75.4791 65.2774 75.6402 65.0943 75.7597L64.8438 75.9141C64.4964 76.1149 64.2148 75.9522 64.2148 75.5506V74.7324C64.2267 74.5139 64.2898 74.3013 64.399 74.1118C64.5083 73.9223 64.6607 73.7613 64.8438 73.6418L65.0943 73.4874C65.4413 73.2857 65.7228 73.4489 65.7228 73.8497Z" fill="#313A46"/>
<path d="M68.3184 86.6438L78.183 80.9431C78.5299 80.7423 78.8115 80.9046 78.8115 81.3063V82.1253C78.7997 82.3438 78.7366 82.5565 78.6274 82.7461C78.5181 82.9357 78.3657 83.0968 78.1826 83.2163L68.318 88.9161C67.971 89.1169 67.6895 88.9546 67.6895 88.5529V87.7335C67.7016 87.5152 67.7648 87.3028 67.8741 87.1135C67.9833 86.9242 68.1355 86.7633 68.3184 86.6438Z" fill="#E0E0E0"/>
<path d="M65.7228 88.8714V89.6908C65.7111 89.9092 65.6481 90.1218 65.5389 90.3113C65.4296 90.5008 65.2774 90.6619 65.0943 90.7814L64.8438 90.9358C64.4964 91.1366 64.2148 90.9739 64.2148 90.5723V89.7529C64.2267 89.5344 64.2898 89.3217 64.399 89.1322C64.5083 88.9427 64.6607 88.7817 64.8438 88.6623L65.0943 88.5078C65.4413 88.307 65.7228 88.4697 65.7228 88.8714Z" fill="#313A46"/>
<path d="M68.3184 90.6559L78.183 84.9565C78.5299 84.7557 78.8115 84.918 78.8115 85.3196V86.139C78.7996 86.3576 78.7365 86.5702 78.6272 86.7598C78.5179 86.9493 78.3656 87.1105 78.1826 87.2301L68.318 92.9294C67.971 93.1307 67.6895 92.968 67.6895 92.5663V91.7469C67.7014 91.5284 67.7645 91.3157 67.8738 91.1262C67.983 90.9366 68.1354 90.7755 68.3184 90.6559Z" fill="#E0E0E0"/>
<path d="M65.7228 92.8835V93.7029C65.7111 93.9214 65.6481 94.134 65.5389 94.3235C65.4296 94.513 65.2774 94.674 65.0943 94.7935L64.8438 94.9479C64.4964 95.1487 64.2148 94.986 64.2148 94.5844V93.765C64.2267 93.5465 64.2898 93.3339 64.399 93.1444C64.5083 92.9549 64.6607 92.7939 64.8438 92.6744L65.0943 92.52C65.4413 92.3196 65.7228 92.4823 65.7228 92.8835Z" fill="#313A46"/>
<path d="M68.3183 94.6684L78.1829 88.9687C78.5298 88.7678 78.8114 88.9301 78.8114 89.3318V90.1512C78.7995 90.3697 78.7364 90.5824 78.6271 90.7719C78.5179 90.9615 78.3655 91.1226 78.1825 91.2422L68.3175 96.942C67.9706 97.1428 67.689 96.9801 67.689 96.5785V95.7595C67.7008 95.5409 67.764 95.3282 67.8733 95.1386C67.9827 94.949 68.1351 94.788 68.3183 94.6684Z" fill="#E0E0E0"/>
<path d="M65.7228 96.8956V97.7154C65.7111 97.9339 65.6481 98.1464 65.5389 98.3358C65.4296 98.5253 65.2773 98.6862 65.0943 98.8056L64.8438 98.9601C64.4964 99.1609 64.2148 98.9982 64.2148 98.5965V97.7771C64.2267 97.5586 64.2898 97.346 64.399 97.1565C64.5083 96.967 64.6607 96.806 64.8438 96.6865L65.0943 96.5325C65.4413 96.3313 65.7228 96.4944 65.7228 96.8956Z" fill="#313A46"/>
<path d="M68.1475 76.3112V77.7247L69.3697 76.3116L68.1475 76.3112Z" fill="#313A46"/>
<path d="M70.1135 76.0201C70.1135 76.2826 70.3013 76.387 70.5328 76.2532L78.3932 71.7219C78.5151 71.6428 78.6166 71.5362 78.6895 71.4105C78.7624 71.2848 78.8047 71.1436 78.8129 70.9985C78.8129 70.7327 78.6248 70.6259 78.3936 70.7592L70.5328 75.303C70.4115 75.3811 70.3104 75.4867 70.2375 75.6113C70.1647 75.7359 70.1222 75.876 70.1135 76.0201Z" fill="#E0E0E0"/>
<path d="M68.1475 78.5831V79.9962L69.3697 78.5831H68.1475Z" fill="#313A46"/>
<path d="M70.1135 78.2932C70.1135 78.5557 70.3013 78.6601 70.5328 78.5263L78.3932 73.9946C78.5151 73.9156 78.6166 73.8089 78.6895 73.6832C78.7625 73.5575 78.8047 73.4164 78.8129 73.2712C78.8129 73.0054 78.6248 72.8986 78.3936 73.0323L70.5328 77.5757C70.4115 77.6538 70.3103 77.7596 70.2374 77.8842C70.1646 78.0089 70.1221 78.149 70.1135 78.2932Z" fill="#E0E0E0"/>
<path d="M68.1475 80.857V82.2706L69.3697 80.8574L68.1475 80.857Z" fill="#313A46"/>
<path d="M70.1135 80.5659C70.1135 80.828 70.3013 80.9324 70.5328 80.7986L78.3932 76.2673C78.5151 76.1883 78.6166 76.0816 78.6895 75.9559C78.7625 75.8302 78.8047 75.6891 78.8129 75.5439C78.8129 75.2781 78.6248 75.1713 78.3936 75.3046L70.5328 79.8484C70.4115 79.9266 70.3104 80.0323 70.2375 80.157C70.1647 80.2817 70.1222 80.4218 70.1135 80.5659Z" fill="#E0E0E0"/>
<path d="M68.1475 83.1297V84.5433L69.3697 83.1297H68.1475Z" fill="#313A46"/>
<path d="M70.1135 82.8382C70.1135 83.1008 70.3013 83.2051 70.5328 83.0714L78.3932 78.5417C78.5151 78.4627 78.6167 78.356 78.6896 78.2303C78.7626 78.1046 78.8048 77.9635 78.8129 77.8183C78.8129 77.5525 78.6248 77.4457 78.3936 77.5794L70.5328 82.1211C70.4116 82.1993 70.3105 82.3049 70.2376 82.4295C70.1648 82.5541 70.1223 82.6941 70.1135 82.8382Z" fill="#E0E0E0"/>
<path d="M149.157 4.51718C148.884 4.41442 148.591 4.37994 148.301 4.41674C148.012 4.45354 147.736 4.56051 147.498 4.72834L63.359 53.3737C62.6412 53.8431 62.0438 54.475 61.615 55.2184C61.1861 55.9618 60.938 56.7957 60.8905 57.6529V62.4422L57.7422 60.5943V55.8617C57.7882 55.0062 58.0349 54.1737 58.4625 53.4316C58.89 52.6895 59.4863 52.0589 60.2029 51.5908L144.348 2.94503C145.051 2.53098 145.683 2.52395 146.136 2.79929C146.583 3.06676 148.631 4.24183 149.157 4.51718Z" fill="#313A46"/>
<path d="M149.961 6.13776C149.951 4.57845 148.853 3.94785 147.497 4.72999L63.3573 53.3762C62.6396 53.8447 62.0424 54.4762 61.6141 55.2192C61.1858 55.9622 60.9384 56.7958 60.8921 57.6525L60.8946 62.4455L149.96 10.9585L149.961 6.13776Z" fill="#313A46"/>
<path opacity="0.2" d="M147.496 4.73041L63.3601 53.3758C62.636 53.8298 62.0386 54.4602 61.6235 55.2079L58.4905 53.3911C58.8989 52.6531 59.4896 52.0324 60.206 51.5883L144.347 2.94338C144.604 2.75728 144.907 2.64526 145.223 2.61949C145.539 2.59371 145.856 2.65519 146.139 2.79722C146.581 3.06883 148.628 4.23355 149.148 4.51304C148.875 4.41198 148.583 4.37896 148.295 4.41685C148.007 4.45473 147.733 4.56236 147.496 4.73041Z" fill="white"/>
<path opacity="0.15" d="M57.7383 60.6046L57.7404 55.8601C57.7745 54.9862 58.0329 54.1359 58.4904 53.3911L61.6329 55.2001C61.1785 55.9399 60.9247 56.7856 60.8965 57.6537V62.4455L57.7383 60.6046Z" fill="black"/>
<path d="M140.242 11.209C139.725 11.508 139.306 12.3969 139.306 13.1965C139.306 13.996 139.725 14.3972 140.242 14.0991C140.759 13.801 141.179 12.9108 141.179 12.1117C141.179 11.3126 140.76 10.9097 140.242 11.209Z" fill="#37474F"/>
<path d="M143.615 9.25515C143.098 9.5541 142.678 10.4435 142.678 11.2426C142.678 12.0417 143.098 12.4433 143.615 12.1452C144.133 11.8471 144.552 10.9569 144.552 10.1578C144.552 9.35867 144.133 8.95579 143.615 9.25515Z" fill="#37474F"/>
<path d="M146.989 7.30125C146.471 7.60061 146.052 8.48957 146.052 9.28868C146.052 10.0878 146.471 10.4894 146.989 10.1913C147.506 9.89319 147.926 9.00299 147.926 8.20388C147.926 7.40476 147.506 7.00231 146.989 7.30125Z" fill="#37474F"/>
<path d="M61.6471 137.896L59.0471 136.392C58.7011 136.192 58.4053 135.915 58.1821 135.583C57.959 135.251 57.8145 134.873 57.7595 134.477C57.7451 134.357 57.7377 134.237 57.7375 134.117V60.5964L60.8892 62.4447V136.477C60.8888 136.565 60.8961 136.653 60.9111 136.74C60.917 136.787 60.927 136.834 60.9409 136.88C60.9418 136.902 60.9469 136.923 60.9557 136.943C60.9689 136.995 60.9862 137.046 61.0074 137.095C61.0078 137.103 61.0103 137.111 61.0149 137.117C61.0405 137.18 61.0703 137.239 61.1 137.299C61.1298 137.359 61.1736 137.414 61.2109 137.469C61.2407 137.51 61.2729 137.55 61.3072 137.587C61.4372 137.74 61.5935 137.867 61.7687 137.963L61.6471 137.896Z" fill="#E0E0E0"/>
<path d="M88.9028 169.094C88.3989 169.104 87.9008 168.985 87.4556 168.748L69.7136 158.495L70.6126 157.974L69.3415 156.847C69.2964 156.806 69.2616 156.755 69.24 156.698C69.2184 156.641 69.2107 156.58 69.2175 156.519C69.2287 156.453 69.2552 156.39 69.2949 156.336C69.3346 156.282 69.3864 156.238 69.4461 156.207L77.3793 151.62C77.4857 151.565 77.6019 151.531 77.7213 151.521C77.8406 151.511 77.9608 151.525 78.0748 151.562L80.0897 152.321C80.2051 152.356 80.3294 152.346 80.4383 152.295L95.4339 143.626L95.5381 143.686L112.948 153.751C113.118 153.849 113.258 153.99 113.356 154.16C113.454 154.33 113.505 154.522 113.505 154.718C113.505 154.914 113.454 155.107 113.356 155.277C113.258 155.447 113.118 155.588 112.948 155.686L90.3509 168.752C89.9052 168.987 89.4068 169.105 88.9028 169.094ZM70.5464 158.495L87.6649 168.39C88.0497 168.582 88.4737 168.682 88.9035 168.682C89.3333 168.682 89.7572 168.582 90.1421 168.39L112.739 155.325C112.846 155.264 112.934 155.175 112.995 155.069C113.057 154.962 113.089 154.841 113.089 154.718C113.089 154.595 113.057 154.475 112.995 154.368C112.934 154.262 112.846 154.173 112.739 154.112L95.4339 144.107L80.6467 152.656C80.5404 152.711 80.4243 152.745 80.305 152.755C80.1857 152.765 80.0656 152.751 79.9516 152.714L77.9363 151.955C77.8209 151.92 77.6962 151.929 77.5873 151.981L69.6549 156.568L70.9264 157.695C70.9718 157.736 71.0068 157.788 71.0283 157.845C71.0499 157.903 71.0575 157.965 71.0505 158.026C71.039 158.092 71.0124 158.155 70.9727 158.209C70.933 158.263 70.8814 158.307 70.8218 158.338L70.5464 158.495Z" fill="#E0E0E0"/>
<path d="M99.0518 169.102C98.5473 169.111 98.049 168.989 97.6046 168.75L79.8626 158.495L80.7616 157.975L79.4901 156.847C79.4451 156.806 79.4104 156.755 79.3888 156.698C79.3673 156.641 79.3595 156.58 79.366 156.519C79.3774 156.453 79.4041 156.39 79.4438 156.336C79.4836 156.282 79.5354 156.238 79.5951 156.207L87.5283 151.62C87.6346 151.565 87.7507 151.531 87.8701 151.521C87.9894 151.511 88.1095 151.525 88.2234 151.562L90.2387 152.321C90.3542 152.356 90.4789 152.347 90.5877 152.295L105.582 143.626L105.687 143.686L119.029 151.399L118.822 151.76L105.584 144.107L90.7974 152.656C90.6909 152.711 90.5747 152.745 90.4554 152.754C90.336 152.764 90.2159 152.751 90.1019 152.714L88.0865 151.955C87.9714 151.92 87.847 151.929 87.7384 151.981L79.8056 156.568L81.0766 157.695C81.1219 157.736 81.1568 157.787 81.1783 157.844C81.1999 157.901 81.2076 157.963 81.2007 158.023C81.1894 158.09 81.1628 158.152 81.123 158.207C81.0833 158.261 81.0314 158.305 80.9716 158.336L80.6971 158.495L97.8155 168.39C98.2003 168.582 98.6242 168.682 99.0539 168.682C99.4837 168.682 99.9075 168.582 100.292 168.39L118.998 157.573L119.205 157.935L100.499 168.75C100.054 168.989 99.5562 169.111 99.0518 169.102Z" fill="#313A46"/>
<path d="M123.538 158.881C121.774 158.917 120.029 158.501 118.47 157.673C117.068 156.862 116.307 155.769 116.325 154.598C116.343 153.449 117.115 152.375 118.497 151.575C121.298 149.957 125.854 149.956 128.654 151.575C130.05 152.383 130.816 153.468 130.81 154.629C130.805 155.79 130.03 156.871 128.626 157.673C127.059 158.5 125.309 158.915 123.538 158.881ZM118.679 157.312C121.349 158.857 125.719 158.856 128.42 157.312C129.688 156.587 130.389 155.633 130.394 154.628C130.399 153.622 129.707 152.667 128.446 151.936C125.76 150.384 121.391 150.384 118.705 151.936C117.455 152.659 116.758 153.607 116.741 154.604C116.725 155.618 117.413 156.58 118.679 157.311V157.312Z" fill="#313A46"/>
<path d="M125.88 156.375C125.807 156.375 125.736 156.356 125.673 156.319L121.049 153.646C121.001 153.619 120.959 153.583 120.925 153.539C120.891 153.496 120.866 153.446 120.851 153.393C120.836 153.34 120.833 153.284 120.84 153.229C120.847 153.175 120.864 153.122 120.892 153.074C120.92 153.026 120.956 152.984 121 152.951C121.044 152.917 121.094 152.893 121.147 152.879C121.201 152.865 121.256 152.862 121.311 152.87C121.365 152.877 121.418 152.896 121.465 152.924L126.089 155.597C126.168 155.643 126.23 155.714 126.266 155.799C126.301 155.883 126.307 155.977 126.283 156.066C126.26 156.154 126.208 156.233 126.135 156.289C126.063 156.345 125.974 156.375 125.882 156.375H125.88Z" fill="#313A46"/>
<path d="M121.256 156.375C121.164 156.375 121.076 156.345 121.003 156.289C120.931 156.233 120.879 156.154 120.855 156.066C120.832 155.977 120.838 155.883 120.873 155.799C120.908 155.714 120.97 155.643 121.049 155.597L125.673 152.924C125.769 152.87 125.882 152.856 125.987 152.885C126.093 152.914 126.183 152.984 126.238 153.079C126.292 153.174 126.308 153.287 126.28 153.393C126.252 153.499 126.184 153.59 126.09 153.646L121.466 156.319C121.402 156.356 121.33 156.376 121.256 156.375Z" fill="#313A46"/>
<path d="M62.2257 42.6902C62.6446 42.9515 64.6037 44.0669 65.0937 44.3199C64.8327 44.2249 64.5525 44.1947 64.2773 44.2319C64.002 44.2691 63.7399 44.3726 63.5134 44.5336L30.6864 63.5223C30.0032 63.9689 29.4347 64.5705 29.027 65.2783C28.6194 65.9861 28.3841 66.7802 28.3403 67.5961V105.011C28.3229 105.688 28.5727 106.344 29.0354 106.838C29.0898 106.89 29.1478 106.937 29.2091 106.98C27.3368 105.648 25.3768 105.669 25.3384 103.302V65.8873C25.3845 65.0719 25.6207 64.2787 26.0281 63.5713C26.4355 62.8638 27.0028 62.2618 27.6845 61.8135L60.5114 42.8248C60.7596 42.6522 61.0492 42.5489 61.3504 42.5252C61.6516 42.5016 61.9537 42.5585 62.2257 42.6902Z" fill="#263238"/>
<path d="M64.5607 44.2123C64.1891 44.2258 63.8276 44.3365 63.5121 44.5336L30.6898 63.5211C30.0062 63.9673 29.4374 64.5686 29.0294 65.2762C28.6214 65.9838 28.3858 66.7778 28.3416 67.5937V105.008C28.3416 106.193 28.9994 107.2 29.9165 107.2C30.1906 107.194 30.4583 107.116 30.6922 106.973L63.5559 87.9736C64.24 87.5285 64.8094 86.9279 65.2178 86.2208C65.6262 85.5137 65.8621 84.72 65.9062 83.9043L65.8603 45.8909C65.8603 44.8272 65.3315 44.2123 64.5607 44.2123Z" fill="#37474F"/>
<path d="M63.5112 44.5324L30.6926 63.5202C30.0031 63.953 29.4341 64.5533 29.0386 65.2655L26.0544 63.5347C26.4431 62.8325 27.0052 62.2419 27.6869 61.8193L60.513 42.8315C60.7573 42.654 61.0456 42.5471 61.3464 42.5224C61.6472 42.4976 61.949 42.556 62.219 42.6911C62.6404 42.9499 64.59 44.0575 65.0849 44.3254C64.8256 44.229 64.5467 44.1976 64.2724 44.2336C63.9982 44.2697 63.7369 44.3723 63.5112 44.5324Z" fill="#455A64"/>
<path d="M38.8611 65.8824V88.2385C38.8611 89.2612 39.5785 89.6757 40.4629 89.1644L59.7969 77.985C60.2632 77.6807 60.6513 77.2704 60.9296 76.7877C61.2079 76.305 61.3686 75.7634 61.3987 75.2068V52.8527C61.3987 51.83 60.6817 51.4151 59.7973 51.9269L40.4625 63.1062C39.9966 63.4104 39.6087 63.8203 39.3305 64.3026C39.0523 64.785 38.8914 65.3262 38.8611 65.8824Z" fill="#313A46"/>
<path opacity="0.3" d="M52.5089 62.0785C52.5089 61.0558 51.7919 60.6409 50.9074 61.1523L38.8621 68.1162V88.239C38.8621 89.2617 39.5795 89.6761 40.4639 89.1648L52.5089 82.2013V62.0785Z" fill="black"/>
<path d="M32.8506 76.3057V98.6618C32.8506 99.6845 33.568 100.099 34.4524 99.5876L53.7864 88.4083C54.2527 88.104 54.6408 87.6939 54.9191 87.2112C55.1974 86.7286 55.3581 86.187 55.3882 85.6305V63.2755C55.3882 62.2524 54.6712 61.838 53.7868 62.3493L34.452 73.5286C33.9859 73.8329 33.5981 74.243 33.3198 74.7255C33.0416 75.2079 32.8808 75.7493 32.8506 76.3057Z" fill="#313A46"/>
<path opacity="0.3" d="M32.8506 76.3057V98.6618C32.8506 99.6845 33.568 100.099 34.4524 99.5876L53.7864 88.4083C54.2527 88.104 54.6408 87.6939 54.9191 87.2112C55.1974 86.7286 55.3581 86.187 55.3882 85.6305V63.2755C55.3882 62.2524 54.6712 61.838 53.7868 62.3493L34.452 73.5286C33.9859 73.8329 33.5981 74.243 33.3198 74.7255C33.0416 75.2079 32.8808 75.7493 32.8506 76.3057Z" fill="white"/>
<path d="M50.8817 79.1895V76.9313C50.8817 76.5222 50.5947 76.3562 50.2408 76.5607L46.3738 78.7966V74.3248C46.3738 73.9158 46.0869 73.7501 45.7333 73.9522L43.7804 75.0809C43.5939 75.2026 43.4386 75.3667 43.3272 75.5598C43.2159 75.7529 43.1515 75.9696 43.1395 76.1922V80.6639L39.2726 82.8998C39.0861 83.0216 38.9309 83.1856 38.8196 83.3787C38.7083 83.5718 38.6441 83.7885 38.6321 84.0111V86.2685C38.6321 86.6776 38.9186 86.8436 39.2726 86.6411L43.1395 84.4053V88.877C43.1395 89.2861 43.4265 89.4521 43.7804 89.2476L45.7329 88.1185C45.9195 87.9967 46.0747 87.8327 46.1861 87.6396C46.2975 87.4465 46.3618 87.2298 46.3738 87.0072V82.5354L50.2408 80.2996C50.4271 80.1779 50.5823 80.014 50.6936 79.8212C50.8049 79.6283 50.8694 79.4119 50.8817 79.1895Z" fill="white"/>
<path d="M76.5428 93.6986L74.2583 92.379V115.971L76.5412 117.291L80.975 107.98L87.2733 104.339L76.5428 93.6986Z" fill="#E0E0E0"/>
<path d="M76.5428 117.489C76.508 117.489 76.4738 117.48 76.4436 117.462L74.1607 116.143C74.1304 116.125 74.1053 116.1 74.0878 116.07C74.0704 116.039 74.0611 116.005 74.061 115.97V92.3786C74.0611 92.3436 74.0703 92.3092 74.0878 92.2788C74.1053 92.2485 74.1305 92.2234 74.1608 92.2059C74.1911 92.1884 74.2254 92.1792 74.2604 92.1792C74.2954 92.1792 74.3297 92.1884 74.36 92.2059L76.6425 93.5259C76.6576 93.5343 76.6715 93.5447 76.6838 93.557L87.4143 104.198C87.436 104.22 87.4525 104.246 87.4624 104.275C87.4723 104.304 87.4754 104.335 87.4714 104.366C87.4674 104.396 87.4564 104.425 87.4393 104.451C87.4222 104.476 87.3995 104.497 87.3729 104.513L81.1292 108.123L76.7239 117.377C76.712 117.402 76.6952 117.424 76.6744 117.442C76.6536 117.459 76.6294 117.473 76.6032 117.481C76.5836 117.487 76.5632 117.49 76.5428 117.489ZM74.4592 115.855L76.456 117.009L80.7955 107.894C80.8128 107.858 80.8406 107.828 80.8753 107.807L86.9478 104.297L76.4212 93.8584L74.4592 92.7239V115.855Z" fill="#455A64"/>
<path d="M76.543 93.6986V117.29L80.9752 107.98L87.2734 104.339L76.543 93.6986Z" fill="#FAFAFA"/>
<path d="M76.5429 117.489C76.4901 117.489 76.4395 117.468 76.4022 117.43C76.3649 117.393 76.344 117.342 76.344 117.289V93.6986C76.3439 93.6592 76.3555 93.6207 76.3773 93.5879C76.3991 93.5552 76.43 93.5296 76.4663 93.5144C76.5026 93.4993 76.5426 93.4952 76.5811 93.5028C76.6197 93.5104 76.6552 93.5292 76.6831 93.557L87.4135 104.198C87.4353 104.22 87.4517 104.246 87.4616 104.275C87.4715 104.304 87.4746 104.335 87.4706 104.366C87.4666 104.396 87.4556 104.425 87.4386 104.451C87.4215 104.476 87.3988 104.497 87.3722 104.513L81.1285 108.123L76.7232 117.377C76.7067 117.411 76.6811 117.439 76.6492 117.459C76.6173 117.479 76.5804 117.489 76.5429 117.489ZM76.7422 94.178V116.41L80.7944 107.896C80.8117 107.86 80.8395 107.829 80.8742 107.809L86.9467 104.298L76.7422 94.178Z" fill="#455A64"/>
<path d="M70.0366 92.3359L67.7542 91.0163V114.608L70.0366 115.927L74.4688 106.617L80.7671 102.976L70.0366 92.3359Z" fill="#263238"/>
<path d="M70.0366 92.3359V115.927L74.4688 106.617L80.7671 102.976L70.0366 92.3359Z" fill="#455A64"/>
<path d="M119.739 98.2368C119.698 98.2368 119.659 98.2233 119.626 98.1985C119.594 98.1736 119.571 98.1389 119.56 98.0996C119.55 98.0602 119.553 98.0185 119.568 97.9809C119.584 97.9433 119.611 97.9119 119.647 97.8915L120.608 97.3363C120.629 97.323 120.652 97.3141 120.677 97.3101C120.701 97.3062 120.726 97.3072 120.75 97.3132C120.775 97.3192 120.797 97.33 120.817 97.345C120.837 97.36 120.854 97.3789 120.866 97.4005C120.879 97.422 120.887 97.4459 120.89 97.4707C120.893 97.4954 120.89 97.5205 120.884 97.5444C120.877 97.5684 120.865 97.5906 120.849 97.6099C120.833 97.6292 120.814 97.6452 120.792 97.6567L119.831 98.212C119.803 98.2284 119.771 98.237 119.739 98.2368ZM118.407 97.9002C118.383 97.9009 118.359 97.8967 118.337 97.888C118.314 97.8793 118.294 97.8661 118.277 97.8494C118.259 97.8327 118.246 97.8126 118.236 97.7905C118.227 97.7684 118.222 97.7446 118.222 97.7205C118.222 97.7143 118.222 97.6973 118.222 97.6915V96.5993C118.222 96.5502 118.241 96.5031 118.276 96.4684C118.31 96.4337 118.357 96.4142 118.407 96.4142C118.456 96.4142 118.503 96.4337 118.537 96.4684C118.572 96.5031 118.591 96.5502 118.591 96.5993V97.7118C118.591 97.761 118.572 97.8082 118.537 97.8434C118.503 97.8785 118.456 97.8989 118.407 97.9002ZM122.301 96.7566C122.26 96.7568 122.221 96.7434 122.188 96.7186C122.156 96.6938 122.132 96.659 122.122 96.6195C122.111 96.58 122.114 96.5381 122.13 96.5004C122.145 96.4626 122.173 96.4312 122.209 96.4109L123.169 95.856C123.212 95.8338 123.261 95.8288 123.307 95.8422C123.353 95.8555 123.392 95.8861 123.416 95.9275C123.439 95.969 123.446 96.018 123.435 96.0644C123.423 96.1109 123.394 96.151 123.354 96.1765L122.393 96.7318C122.365 96.7481 122.334 96.7567 122.301 96.7566ZM124.865 95.2764C124.824 95.2765 124.784 95.263 124.752 95.2382C124.72 95.2134 124.696 95.1785 124.686 95.139C124.675 95.0996 124.678 95.0577 124.694 95.0201C124.709 94.9824 124.737 94.9509 124.773 94.9306L125.733 94.3754C125.754 94.3633 125.777 94.3554 125.801 94.3523C125.826 94.3491 125.85 94.3508 125.873 94.3571C125.897 94.3634 125.919 94.3743 125.938 94.3891C125.957 94.404 125.973 94.4224 125.986 94.4435C125.998 94.4646 126.006 94.4878 126.009 94.5119C126.012 94.536 126.01 94.5605 126.004 94.584C125.998 94.6075 125.987 94.6295 125.972 94.6487C125.957 94.668 125.939 94.6842 125.918 94.6963L124.957 95.2515C124.929 95.2682 124.896 95.2768 124.863 95.2764H124.865ZM118.409 94.9327C118.36 94.9327 118.313 94.9132 118.278 94.8785C118.243 94.8438 118.224 94.7967 118.224 94.7476V93.6367C118.224 93.5877 118.243 93.5406 118.278 93.5059C118.313 93.4712 118.36 93.4516 118.409 93.4516C118.458 93.4516 118.505 93.4712 118.539 93.5059C118.574 93.5406 118.593 93.5877 118.593 93.6367V94.7476C118.593 94.7721 118.589 94.7963 118.579 94.8188C118.57 94.8414 118.556 94.8619 118.539 94.8791C118.521 94.8963 118.501 94.9099 118.478 94.9191C118.456 94.9283 118.431 94.9329 118.407 94.9327H118.409ZM127.427 93.7957C127.386 93.7957 127.347 93.7822 127.314 93.7574C127.282 93.7326 127.259 93.6978 127.249 93.6585C127.238 93.6191 127.241 93.5774 127.256 93.5398C127.272 93.5022 127.299 93.4708 127.335 93.4504L128.296 92.8952C128.338 92.8706 128.388 92.864 128.436 92.8767C128.483 92.8895 128.524 92.9205 128.548 92.9631C128.573 93.0056 128.579 93.0562 128.567 93.1036C128.554 93.1511 128.523 93.1915 128.48 93.2161L127.519 93.7709C127.491 93.7876 127.458 93.7962 127.425 93.7957H127.427ZM129.99 92.3155C129.95 92.3156 129.91 92.3022 129.878 92.2773C129.845 92.2525 129.822 92.2176 129.811 92.1782C129.801 92.1387 129.804 92.0969 129.819 92.0592C129.835 92.0215 129.863 91.9901 129.898 91.9698L130.86 91.415C130.881 91.4017 130.904 91.3928 130.929 91.3888C130.953 91.3848 130.978 91.3859 131.003 91.3919C131.027 91.3979 131.049 91.4087 131.069 91.4237C131.089 91.4387 131.106 91.4575 131.118 91.4791C131.131 91.5007 131.139 91.5246 131.142 91.5493C131.145 91.5741 131.143 91.5992 131.136 91.6231C131.129 91.647 131.117 91.6693 131.101 91.6886C131.085 91.7079 131.066 91.7238 131.044 91.7354L130.079 92.2907C130.051 92.307 130.019 92.3156 129.987 92.3155H129.99ZM118.41 91.971C118.361 91.971 118.314 91.9515 118.28 91.9168C118.245 91.8821 118.225 91.835 118.225 91.7859V90.673C118.225 90.6239 118.245 90.5768 118.28 90.5421C118.314 90.5074 118.361 90.4879 118.41 90.4879C118.459 90.4879 118.506 90.5074 118.541 90.5421C118.576 90.5768 118.595 90.6239 118.595 90.673V91.7839C118.595 91.8086 118.591 91.8332 118.581 91.8561C118.572 91.879 118.558 91.8998 118.541 91.9173C118.523 91.9347 118.502 91.9485 118.479 91.9577C118.456 91.9669 118.432 91.9715 118.407 91.971H118.41ZM132.552 90.8353C132.511 90.8355 132.471 90.8221 132.439 90.7973C132.406 90.7725 132.383 90.7376 132.372 90.6982C132.362 90.6587 132.364 90.6168 132.38 90.5791C132.396 90.5413 132.424 90.5098 132.459 90.4895L133.42 89.9343C133.462 89.9098 133.513 89.9032 133.56 89.916C133.608 89.9288 133.648 89.9599 133.672 90.0024C133.697 90.045 133.703 90.0955 133.691 90.1429C133.678 90.1903 133.647 90.2307 133.604 90.2552L132.644 90.8104C132.615 90.8271 132.583 90.8357 132.55 90.8353H132.552ZM135.115 89.3546C135.075 89.3546 135.035 89.3411 135.003 89.3163C134.971 89.2915 134.947 89.2567 134.937 89.2174C134.926 89.178 134.929 89.1363 134.945 89.0987C134.96 89.0611 134.988 89.0297 135.023 89.0093L135.984 88.4541C136.026 88.4296 136.076 88.423 136.124 88.4358C136.171 88.4486 136.211 88.4796 136.236 88.5222C136.26 88.5647 136.267 88.6153 136.254 88.6627C136.241 88.7101 136.21 88.7505 136.168 88.775L135.207 89.3298C135.178 89.3467 135.145 89.3553 135.112 89.3546H135.115ZM118.41 89.0089C118.361 89.0088 118.314 88.9892 118.28 88.9544C118.245 88.9197 118.225 88.8725 118.225 88.8234V87.7129C118.225 87.6639 118.245 87.6168 118.28 87.5821C118.314 87.5474 118.361 87.5279 118.41 87.5279C118.459 87.5279 118.506 87.5474 118.541 87.5821C118.576 87.6168 118.595 87.6639 118.595 87.7129V88.8234C118.595 88.848 118.59 88.8724 118.581 88.8951C118.571 88.9178 118.557 88.9384 118.54 88.9556C118.522 88.9729 118.502 88.9865 118.479 88.9956C118.456 89.0048 118.431 89.0093 118.407 89.0089H118.41ZM137.679 87.8744C137.638 87.8745 137.598 87.8611 137.566 87.8363C137.534 87.8114 137.51 87.7766 137.5 87.7371C137.489 87.6976 137.492 87.6558 137.508 87.6181C137.524 87.5804 137.551 87.549 137.587 87.5287L138.547 86.9739C138.568 86.9611 138.592 86.9527 138.616 86.9491C138.64 86.9455 138.665 86.9468 138.689 86.9529C138.713 86.959 138.735 86.9698 138.755 86.9847C138.774 86.9996 138.791 87.0183 138.803 87.0396C138.815 87.0609 138.823 87.0845 138.826 87.1089C138.829 87.1334 138.828 87.1582 138.821 87.1819C138.814 87.2056 138.803 87.2278 138.788 87.2471C138.773 87.2664 138.754 87.2825 138.732 87.2943L137.771 87.8496C137.742 87.8668 137.708 87.8754 137.674 87.8744H137.679ZM140.242 86.3942C140.202 86.3943 140.162 86.3809 140.13 86.356C140.097 86.3312 140.074 86.2963 140.063 86.2569C140.053 86.2174 140.056 86.1756 140.071 86.1379C140.087 86.1002 140.115 86.0687 140.15 86.0485L141.111 85.4936C141.132 85.4815 141.155 85.4736 141.179 85.4704C141.203 85.4673 141.228 85.4689 141.251 85.4752C141.275 85.4815 141.297 85.4924 141.316 85.5072C141.335 85.522 141.351 85.5405 141.363 85.5615C141.376 85.5826 141.383 85.6059 141.387 85.63C141.39 85.6541 141.388 85.6786 141.382 85.7021C141.376 85.7256 141.365 85.7476 141.35 85.7669C141.335 85.7862 141.317 85.8024 141.296 85.8145L140.335 86.3694C140.305 86.387 140.27 86.3956 140.236 86.3942H140.242ZM118.414 86.0472C118.364 86.0471 118.317 86.0275 118.283 85.9927C118.248 85.958 118.229 85.9108 118.229 85.8617V84.7521C118.229 84.703 118.248 84.6559 118.283 84.6212C118.318 84.5865 118.365 84.567 118.414 84.567C118.463 84.567 118.51 84.5865 118.544 84.6212C118.579 84.6559 118.598 84.703 118.598 84.7521V85.8626C118.598 85.8874 118.593 85.9119 118.583 85.9347C118.574 85.9576 118.559 85.9782 118.542 85.9954C118.524 86.0126 118.503 86.0261 118.48 86.035C118.456 86.0439 118.432 86.0481 118.407 86.0472H118.414ZM142.576 84.6535C142.547 84.653 142.519 84.646 142.493 84.6328C142.45 84.6103 142.418 84.5715 142.403 84.525C142.388 84.4785 142.392 84.4279 142.414 84.3844C142.541 84.1489 142.612 83.8869 142.621 83.6192V83.3965C142.621 83.3473 142.64 83.3002 142.675 83.2655C142.71 83.2307 142.757 83.2112 142.806 83.2112C142.855 83.2112 142.902 83.2307 142.937 83.2655C142.971 83.3002 142.991 83.3473 142.991 83.3965V83.6192C142.982 83.9461 142.897 84.2664 142.743 84.5546C142.727 84.586 142.701 84.612 142.671 84.6296C142.64 84.6471 142.605 84.6555 142.57 84.6535H142.576ZM118.414 83.0847C118.389 83.0847 118.365 83.0799 118.343 83.0706C118.32 83.0613 118.3 83.0477 118.283 83.0305C118.266 83.0133 118.252 82.9929 118.243 82.9704C118.233 82.948 118.229 82.9239 118.229 82.8996V81.7887C118.229 81.7396 118.248 81.6926 118.283 81.6579C118.318 81.6231 118.365 81.6036 118.414 81.6036C118.463 81.6036 118.51 81.6231 118.544 81.6579C118.579 81.6926 118.598 81.7396 118.598 81.7887V82.8996C118.598 82.9245 118.593 82.9491 118.584 82.972C118.574 82.9949 118.56 83.0156 118.542 83.0329C118.524 83.0502 118.503 83.0637 118.48 83.0726C118.457 83.0815 118.432 83.0856 118.407 83.0847H118.414ZM142.804 81.7291C142.755 81.7291 142.708 81.7096 142.673 81.6749C142.638 81.6402 142.619 81.5931 142.619 81.544V80.4331C142.619 80.384 142.638 80.337 142.673 80.3023C142.708 80.2676 142.755 80.248 142.804 80.248C142.853 80.248 142.9 80.2676 142.934 80.3023C142.969 80.337 142.988 80.384 142.988 80.4331V81.544C142.989 81.5689 142.984 81.5936 142.974 81.6165C142.964 81.6395 142.95 81.6602 142.932 81.6776C142.914 81.6949 142.893 81.7084 142.87 81.7173C142.847 81.7263 142.822 81.7304 142.797 81.7295L142.804 81.7291ZM118.414 80.123C118.365 80.123 118.318 80.1035 118.283 80.0688C118.248 80.0341 118.229 79.987 118.229 79.9379V78.827C118.229 78.778 118.248 78.7309 118.283 78.6962C118.318 78.6614 118.365 78.642 118.414 78.642C118.463 78.642 118.51 78.6614 118.544 78.6962C118.579 78.7309 118.598 78.778 118.598 78.827V79.9379C118.598 79.9628 118.593 79.9874 118.584 80.0103C118.574 80.0332 118.56 80.0539 118.542 80.0712C118.524 80.0885 118.503 80.102 118.48 80.1109C118.457 80.1198 118.432 80.1239 118.407 80.123H118.414ZM142.803 78.767C142.754 78.767 142.707 78.7475 142.672 78.7128C142.637 78.6781 142.618 78.631 142.618 78.5819V77.471C142.618 77.4219 142.637 77.3749 142.672 77.3402C142.707 77.3054 142.754 77.2859 142.803 77.2859C142.852 77.2859 142.899 77.3054 142.933 77.3402C142.968 77.3749 142.988 77.4219 142.988 77.471V78.5827C142.988 78.6076 142.982 78.6321 142.973 78.6549C142.963 78.6777 142.949 78.6983 142.931 78.7155C142.913 78.7327 142.892 78.7461 142.869 78.7549C142.846 78.7638 142.821 78.7679 142.796 78.767H142.803ZM118.414 77.1609C118.364 77.1608 118.317 77.1412 118.283 77.1064C118.248 77.0716 118.229 77.0245 118.229 76.9754V75.8649C118.229 75.8158 118.248 75.7688 118.283 75.7341C118.318 75.6993 118.365 75.6799 118.414 75.6799C118.463 75.6799 118.51 75.6993 118.544 75.7341C118.579 75.7688 118.598 75.8158 118.598 75.8649V76.9754C118.598 77.0003 118.593 77.0249 118.584 77.0479C118.574 77.0708 118.56 77.0915 118.542 77.1088C118.524 77.1261 118.503 77.1397 118.48 77.1486C118.457 77.1576 118.432 77.1617 118.407 77.1609H118.414ZM142.802 75.8049C142.753 75.8049 142.706 75.7854 142.672 75.7507C142.637 75.716 142.618 75.6689 142.618 75.6198V74.5093C142.618 74.4602 142.637 74.4132 142.672 74.3785C142.706 74.3438 142.753 74.3243 142.802 74.3243C142.851 74.3243 142.898 74.3438 142.933 74.3785C142.968 74.4132 142.987 74.4602 142.987 74.5093V75.6198C142.987 75.6447 142.982 75.6693 142.973 75.6922C142.963 75.7151 142.949 75.7358 142.931 75.7531C142.913 75.7704 142.892 75.7838 142.869 75.7928C142.845 75.8017 142.821 75.8058 142.796 75.8049H142.802ZM118.414 74.1988C118.365 74.1988 118.318 74.1793 118.283 74.1446C118.248 74.1099 118.229 74.0628 118.229 74.0137V72.9028C118.229 72.8537 118.248 72.8067 118.283 72.7719C118.318 72.7372 118.365 72.7177 118.414 72.7177C118.463 72.7177 118.51 72.7372 118.544 72.7719C118.579 72.8067 118.598 72.8537 118.598 72.9028V74.0137C118.598 74.0386 118.593 74.0632 118.584 74.0861C118.574 74.109 118.56 74.1297 118.542 74.147C118.524 74.1643 118.503 74.1778 118.48 74.1867C118.457 74.1956 118.432 74.1997 118.407 74.1988H118.414ZM142.802 72.8428C142.753 72.8428 142.706 72.8233 142.671 72.7886C142.636 72.7539 142.617 72.7068 142.617 72.6577V71.5468C142.617 71.4974 142.636 71.45 142.671 71.4151C142.706 71.3801 142.753 71.3605 142.803 71.3605C142.852 71.3605 142.899 71.3801 142.934 71.4151C142.969 71.45 142.989 71.4974 142.989 71.5468V72.6577C142.989 72.6828 142.984 72.7076 142.974 72.7306C142.964 72.7537 142.95 72.7745 142.931 72.7918C142.913 72.8091 142.892 72.8225 142.868 72.8313C142.845 72.84 142.82 72.844 142.795 72.8428H142.802ZM118.414 71.2367C118.365 71.2367 118.318 71.2172 118.283 71.1825C118.248 71.1478 118.229 71.1007 118.229 71.0516V69.9407C118.229 69.8916 118.248 69.8446 118.283 69.8098C118.318 69.7751 118.365 69.7556 118.414 69.7556C118.463 69.7556 118.51 69.7751 118.544 69.8098C118.579 69.8446 118.598 69.8916 118.598 69.9407V71.0516C118.598 71.0765 118.593 71.1011 118.584 71.124C118.574 71.1469 118.56 71.1676 118.542 71.1849C118.524 71.2022 118.503 71.2156 118.48 71.2245C118.457 71.2334 118.432 71.2376 118.407 71.2367H118.414ZM142.801 69.8811C142.752 69.881 142.705 69.8615 142.671 69.8268C142.636 69.7921 142.616 69.7451 142.616 69.696V68.5851C142.616 68.536 142.636 68.4889 142.67 68.4541C142.705 68.4194 142.752 68.3998 142.801 68.3998C142.85 68.3998 142.897 68.4194 142.932 68.4541C142.967 68.4889 142.986 68.536 142.986 68.5851V69.696C142.986 69.7209 142.981 69.7455 142.972 69.7684C142.962 69.7913 142.948 69.812 142.93 69.8293C142.912 69.8466 142.891 69.8601 142.867 69.869C142.844 69.8779 142.819 69.882 142.795 69.8811H142.801ZM118.414 68.275C118.364 68.2749 118.317 68.2553 118.283 68.2205C118.248 68.1857 118.229 68.1386 118.229 68.0895V66.979C118.229 66.9299 118.248 66.8829 118.283 66.8482C118.318 66.8134 118.365 66.7939 118.414 66.7939C118.463 66.7939 118.51 66.8134 118.544 66.8482C118.579 66.8829 118.598 66.9299 118.598 66.979V68.0895C118.598 68.1144 118.593 68.139 118.584 68.162C118.574 68.1849 118.56 68.2056 118.542 68.2229C118.524 68.2402 118.503 68.2538 118.48 68.2627C118.457 68.2717 118.432 68.2758 118.407 68.275H118.414ZM142.8 66.919C142.751 66.9189 142.704 66.8993 142.67 66.8645C142.635 66.8297 142.615 66.7826 142.615 66.7335V65.623C142.615 65.5739 142.635 65.5267 142.67 65.492C142.704 65.4572 142.751 65.4377 142.801 65.4377C142.85 65.4377 142.897 65.4572 142.931 65.492C142.966 65.5267 142.986 65.5739 142.986 65.623V66.7335C142.986 66.7584 142.98 66.7831 142.971 66.806C142.961 66.8289 142.947 66.8496 142.929 66.8669C142.911 66.8842 142.89 66.8978 142.867 66.9067C142.843 66.9156 142.819 66.9198 142.794 66.919H142.8ZM118.414 65.3125C118.365 65.3125 118.318 65.293 118.283 65.2583C118.248 65.2236 118.229 65.1765 118.229 65.1274V64.0169C118.229 63.9678 118.248 63.9208 118.283 63.886C118.318 63.8513 118.365 63.8318 118.414 63.8318C118.463 63.8318 118.51 63.8513 118.544 63.886C118.579 63.9208 118.598 63.9678 118.598 64.0169V65.1262C118.599 65.1511 118.594 65.1759 118.584 65.1989C118.574 65.222 118.56 65.2428 118.542 65.2602C118.524 65.2776 118.503 65.2913 118.48 65.3002C118.457 65.3092 118.432 65.3134 118.407 65.3125H118.414ZM142.8 63.9569C142.751 63.9569 142.704 63.9374 142.669 63.9027C142.635 63.868 142.615 63.8209 142.615 63.7718V62.6609C142.615 62.6115 142.635 62.5641 142.67 62.5292C142.704 62.4942 142.752 62.4746 142.801 62.4746C142.85 62.4746 142.898 62.4942 142.933 62.5292C142.968 62.5641 142.987 62.6115 142.987 62.6609V63.7718C142.987 63.7969 142.982 63.8217 142.972 63.8447C142.963 63.8677 142.948 63.8885 142.93 63.9058C142.912 63.9232 142.891 63.9366 142.867 63.9454C142.844 63.9541 142.819 63.9581 142.794 63.9569H142.8ZM118.414 62.3504C118.365 62.3504 118.318 62.3309 118.283 62.2962C118.248 62.2615 118.229 62.2144 118.229 62.1653V61.0544C118.229 61.0053 118.248 60.9582 118.283 60.9235C118.318 60.8888 118.365 60.8693 118.414 60.8693C118.463 60.8693 118.51 60.8888 118.544 60.9235C118.579 60.9582 118.598 61.0053 118.598 61.0544V62.1653C118.599 62.1903 118.594 62.2151 118.584 62.2382C118.575 62.2613 118.56 62.2822 118.543 62.2996C118.525 62.3171 118.503 62.3307 118.48 62.3397C118.457 62.3487 118.432 62.3529 118.407 62.352L118.414 62.3504ZM142.799 60.9948C142.775 60.9948 142.751 60.99 142.729 60.9807C142.706 60.9714 142.686 60.9578 142.669 60.9406C142.652 60.9234 142.638 60.903 142.629 60.8805C142.619 60.8581 142.615 60.834 142.615 60.8097V59.6988C142.615 59.6497 142.634 59.6026 142.669 59.5679C142.703 59.5332 142.75 59.5137 142.799 59.5137C142.848 59.5137 142.896 59.5332 142.93 59.5679C142.965 59.6026 142.984 59.6497 142.984 59.6988V60.8097C142.984 60.8346 142.979 60.8592 142.97 60.8821C142.96 60.905 142.946 60.9257 142.928 60.943C142.91 60.9602 142.889 60.9737 142.866 60.9826C142.842 60.9915 142.818 60.9957 142.793 60.9948H142.799ZM118.414 59.3887C118.365 59.3887 118.318 59.3692 118.283 59.3345C118.248 59.2998 118.229 59.2527 118.229 59.2036V58.0927C118.229 58.0436 118.248 57.9965 118.283 57.9618C118.318 57.9271 118.365 57.9076 118.414 57.9076C118.463 57.9076 118.51 57.9271 118.544 57.9618C118.579 57.9965 118.598 58.0436 118.598 58.0927V59.2053C118.598 59.23 118.593 59.2544 118.583 59.2771C118.573 59.2998 118.559 59.3204 118.541 59.3375C118.523 59.3545 118.502 59.3679 118.479 59.3767C118.456 59.3855 118.432 59.3896 118.407 59.3887H118.414ZM142.799 58.0331C142.75 58.033 142.703 58.0134 142.668 57.9786C142.634 57.9438 142.614 57.8967 142.614 57.8476V56.7371C142.614 56.688 142.634 56.6409 142.668 56.6062C142.703 56.5715 142.75 56.552 142.799 56.552C142.848 56.552 142.895 56.5715 142.93 56.6062C142.964 56.6409 142.984 56.688 142.984 56.7371V57.8476C142.984 57.8725 142.979 57.8971 142.969 57.92C142.96 57.943 142.945 57.9637 142.927 57.981C142.91 57.9983 142.888 58.0118 142.865 58.0208C142.842 58.0297 142.817 58.0339 142.792 58.0331H142.799ZM118.832 56.5206C118.793 56.5207 118.754 56.5079 118.722 56.4841C118.703 56.4697 118.686 56.4516 118.674 56.4308C118.661 56.4099 118.653 56.3868 118.649 56.3628C118.646 56.3387 118.647 56.3142 118.653 56.2906C118.659 56.267 118.669 56.2448 118.684 56.2253C118.842 56.0042 119.043 55.8177 119.276 55.6772L119.599 55.4904C119.641 55.4658 119.691 55.4591 119.739 55.4718C119.762 55.478 119.784 55.4889 119.804 55.5036C119.823 55.5184 119.839 55.5369 119.851 55.5579C119.863 55.5789 119.871 55.6022 119.875 55.6263C119.878 55.6504 119.876 55.6749 119.87 55.6984C119.864 55.7219 119.853 55.7439 119.838 55.7632C119.823 55.7825 119.805 55.7987 119.784 55.8109L119.46 55.998C119.272 56.1131 119.109 56.2654 118.981 56.4456C118.964 56.469 118.941 56.4879 118.916 56.501C118.89 56.514 118.861 56.5207 118.832 56.5206ZM142.792 55.0714C142.743 55.0714 142.696 55.0519 142.661 55.0172C142.627 54.9825 142.607 54.9354 142.607 54.8863V53.7754C142.607 53.7263 142.627 53.6793 142.661 53.6445C142.696 53.6098 142.743 53.5903 142.792 53.5903C142.841 53.5903 142.888 53.6098 142.923 53.6445C142.957 53.6793 142.977 53.7263 142.977 53.7754V54.8863C142.977 54.9353 142.957 54.9823 142.922 55.0168C142.888 55.0513 142.841 55.0707 142.792 55.0706L142.792 55.0714ZM121.291 54.9112C121.25 54.911 121.21 54.8975 121.178 54.8726C121.146 54.8478 121.123 54.813 121.112 54.7737C121.102 54.7344 121.105 54.6927 121.12 54.6551C121.135 54.6174 121.163 54.5859 121.198 54.5654L122.159 54.0102C122.18 53.998 122.203 53.99 122.227 53.9868C122.251 53.9836 122.275 53.9851 122.299 53.9914C122.322 53.9976 122.344 54.0085 122.364 54.0232C122.383 54.038 122.399 54.0564 122.411 54.0775C122.424 54.0985 122.431 54.1218 122.435 54.1459C122.438 54.17 122.436 54.1945 122.43 54.218C122.424 54.2415 122.413 54.2636 122.398 54.2829C122.384 54.3022 122.365 54.3185 122.344 54.3307L121.383 54.8863C121.355 54.9022 121.324 54.9105 121.292 54.9103L121.291 54.9112ZM123.854 53.4301C123.814 53.43 123.774 53.4164 123.742 53.3916C123.71 53.3667 123.687 53.332 123.676 53.2927C123.665 53.2534 123.668 53.2117 123.684 53.174C123.699 53.1364 123.726 53.1049 123.762 53.0844L124.722 52.5291C124.764 52.507 124.814 52.5021 124.86 52.5154C124.905 52.5288 124.944 52.5593 124.968 52.6007C124.992 52.6421 124.999 52.6912 124.988 52.7376C124.976 52.7841 124.948 52.8243 124.907 52.85L123.947 53.4053C123.919 53.4214 123.887 53.4297 123.854 53.4293L123.854 53.4301ZM142.792 52.1097C142.743 52.1096 142.696 52.0901 142.661 52.0554C142.627 52.0207 142.607 51.9737 142.607 51.9246V50.8137C142.607 50.7646 142.627 50.7175 142.661 50.6827C142.696 50.648 142.743 50.6284 142.792 50.6284C142.841 50.6284 142.888 50.648 142.923 50.6827C142.958 50.7175 142.977 50.7646 142.977 50.8137V51.9246C142.977 51.949 142.972 51.9731 142.963 51.9955C142.953 52.018 142.939 52.0383 142.922 52.0554C142.905 52.0725 142.884 52.0861 142.862 52.0952C142.839 52.1044 142.815 52.109 142.791 52.1089L142.792 52.1097ZM126.418 51.949C126.377 51.9491 126.337 51.9357 126.305 51.9109C126.273 51.8861 126.249 51.8512 126.239 51.8117C126.228 51.7723 126.231 51.7304 126.247 51.6927C126.263 51.655 126.29 51.6236 126.326 51.6033L127.286 51.0481C127.307 51.036 127.33 51.0281 127.355 51.025C127.379 51.0218 127.403 51.0235 127.426 51.0298C127.45 51.0361 127.472 51.047 127.491 51.0618C127.51 51.0766 127.527 51.0951 127.539 51.1162C127.551 51.1373 127.559 51.1605 127.562 51.1846C127.565 51.2087 127.563 51.2332 127.557 51.2567C127.551 51.2802 127.54 51.3022 127.525 51.3214C127.51 51.3407 127.492 51.3568 127.471 51.369L126.51 51.9242C126.481 51.9406 126.449 51.9489 126.416 51.9482L126.418 51.949ZM128.979 50.4684C128.939 50.4683 128.899 50.4547 128.867 50.4299C128.835 50.4051 128.812 50.3703 128.801 50.331C128.791 50.2917 128.793 50.25 128.809 50.2123C128.824 50.1747 128.852 50.1432 128.887 50.1227L129.847 49.567C129.868 49.554 129.892 49.5454 129.916 49.5416C129.941 49.5378 129.966 49.539 129.99 49.5451C130.014 49.5511 130.036 49.5619 130.056 49.5769C130.076 49.5918 130.092 49.6105 130.105 49.632C130.117 49.6534 130.125 49.6771 130.128 49.7017C130.131 49.7263 130.13 49.7513 130.123 49.7751C130.116 49.799 130.105 49.8213 130.089 49.8406C130.074 49.86 130.055 49.8761 130.033 49.8879L129.072 50.4436C129.043 50.4602 129.011 50.4689 128.977 50.4688L128.979 50.4684ZM142.792 49.1476C142.743 49.1475 142.696 49.1279 142.662 49.0931C142.627 49.0583 142.608 49.0112 142.608 48.9621V47.8516C142.608 47.8025 142.627 47.7554 142.662 47.7206C142.697 47.6859 142.744 47.6663 142.793 47.6663C142.842 47.6663 142.889 47.6859 142.923 47.7206C142.958 47.7554 142.978 47.8025 142.978 47.8516V48.9621C142.978 48.9866 142.973 49.0107 142.963 49.0333C142.954 49.0558 142.94 49.0762 142.922 49.0933C142.905 49.1105 142.884 49.124 142.862 49.1332C142.839 49.1424 142.815 49.147 142.79 49.1468L142.792 49.1476ZM131.541 48.9869C131.501 48.9871 131.461 48.9737 131.429 48.949C131.396 48.9242 131.373 48.8894 131.362 48.8501C131.352 48.8107 131.354 48.7689 131.37 48.7312C131.386 48.6935 131.413 48.662 131.448 48.6416L132.409 48.086C132.452 48.0639 132.501 48.0589 132.547 48.0723C132.593 48.0856 132.632 48.1162 132.655 48.1576C132.679 48.199 132.686 48.248 132.675 48.2945C132.664 48.3409 132.635 48.3812 132.595 48.4069L131.634 48.9621C131.605 48.9785 131.572 48.9868 131.539 48.9861L131.541 48.9869ZM134.105 47.5059C134.064 47.5058 134.025 47.4923 133.993 47.4675C133.96 47.4427 133.937 47.4079 133.927 47.3686C133.916 47.3293 133.919 47.2876 133.935 47.25C133.95 47.2124 133.978 47.181 134.013 47.1606L134.973 46.6053C134.994 46.5921 135.018 46.5832 135.043 46.5792C135.067 46.5752 135.092 46.5763 135.116 46.5823C135.141 46.5883 135.163 46.5991 135.183 46.6141C135.203 46.6291 135.22 46.6479 135.232 46.6695C135.244 46.6911 135.252 46.715 135.255 46.7397C135.258 46.7645 135.256 46.7896 135.249 46.8135C135.242 46.8374 135.231 46.8597 135.215 46.879C135.199 46.8983 135.18 46.9142 135.158 46.9258L134.197 47.481C134.168 47.4978 134.135 47.5062 134.101 47.5051L134.105 47.5059ZM142.794 46.1855C142.745 46.1855 142.698 46.166 142.663 46.1313C142.628 46.0966 142.609 46.0495 142.609 46.0004V44.8895C142.609 44.8401 142.628 44.7927 142.663 44.7578C142.698 44.7228 142.746 44.7032 142.795 44.7032C142.844 44.7032 142.892 44.7228 142.926 44.7578C142.961 44.7927 142.981 44.8401 142.981 44.8895V46.0004C142.981 46.0252 142.976 46.0497 142.966 46.0725C142.956 46.0952 142.942 46.1158 142.924 46.133C142.906 46.1502 142.885 46.1636 142.862 46.1725C142.839 46.1814 142.814 46.1855 142.79 46.1847L142.794 46.1855ZM136.667 46.0253C136.626 46.0251 136.586 46.0116 136.554 45.9867C136.522 45.9619 136.499 45.9271 136.488 45.8878C136.478 45.8485 136.481 45.8068 136.496 45.7692C136.511 45.7315 136.539 45.7 136.574 45.6795L137.535 45.1243C137.556 45.1121 137.579 45.1041 137.603 45.1009C137.627 45.0977 137.651 45.0992 137.675 45.1055C137.698 45.1117 137.72 45.1226 137.74 45.1373C137.759 45.1521 137.775 45.1705 137.787 45.1916C137.8 45.2126 137.807 45.2359 137.811 45.26C137.814 45.2841 137.812 45.3086 137.806 45.3321C137.8 45.3556 137.789 45.3777 137.774 45.397C137.76 45.4163 137.741 45.4325 137.72 45.4448L136.759 46.0004C136.73 46.0172 136.696 46.0255 136.662 46.0244L136.667 46.0253ZM139.23 44.5442C139.19 44.5441 139.15 44.5307 139.118 44.5059C139.085 44.4811 139.062 44.4463 139.052 44.407C139.041 44.3676 139.044 44.3259 139.059 44.2882C139.075 44.2505 139.102 44.219 139.137 44.1985L140.098 43.6428C140.14 43.6207 140.19 43.6158 140.236 43.6291C140.281 43.6425 140.32 43.673 140.344 43.7144C140.368 43.7558 140.375 43.8049 140.364 43.8513C140.352 43.8977 140.324 43.938 140.283 43.9637L139.323 44.5194C139.293 44.5364 139.259 44.5447 139.224 44.5434L139.23 44.5442ZM142.731 43.2317C142.695 43.2318 142.659 43.221 142.628 43.2006C142.598 43.1803 142.574 43.1513 142.56 43.1174C142.461 42.8781 142.214 42.847 141.927 43.0139L141.885 43.0383C141.864 43.0504 141.841 43.0583 141.817 43.0614C141.793 43.0646 141.768 43.0629 141.745 43.0566C141.722 43.0503 141.7 43.0394 141.68 43.0246C141.661 43.0097 141.645 42.9913 141.633 42.9702C141.621 42.9491 141.613 42.9259 141.61 42.9018C141.607 42.8777 141.608 42.8532 141.615 42.8297C141.621 42.8062 141.632 42.7842 141.647 42.765C141.661 42.7457 141.68 42.7295 141.701 42.7174L141.742 42.693C141.832 42.6217 141.937 42.5719 142.05 42.5474C142.162 42.5229 142.278 42.5243 142.39 42.5516C142.501 42.5788 142.605 42.6311 142.694 42.7045C142.782 42.7779 142.853 42.8706 142.9 42.9754C142.912 43.0035 142.916 43.034 142.913 43.0644C142.91 43.0947 142.9 43.1238 142.883 43.1491C142.866 43.1745 142.844 43.1953 142.817 43.2097C142.79 43.2241 142.76 43.2316 142.73 43.2317H142.731Z" fill="#313A46"/>
<path d="M118.407 67.7177C118.375 67.7178 118.343 67.7092 118.315 67.6928L117.353 67.1376C117.332 67.1254 117.314 67.1093 117.299 67.09C117.284 67.0707 117.273 67.0487 117.267 67.0252C117.261 67.0017 117.259 66.9772 117.262 66.9531C117.266 66.9289 117.273 66.9057 117.286 66.8846C117.298 66.8636 117.314 66.8451 117.333 66.8303C117.352 66.8155 117.374 66.8046 117.398 66.7983C117.421 66.792 117.446 66.7904 117.47 66.7935C117.494 66.7967 117.517 66.8046 117.538 66.8167L118.499 67.3724C118.534 67.3927 118.562 67.4242 118.577 67.4618C118.593 67.4994 118.596 67.5411 118.585 67.5804C118.575 67.6197 118.552 67.6545 118.519 67.6793C118.487 67.7041 118.448 67.7176 118.407 67.7177ZM115.843 66.2362C115.811 66.2363 115.779 66.2277 115.751 66.2114L114.79 65.6561C114.747 65.6316 114.716 65.5911 114.704 65.5437C114.691 65.4963 114.697 65.4457 114.722 65.4032C114.746 65.3606 114.787 65.3295 114.834 65.3168C114.882 65.3041 114.932 65.3107 114.975 65.3352L115.936 65.8909C115.971 65.9113 115.998 65.9427 116.014 65.9803C116.029 66.0179 116.032 66.0596 116.022 66.0989C116.011 66.1383 115.988 66.173 115.956 66.1979C115.923 66.2227 115.884 66.2362 115.843 66.2362ZM113.28 64.7548C113.247 64.7549 113.215 64.7463 113.187 64.7299L112.226 64.1743C112.185 64.1486 112.157 64.1083 112.145 64.0619C112.134 64.0154 112.141 63.9664 112.165 63.925C112.189 63.8836 112.228 63.853 112.274 63.8397C112.319 63.8263 112.369 63.8312 112.411 63.8534L113.372 64.4094C113.408 64.4298 113.435 64.4613 113.451 64.4989C113.466 64.5366 113.469 64.5783 113.458 64.6177C113.448 64.657 113.425 64.6918 113.392 64.7166C113.36 64.7414 113.32 64.7548 113.28 64.7548ZM110.716 63.2729C110.684 63.273 110.652 63.2645 110.623 63.248L109.662 62.6928C109.62 62.6683 109.589 62.6279 109.576 62.5805C109.563 62.5331 109.57 62.4826 109.594 62.44C109.619 62.3975 109.659 62.3664 109.707 62.3536C109.754 62.3408 109.804 62.3474 109.847 62.3719L110.808 62.9271C110.844 62.9474 110.871 62.9789 110.887 63.0166C110.903 63.0542 110.906 63.0961 110.895 63.1355C110.885 63.175 110.861 63.2099 110.829 63.2347C110.797 63.2595 110.757 63.273 110.716 63.2729Z" fill="#313A46"/>
<path d="M142.479 38.2428C144.618 37.006 146.352 38.0084 146.352 40.482C146.352 42.9555 144.618 45.9627 142.479 47.1995C140.34 48.4363 138.605 47.4339 138.605 44.9603C138.605 42.4868 140.34 39.4796 142.479 38.2428Z" fill="#FAFAFA"/>
<path d="M140.747 47.8893C140.366 47.8939 139.991 47.797 139.659 47.6086C138.877 47.156 138.446 46.2157 138.446 44.9587C138.446 42.4388 140.219 39.3636 142.398 38.1037C143.484 37.4756 144.512 37.3799 145.295 37.8321C146.078 38.2842 146.508 39.2249 146.508 40.482C146.508 43.0019 144.735 46.077 142.557 47.337C142.012 47.676 141.388 47.8664 140.747 47.8893ZM144.207 37.8693C143.622 37.8926 143.053 38.0683 142.557 38.379C140.466 39.5893 138.763 42.5414 138.763 44.962C138.763 46.0994 139.137 46.9424 139.818 47.3357C140.498 47.7291 141.415 47.633 142.398 47.0641C144.49 45.8547 146.192 42.9025 146.192 40.4836C146.192 39.3462 145.817 38.5032 145.137 38.1099C144.854 37.949 144.533 37.8663 144.208 37.8702L144.207 37.8693Z" fill="#313A46"/>
<path d="M144.965 41.7423V40.8252C144.965 40.6596 144.848 40.5917 144.705 40.6749L143.134 41.5825V39.7673C143.134 39.6017 143.017 39.5338 142.874 39.6166L142.08 40.075C142.005 40.1244 141.942 40.1911 141.897 40.2695C141.851 40.3479 141.825 40.4359 141.82 40.5263V42.3419L140.249 43.2495C140.173 43.2988 140.11 43.3653 140.065 43.4437C140.02 43.5221 139.994 43.61 139.989 43.7004V44.6171C139.989 44.7827 140.105 44.8506 140.249 44.7674L141.82 43.8598V45.6754C141.82 45.841 141.937 45.9085 142.08 45.8257L142.874 45.3673C142.949 45.3178 143.012 45.2512 143.057 45.1728C143.103 45.0944 143.129 45.0064 143.134 44.916V43.1012L144.705 42.1932C144.781 42.1438 144.844 42.0773 144.889 41.9989C144.934 41.9206 144.96 41.8327 144.965 41.7423Z" fill="#313A46"/>
<path d="M143.946 52.3142V81.0078C143.934 81.222 143.872 81.4304 143.765 81.6161C143.658 81.8018 143.508 81.9594 143.328 82.0761L122.603 94.0607C122.541 94.1057 122.467 94.1332 122.391 94.1405C122.315 94.1477 122.238 94.1345 122.168 94.1021C122.057 94.0367 121.124 93.498 121.013 93.4326C120.95 93.3881 120.9 93.3277 120.869 93.2576C120.838 93.1875 120.825 93.1103 120.834 93.0339V58.373C120.845 58.1591 120.906 57.9507 121.013 57.7651C121.12 57.5794 121.269 57.4217 121.448 57.3048L137.011 48.3075L143.946 52.3142Z" fill="#F0F0F0"/>
<path d="M123.143 58.9982L120.993 57.8045C120.895 57.9785 120.839 58.1738 120.832 58.3739V93.0351C120.824 93.1117 120.837 93.189 120.869 93.2592C120.9 93.3294 120.95 93.3898 121.013 93.4343L122.171 94.1025C122.24 94.135 122.317 94.1483 122.394 94.141C122.471 94.1337 122.544 94.1062 122.606 94.0611L123.146 93.7489L123.143 58.9982Z" fill="#E0E0E0"/>
<path d="M143.945 52.3147V81.0082C143.933 81.2224 143.871 81.4308 143.764 81.6164C143.656 81.8021 143.507 81.9597 143.327 82.0765L122.604 94.0591C122.265 94.2557 121.99 94.0963 121.99 93.703V59.0434C122.001 58.8295 122.063 58.6215 122.17 58.4359C122.276 58.2503 122.425 58.0925 122.604 57.9751L134.698 50.9777L138.166 48.972L143.945 52.3147Z" fill="#FAFAFA"/>
<path d="M138.166 49.3269L143.638 52.4915V81.0082C143.627 81.1686 143.579 81.3243 143.499 81.4634C143.418 81.6026 143.307 81.7215 143.174 81.8111L122.45 93.7937C122.413 93.8181 122.371 93.8333 122.326 93.838C122.302 93.7973 122.292 93.75 122.297 93.703V59.0434C122.308 58.8833 122.356 58.7279 122.435 58.5888C122.515 58.4497 122.626 58.3307 122.758 58.2405L134.853 51.2431L138.167 49.326M138.167 48.972L134.7 50.9777L122.605 57.9751C122.427 58.0925 122.278 58.2503 122.171 58.4359C122.064 58.6215 122.003 58.8295 121.991 59.0434V93.703C121.991 93.9821 122.13 94.1431 122.331 94.1431C122.428 94.14 122.523 94.1115 122.605 94.0603L143.329 82.0777C143.508 81.961 143.658 81.8033 143.765 81.6177C143.872 81.432 143.934 81.2236 143.946 81.0095V52.3159L138.167 48.9741V48.972Z" fill="#E0E0E0"/>
<path d="M140.913 52.542C141.137 52.542 141.291 52.7208 141.291 53.0297V77.4735C141.278 77.7107 141.209 77.9415 141.091 78.1473C140.972 78.353 140.807 78.5279 140.608 78.6577L125.324 87.4939C125.233 87.5511 125.127 87.5834 125.019 87.5875C124.795 87.5875 124.642 87.4086 124.642 87.0993V62.6555C124.654 62.4184 124.723 62.1875 124.841 61.9819C124.96 61.7762 125.125 61.6014 125.324 61.4718L135.661 55.4954L140.608 52.6351C140.7 52.578 140.805 52.5459 140.913 52.542ZM140.913 52.2571C140.755 52.2607 140.601 52.306 140.466 52.3884L135.519 55.2486L125.182 61.225C124.94 61.38 124.739 61.5907 124.595 61.8396C124.451 62.0885 124.369 62.3683 124.355 62.6555V87.0993C124.344 87.1943 124.353 87.2905 124.38 87.382C124.408 87.4734 124.455 87.5581 124.517 87.6307C124.579 87.7033 124.656 87.7623 124.742 87.8039C124.828 87.8455 124.921 87.8688 125.017 87.8723C125.175 87.8688 125.329 87.8234 125.464 87.7407L140.748 78.9045C140.989 78.7492 141.19 78.5382 141.334 78.2893C141.477 78.0403 141.559 77.7606 141.573 77.4735V53.0297C141.584 52.9348 141.575 52.8385 141.547 52.747C141.52 52.6556 141.473 52.5709 141.411 52.4983C141.349 52.4257 141.272 52.3668 141.186 52.3253C141.1 52.2838 141.007 52.2606 140.911 52.2571H140.913Z" fill="#313A46"/>
<path d="M138.167 54.9406V48.9725L143.945 52.3142L138.785 55.2954C138.443 55.4933 138.167 55.3339 138.167 54.9406Z" fill="#E0E0E0"/>
<path d="M127.758 70.72L138.178 64.6384C138.406 64.4949 138.598 64.2996 138.737 64.0683C138.876 63.837 138.958 63.5761 138.978 63.3068C138.978 62.8269 138.62 62.6443 138.177 62.9011L127.757 68.9822C127.529 69.1257 127.337 69.3211 127.198 69.5525C127.059 69.7839 126.976 70.0448 126.957 70.3142C126.957 70.7937 127.316 70.9754 127.758 70.72ZM138.178 66.7451L127.758 72.8262C127.529 72.9698 127.338 73.1651 127.199 73.3965C127.06 73.6279 126.977 73.8889 126.957 74.1582C126.957 74.6381 127.316 74.8207 127.758 74.564L138.178 68.4824C138.407 68.339 138.598 68.1438 138.737 67.9124C138.876 67.6811 138.959 67.4202 138.979 67.1509C138.977 66.6718 138.618 66.4925 138.176 66.7459L138.178 66.7451ZM138.178 70.5899L127.758 76.6711C127.529 76.8146 127.338 77.01 127.199 77.2414C127.06 77.4728 126.977 77.7337 126.957 78.0031C126.957 78.483 127.316 78.6656 127.758 78.4088L138.178 72.3273C138.407 72.1839 138.598 71.9886 138.737 71.7573C138.876 71.5259 138.959 71.265 138.979 70.9957C138.977 70.5171 138.618 70.3353 138.176 70.5916L138.178 70.5899Z" fill="#313A46"/>
<path opacity="0.3" d="M127.758 70.72L138.178 64.6384C138.406 64.4949 138.598 64.2996 138.737 64.0683C138.876 63.837 138.958 63.5761 138.978 63.3068C138.978 62.8269 138.62 62.6443 138.177 62.9011L127.757 68.9822C127.529 69.1257 127.337 69.3211 127.198 69.5525C127.059 69.7839 126.976 70.0448 126.957 70.3142C126.957 70.7937 127.316 70.9754 127.758 70.72ZM138.178 66.7451L127.758 72.8262C127.529 72.9698 127.338 73.1651 127.199 73.3965C127.06 73.6279 126.977 73.8889 126.957 74.1582C126.957 74.6381 127.316 74.8207 127.758 74.564L138.178 68.4824C138.407 68.339 138.598 68.1438 138.737 67.9124C138.876 67.6811 138.959 67.4202 138.979 67.1509C138.977 66.6718 138.618 66.4925 138.176 66.7459L138.178 66.7451ZM138.178 70.5899L127.758 76.6711C127.529 76.8146 127.338 77.01 127.199 77.2414C127.06 77.4728 126.977 77.7337 126.957 78.0031C126.957 78.483 127.316 78.6656 127.758 78.4088L138.178 72.3273C138.407 72.1839 138.598 71.9886 138.737 71.7573C138.876 71.5259 138.959 71.265 138.979 70.9957C138.977 70.5171 138.618 70.3353 138.176 70.5916L138.178 70.5899Z" fill="white"/>
<path d="M110.365 53.7758V82.4694C110.354 82.6837 110.292 82.8921 110.184 83.0778C110.077 83.2635 109.928 83.4212 109.748 83.5381L89.0226 95.5223C88.9602 95.5673 88.887 95.5948 88.8105 95.6021C88.734 95.6093 88.6569 95.5961 88.5872 95.5637C88.4763 95.4983 87.5431 94.9596 87.4323 94.8942C87.3695 94.8499 87.3197 94.7895 87.2882 94.7194C87.2566 94.6492 87.2444 94.5719 87.2528 94.4955V59.835C87.2639 59.6211 87.3253 59.4127 87.4321 59.2271C87.5389 59.0414 87.688 58.8837 87.8673 58.7668L103.431 49.7691L110.365 53.7758Z" fill="#F0F0F0"/>
<path d="M89.5629 60.4598L87.4127 59.2665C87.3141 59.4406 87.2589 59.6359 87.2519 59.8359V94.4967C87.2438 94.5734 87.2563 94.6508 87.2881 94.721C87.3199 94.7913 87.3697 94.8517 87.4326 94.8963L88.5883 95.5641C88.658 95.5967 88.7351 95.61 88.8116 95.6027C88.8882 95.5955 88.9614 95.5678 89.0237 95.5227L89.5633 95.2109L89.5629 60.4598Z" fill="#E0E0E0"/>
<path d="M110.364 53.7762V82.4698C110.352 82.684 110.29 82.8924 110.183 83.078C110.076 83.2636 109.926 83.4213 109.747 83.5381L89.0234 95.5202C88.6847 95.7169 88.4089 95.5575 88.4089 95.1642V60.5054C88.4206 60.2916 88.4823 60.0835 88.589 59.8979C88.6957 59.7124 88.8445 59.5545 89.0234 59.4371L101.118 52.4397L104.586 50.434L110.364 53.7762Z" fill="#FAFAFA"/>
<path d="M104.586 50.7885L110.058 53.953V82.4702C110.046 82.6306 109.999 82.7861 109.918 82.9252C109.838 83.0642 109.727 83.1831 109.593 83.2727L88.8698 95.2557C88.8326 95.2801 88.79 95.2951 88.7457 95.2995C88.722 95.2588 88.7118 95.2115 88.7168 95.1646V60.5054C88.728 60.3453 88.7753 60.1899 88.8553 60.0508C88.9352 59.9117 89.0456 59.7926 89.1782 59.7025L101.272 52.7051L104.587 50.7881M104.587 50.434L101.119 52.4397L89.0248 59.4371C88.846 59.5545 88.6972 59.7124 88.5905 59.8979C88.4837 60.0835 88.4221 60.2916 88.4104 60.5054V95.1646C88.4104 95.4436 88.5493 95.6051 88.7511 95.6051C88.848 95.6019 88.9424 95.5734 89.0248 95.5223L109.748 83.5401C109.928 83.4233 110.077 83.2657 110.185 83.0801C110.292 82.8944 110.354 82.6861 110.365 82.4719V53.7783L104.587 50.4365V50.434Z" fill="#E0E0E0"/>
<path d="M107.333 54.0036C107.558 54.0036 107.711 54.1824 107.711 54.4917V78.9355C107.699 79.1727 107.63 79.4035 107.511 79.6092C107.393 79.8149 107.227 79.9896 107.029 80.1193L91.7445 88.9559C91.6526 89.0131 91.5474 89.0452 91.4393 89.0491C91.2156 89.0491 91.0618 88.8702 91.0618 88.5609V64.1171C91.0747 63.88 91.1433 63.6492 91.2619 63.4436C91.3805 63.2379 91.5458 63.0631 91.7445 62.9334L102.082 56.957L107.029 54.0971C107.121 54.0399 107.226 54.0076 107.334 54.0036M107.334 53.7187C107.176 53.7223 107.022 53.7677 106.887 53.8504L101.939 56.7102L91.6022 62.6866C91.3608 62.8419 91.1601 63.0528 91.0166 63.3017C90.8732 63.5505 90.7913 63.8301 90.7777 64.1171V88.5613C90.7665 88.6563 90.7751 88.7526 90.8029 88.8441C90.8307 88.9356 90.8772 89.0204 90.9393 89.093C91.0015 89.1656 91.078 89.2246 91.1641 89.2661C91.2501 89.3077 91.3438 89.3309 91.4393 89.3344C91.5974 89.3308 91.7517 89.2855 91.8867 89.2031L107.172 80.3661C107.414 80.211 107.615 80.0003 107.759 79.7514C107.903 79.5025 107.985 79.2228 107.999 78.9355V54.4917C108.01 54.3968 108.002 54.3005 107.974 54.2091C107.946 54.1176 107.899 54.0329 107.837 53.9603C107.775 53.8877 107.699 53.8287 107.613 53.7872C107.527 53.7456 107.433 53.7223 107.338 53.7187H107.334Z" fill="#313A46"/>
<path d="M104.587 56.4026V50.434L110.365 53.7758L105.204 56.757C104.863 56.9553 104.587 56.7959 104.587 56.4026Z" fill="#E0E0E0"/>
<path d="M94.1774 72.1815L104.597 66.1C104.826 65.9567 105.018 65.7614 105.157 65.5301C105.296 65.2987 105.379 65.0378 105.398 64.7684C105.398 64.2889 105.04 64.1059 104.597 64.3626L94.1774 70.4438C93.9488 70.5872 93.7572 70.7826 93.618 71.014C93.4789 71.2454 93.3961 71.5064 93.3765 71.7758C93.3765 72.2557 93.7337 72.437 94.1774 72.1815ZM104.597 68.2067L94.1774 74.2878C93.9488 74.4311 93.7572 74.6264 93.618 74.8577C93.4789 75.0891 93.3961 75.35 93.3765 75.6194C93.3765 76.0993 93.7354 76.2819 94.1778 76.0252L104.598 69.944C104.826 69.8006 105.018 69.6052 105.157 69.3738C105.296 69.1424 105.379 68.8814 105.399 68.612C105.397 68.1338 105.038 67.952 104.596 68.2079L104.597 68.2067ZM104.597 72.0515L94.1774 78.1327C93.9488 78.276 93.7572 78.4713 93.618 78.7026C93.4789 78.934 93.3961 79.1949 93.3765 79.4643C93.3765 79.9441 93.7354 80.1267 94.1778 79.87L104.598 73.7889C104.826 73.6455 105.018 73.4502 105.157 73.2189C105.296 72.9875 105.379 72.7266 105.399 72.4573C105.397 71.9787 105.038 71.7969 104.596 72.0528L104.597 72.0515Z" fill="#313A46"/>
<path opacity="0.3" d="M94.1774 72.1815L104.597 66.1C104.826 65.9567 105.018 65.7614 105.157 65.5301C105.296 65.2987 105.379 65.0378 105.398 64.7684C105.398 64.2889 105.04 64.1059 104.597 64.3626L94.1774 70.4438C93.9488 70.5872 93.7572 70.7826 93.618 71.014C93.4789 71.2454 93.3961 71.5064 93.3765 71.7758C93.3765 72.2557 93.7337 72.437 94.1774 72.1815ZM104.597 68.2067L94.1774 74.2878C93.9488 74.4311 93.7572 74.6264 93.618 74.8577C93.4789 75.0891 93.3961 75.35 93.3765 75.6194C93.3765 76.0993 93.7354 76.2819 94.1778 76.0252L104.598 69.944C104.826 69.8006 105.018 69.6052 105.157 69.3738C105.296 69.1424 105.379 68.8814 105.399 68.612C105.397 68.1338 105.038 67.952 104.596 68.2079L104.597 68.2067ZM104.597 72.0515L94.1774 78.1327C93.9488 78.276 93.7572 78.4713 93.618 78.7026C93.4789 78.934 93.3961 79.1949 93.3765 79.4643C93.3765 79.9441 93.7354 80.1267 94.1778 79.87L104.598 73.7889C104.826 73.6455 105.018 73.4502 105.157 73.2189C105.296 72.9875 105.379 72.7266 105.399 72.4573C105.397 71.9787 105.038 71.7969 104.596 72.0528L104.597 72.0515Z" fill="white"/>
<path d="M155.518 148.647C155.552 150.445 155.693 153.059 155.518 153.805C155.344 154.55 152.352 155.276 150.013 155.386C147.674 155.496 144.859 155.132 144.69 156.775C144.519 158.437 145.985 159.538 147.061 160.036C148.886 160.882 150.92 160.699 152.71 160.434C154.499 160.17 155.454 160.363 157.344 160.825C159.234 161.287 160.301 161.003 161.11 160.598C162.307 159.998 161.99 157.948 161.564 156.615C161.139 155.282 161.189 154.061 161.347 152.211C161.506 150.36 162.031 147.658 162.031 147.658L155.518 148.647Z" fill="#FFBDA7"/>
<path d="M161.565 156.615C161.565 156.615 161.568 157.181 160.34 157.439C159.111 157.698 157.079 157.63 155.654 157.722C153.516 157.86 151.895 158.105 149.444 157.722C147.293 157.386 147.385 155.679 149.31 155.407C147.145 155.443 144.844 155.294 144.69 156.776C144.519 158.438 145.986 159.538 147.061 160.037C148.886 160.882 150.921 160.699 152.71 160.435C154.499 160.171 155.454 160.364 157.344 160.825C159.235 161.287 160.301 161.003 161.11 160.598C162.307 159.998 161.99 157.948 161.565 156.615Z" fill="#455A64"/>
<path d="M177.739 144.188C178.741 145.648 180.398 148.403 180.627 149.089C180.856 149.776 181.065 152.341 180.627 153.1C180.001 153.56 179.014 153.822 178.174 154.239C176.961 154.84 176.7 155.836 177.493 156.599C178.6 157.662 180.386 157.787 181.465 157.724C183.033 157.484 183.141 155.725 183.367 154.167C183.593 152.608 183.338 149.543 184.518 147.66C185.697 145.777 187.789 145.601 188.061 146.228C187.933 145.281 187.411 145.252 186.28 144.613C185.149 143.974 184.164 143.992 183.538 142.506C182.797 140.746 182.123 138.646 182.123 138.646L177.739 144.188Z" fill="#FFBDA7"/>
<path d="M179.946 157.749C181.074 157.938 181.864 157.938 183.866 156.955C185.592 156.106 186.03 155.749 186.294 155.277C186.711 154.532 186.26 152.697 186.625 151.114C186.892 150 187.274 148.916 187.765 147.88C188.157 146.919 188.127 146.503 188.064 146.224C187.931 145.623 186.708 145.549 185.547 146.224C184.386 146.9 183.634 148.186 183.25 151.253C182.866 154.32 183.454 157.678 179.946 157.749Z" fill="#263238"/>
<path d="M188.061 146.226C187.933 145.279 187.606 145.139 186.474 144.498C186.054 144.26 185.641 144.089 185.255 143.893C184.16 143.686 182.436 144.551 182.347 146.852C182.259 149.152 182.654 152.071 181.962 153.154C181.373 154.075 180.404 154.013 180.627 153.1C179.075 153.67 178.542 153.678 177.665 154.158C176.654 154.713 176.314 156.161 177.249 156.74C178.483 157.582 179.987 157.932 181.466 157.722C183.034 157.483 183.142 155.723 183.369 154.165C183.595 152.607 183.339 149.541 184.519 147.659C185.699 145.776 187.789 145.599 188.061 146.226Z" fill="#455A64"/>
<path d="M178.036 145.103C178.036 145.103 172.335 136.718 169.289 131.286C167.037 127.269 166.833 126.492 166.281 123.864L164.817 116.895L163.048 128.297C163.33 129.535 163.903 131.986 163.925 133.428C163.908 136.243 163.679 139.052 163.239 141.833C162.829 144.967 162.251 148.077 161.507 151.149C161.065 151.458 159.779 151.516 158.662 151.48C157.575 151.414 156.501 151.213 155.463 150.881C155.463 150.881 154.534 137.445 154.318 133.749C154.057 129.312 153.966 127.571 153.828 125.133C153.607 121.255 153.08 115.638 153.231 108.511C153.53 94.3336 156.684 87.8624 156.684 87.8624L172.665 85.6394C173.993 90.4154 176.749 90.9707 177.038 97.4911C177.104 98.9722 176.323 101.909 176.296 104.206C176.211 111.655 175.547 123.357 175.547 123.357C177.301 124.976 178.587 126.441 179.799 130.198C180.535 132.48 182.168 138.258 182.855 140.602C180.841 140.602 178.012 144.188 178.036 145.103Z" fill="#455A64"/>
<path d="M161.876 96.0349L162.299 95.9703C162.672 98.5374 163.284 101.453 163.623 101.684C164.208 102.082 166.384 102.41 166.871 102.288C167.375 102.164 167.792 101.767 168.659 100.587C169.268 99.7584 169.203 99.2413 169.06 98.1101C169.007 97.6857 168.946 97.205 168.907 96.6021L169.335 96.5732C169.372 97.1623 169.432 97.636 169.485 98.0538C169.629 99.192 169.716 99.8785 169.002 100.851C168.063 102.127 167.589 102.563 166.971 102.714C166.881 102.734 166.79 102.745 166.699 102.747C165.836 102.786 163.967 102.444 163.386 102.048C162.732 101.604 162.067 97.3334 161.876 96.0349Z" fill="#37474F"/>
<path d="M155.336 95.6565L155.749 95.7765C154.539 100.13 154.804 104.117 156.969 105.328C157.365 102.388 157.92 99.3514 158.686 96.0995L159.102 96.2022C156.639 106.672 156.341 114.917 156.659 124.83C156.901 132.378 157.378 145.358 157.601 151.379C157.454 151.357 157.31 151.333 157.17 151.307C156.945 145.247 156.472 132.356 156.231 124.844C156.016 118.134 156.085 112.182 156.91 105.792C154.427 104.528 154.038 100.326 155.336 95.6565Z" fill="#37474F"/>
<path d="M176.854 99.5647C176.587 99.8188 176.266 100.008 175.915 100.117H175.902C175.227 100.147 174.111 99.1846 173.793 98.4604C173.642 98.0367 173.551 97.5937 173.524 97.1445C173.459 96.487 173.34 95.836 173.166 95.1985L173.577 95.0743C173.757 95.7349 173.881 96.4094 173.949 97.0907C173.974 97.4964 174.053 97.8969 174.185 98.2815C174.453 98.8947 175.432 99.6992 175.88 99.6789H175.887C176.295 99.4707 176.658 99.1832 176.954 98.833C176.928 99.0488 176.886 99.3448 176.854 99.5647Z" fill="#37474F"/>
<path d="M179.378 142.846C179.476 142.732 179.577 142.619 179.683 142.508C176.954 137.743 171.094 127.321 170.57 124.791C169.901 121.551 168.747 110.693 168.701 104.851L168.272 104.854C168.319 110.719 169.478 121.626 170.151 124.882C170.699 127.529 176.665 138.12 179.378 142.846Z" fill="#37474F"/>
<path d="M171.017 94.3323C172.101 96.0593 172.761 99.0889 171.361 102.413L170.968 102.239C172.301 99.0736 171.681 96.2013 170.656 94.57L171.017 94.3323Z" fill="#37474F"/>
<path d="M164.817 116.895L166.554 104.941C166.554 104.941 171.049 104.311 171.668 100.091C171.777 102.594 170.779 104.748 167.988 105.905L165.758 116.939L166.282 123.864L164.817 116.895Z" fill="#37474F"/>
<path d="M174.017 66.3269C176.926 67.0179 178.501 67.8253 179.698 71.7849C180.832 75.5324 182.73 81.8587 183.227 84.5405C183.47 85.8489 183.579 87.0943 181.766 87.8628C177.663 89.6018 173.707 90.8187 173.707 90.8187L172.105 85.969L176.491 83.7745L175.398 80.2389L174.017 66.3269Z" fill="#FFBDA7"/>
<path d="M176.491 83.7745C176.861 84.6146 177.495 85.3098 178.298 85.7528C177.23 85.882 176.187 84.7637 175.916 84.0623L176.491 83.7745Z" fill="#F0997A"/>
<path d="M174.224 66.2954C175.523 66.5298 177.301 66.8022 178.598 68.771C179.895 70.7398 182.007 77.6317 182.007 77.6317C182.007 77.6317 180.976 78.9152 178.298 79.6365C175.621 80.3578 174.477 79.745 174.477 79.745L172.448 73.1426L174.224 66.2954Z" fill="#313A46"/>
<path opacity="0.2" d="M174.224 66.2954C175.523 66.5298 177.301 66.8022 178.598 68.771C179.895 70.7398 182.007 77.6317 182.007 77.6317C182.007 77.6317 180.976 78.9152 178.298 79.6365C175.621 80.3578 174.477 79.745 174.477 79.745L172.448 73.1426L174.224 66.2954Z" fill="black"/>
<path d="M159.892 51.8314C159.385 51.152 159.456 50.1338 159.82 49.3687C160.184 48.6035 160.887 47.8143 162.836 46.9742C165.152 45.9764 171.469 45.3131 173.892 49.5488C174.253 50.181 167.648 61.3744 167.779 63.754C166.331 61.9934 161.57 55.8262 161.57 55.8262C160.382 55.2171 159.673 54.7211 159.496 53.5456C159.445 52.9468 159.583 52.347 159.892 51.8314Z" fill="#263238"/>
<path d="M160.583 55.1128C160.583 55.1128 158.738 57.7018 158.905 57.9358C159.267 58.2684 159.658 58.569 160.072 58.8343L160.583 55.1128Z" fill="#F0997A"/>
<path d="M162.989 50.3256C161.842 50.7715 160.819 51.5557 160.302 53.9692C160.166 54.6002 160.601 55.5074 160.316 56.3392C159.092 59.9 160.024 63.0104 160.682 63.7287C161.126 64.2132 163.602 64.5908 164.934 64.3196C166.601 63.9796 170.268 62.6265 172.142 60.1882C174.348 57.3192 175.101 53.3046 172.997 51.5217C170.037 49.0138 164.213 49.8477 162.989 50.3256Z" fill="#FFBDA7"/>
<path d="M170.928 62.1653L171.135 65.7841C173.141 66.9579 168.99 68.4903 164.589 66.6043L164.271 63.3408L170.928 62.1653Z" fill="#FFBDA7"/>
<path d="M164.417 64.828C164.5 65.6657 164.58 66.9169 163.285 67.2618C162.067 67.5868 160.097 67.7897 158.178 68.5077C158.178 68.5077 165.095 69.6012 168.722 69.0016C172.349 68.4021 172.981 66.0648 172.981 66.0648C171.675 65.8892 171.129 65.6723 171.079 64.828H164.417Z" fill="#FFBDA7"/>
<path d="M160.807 63.8306C161.363 64.1937 162.626 64.5225 164.376 64.4036L164.298 63.4981C163.748 63.6757 163.183 63.8017 162.609 63.8745C162.01 63.9495 161.402 63.9347 160.807 63.8306Z" fill="#F0997A"/>
<path d="M161.256 51.5106C161.083 53.0877 162.038 53.6562 162.722 54.0176C162.41 54.5799 162.264 55.2189 162.299 55.861C162.401 56.6738 162.658 57.3516 163.427 57.6733C163.898 57.8695 164.055 57.6671 164.254 57.3006C164.537 56.7768 164.903 55.9682 166.052 56.2104C167.37 56.4883 167.579 58.52 166.71 59.7791C166.54 60.0457 166.309 60.2671 166.035 60.4246C165.761 60.5821 165.454 60.6709 165.138 60.6834C164.966 60.6682 164.799 60.6164 164.648 60.5316C164.497 60.4467 164.365 60.3306 164.263 60.1911C164.263 60.1911 164.226 61.95 166.402 63.1474C166.402 63.1474 168.581 64.5883 170.957 64.0658C172.091 62.9769 173.165 61.8288 174.177 60.6263C176.885 57.2497 177.451 50.8344 173.35 49.3712C173.155 49.3012 169.789 48.4491 167.913 48.7186C162.158 49.5434 161.285 51.2373 161.256 51.5106Z" fill="#263238"/>
<path d="M173.892 49.5488C174.538 49.5488 176.492 50.5467 176.487 54.8967C176.484 57.8331 175.776 61.7653 174.825 63.6058C172.311 66.3799 165.033 66.9103 161.813 65.7489C163.897 64.7916 164.273 62.1972 164.26 60.189C165.214 61.6332 166.955 61.9744 169.062 60.9161C171.168 59.8578 173.892 49.5488 173.892 49.5488Z" fill="#263238"/>
<path d="M176.837 69.9254C176.235 66.9898 174.646 66.3517 173.936 66.225C172.806 66.023 172.105 65.9062 172.105 65.9062C172.125 66.2536 172.355 67.0846 169.111 67.4908C167.023 67.7525 163.425 67.2167 163.425 67.2167C162.042 67.4414 160.674 67.7478 159.327 68.1342C157.222 68.7375 156.111 71.1982 154.737 74.4456C153.651 77.0127 154.058 79.6274 155.996 81.537C156.057 83.14 156.018 84.7454 155.88 86.3437C155.063 89.4487 154.575 92.6315 154.426 95.8391C154.426 95.8391 155.666 96.9984 165.521 96.7785C173.151 96.6079 176.673 93.1925 176.673 93.1925C176.453 92.0509 175.655 89.606 174.213 85.8029C174.405 82.0868 178.14 76.279 176.837 69.9254Z" fill="#313A46"/>
<path d="M142.503 77.6346C142.503 77.6346 131.655 75.4728 131.036 75.026C130.509 74.6447 130.339 74.0203 130.077 73.463C129.763 72.8288 129.359 72.2431 128.878 71.724C128.57 71.3783 128.197 71.0802 127.91 70.7195C127.643 70.385 127.532 69.9635 127.275 69.6248C126.995 69.2579 126.665 69.5296 126.5 69.8566C126.318 70.335 126.331 70.8661 126.536 71.3352C126.618 71.5422 126.687 71.7538 126.77 71.9608C126.864 72.146 126.939 72.3402 126.994 72.5405C127.022 72.6443 127.014 72.7544 126.972 72.8531C126.854 73.0481 126.488 72.9173 126.325 72.8531C125.231 72.4099 124.238 71.7494 123.405 70.9116C123.05 70.551 122.77 70.1465 122.388 69.8094C122.04 69.491 121.646 69.2285 121.218 69.0315C120.934 68.8882 120.614 68.8306 120.298 68.8658C119.828 69.0401 120.352 69.7875 120.473 70.0401C120.628 70.3163 120.704 70.6302 120.691 70.9468C120.656 71.3229 120.771 71.6976 121.012 71.9886C121.286 72.2922 121.489 72.653 121.606 73.0448C121.615 73.1848 121.615 73.3251 121.606 73.4651C121.647 73.8943 121.822 74.2997 122.106 74.6244C122.377 74.9227 122.532 75.3091 122.541 75.7125C122.637 76.6297 123.597 77.3062 124.311 77.7468C125.142 78.2381 126.028 78.6299 126.951 78.914C127.444 79.0754 127.924 79.2758 128.421 79.4253C128.865 79.5591 129.323 79.6452 129.757 79.8112C130.788 80.2058 138.776 83.2532 141.96 84.1355C143.531 84.5707 143.954 84.9612 146.164 83.8043C150.145 81.7237 154.047 80.3002 156.336 78.8953C159.473 76.9708 160.807 75.8918 161.234 73.8439C162.224 69.0927 159.097 68.2129 159.097 68.2129C157.954 68.5073 157.36 68.7747 153.876 70.792C150.153 72.9438 142.503 77.6346 142.503 77.6346Z" fill="#FFBDA7"/>
<path d="M159.097 68.2096C157.174 68.4311 156.176 68.9602 154.04 70.3051C151.904 71.6499 148.273 74.0067 148.273 74.0067C148.516 76.1457 149.401 78.1607 150.812 79.7855C152.521 81.7411 153.913 81.5784 153.913 81.5784C153.913 81.5784 159.645 77.3584 160.806 75.7312C161.966 74.104 162.822 69.2252 159.097 68.2096Z" fill="#313A46"/>
<path opacity="0.2" d="M159.097 68.2096C157.174 68.4311 156.176 68.9602 154.04 70.3051C151.904 71.6499 148.273 74.0067 148.273 74.0067C148.516 76.1457 149.401 78.1607 150.812 79.7855C152.521 81.7411 153.913 81.5784 153.913 81.5784C153.913 81.5784 159.645 77.3584 160.806 75.7312C161.966 74.104 162.822 69.2252 159.097 68.2096Z" fill="black"/>
<path d="M168.722 38.9758L167.642 36.9416L168.51 34.4292V32.8914L165.85 34.4292V35.9674L166.994 37.9507C167.012 37.9815 167.039 38.0057 167.072 38.0198L168.722 38.9758Z" fill="#313A46"/>
<path opacity="0.2" d="M168.722 38.9758L167.642 36.9416L168.51 34.4292V32.8914L165.85 34.4292V35.9674L166.994 37.9507C167.012 37.9815 167.039 38.0057 167.072 38.0198L168.722 38.9758Z" fill="black"/>
<path d="M175.075 20.6654C175.06 20.3882 174.98 20.1185 174.841 19.8781C174.703 19.6378 174.509 19.4335 174.277 19.282L173.628 18.9065C173.381 18.7809 173.107 18.7155 172.83 18.7155C172.553 18.7155 172.28 18.7809 172.033 18.9065L162.074 24.6738C161.842 24.8253 161.648 25.0296 161.51 25.2699C161.371 25.5103 161.291 25.78 161.276 26.0571V37.0294C161.291 37.3065 161.371 37.5762 161.51 37.8165C161.648 38.0569 161.842 38.2611 162.074 38.4127L162.723 38.7883C162.97 38.9138 163.243 38.9793 163.521 38.9793C163.798 38.9793 164.071 38.9138 164.318 38.7883L167.521 36.935L168.663 38.9146C168.679 38.9429 168.703 38.9659 168.732 38.9809C168.761 38.9958 168.794 39.0022 168.826 38.9991C168.859 38.996 168.89 38.9836 168.915 38.9634C168.941 38.9432 168.96 38.916 168.971 38.8852L170.177 35.3985L174.277 33.0202C174.51 32.8686 174.703 32.6643 174.841 32.424C174.98 32.1836 175.06 31.9139 175.075 31.6368V20.6654Z" fill="#313A46"/>
<path d="M172.531 28.1779V26.9316C172.531 26.7059 172.372 26.6144 172.177 26.7274L170.043 27.9609V25.494C170.043 25.2683 169.885 25.1764 169.689 25.2895L168.612 25.9105C168.509 25.9776 168.423 26.0681 168.362 26.1746C168.301 26.281 168.265 26.4005 168.258 26.5233V28.9906L166.125 30.2241C166.022 30.2913 165.936 30.3819 165.875 30.4884C165.813 30.5949 165.778 30.7145 165.771 30.8373V32.0852C165.771 32.3109 165.93 32.4024 166.125 32.2898L168.258 31.0563V33.5232C168.258 33.7489 168.417 33.8404 168.612 33.7278L169.689 33.1067C169.792 33.0395 169.878 32.949 169.939 32.8424C170.001 32.7359 170.036 32.6163 170.043 32.4935V30.0274L172.177 28.7936C172.28 28.7262 172.366 28.6353 172.427 28.5283C172.489 28.4213 172.524 28.3012 172.531 28.1779Z" fill="#FAFAFA"/>
<path opacity="0.2" d="M161.276 37.0302C161.291 37.3073 161.371 37.577 161.51 37.8174C161.648 38.0577 161.842 38.262 162.074 38.4136L162.723 38.7891C162.948 38.9024 163.194 38.9666 163.446 38.9777C163.697 38.9887 163.948 38.9463 164.182 38.8533C163.807 38.9953 163.521 38.7833 163.521 38.3279V27.3556C163.53 27.0777 163.611 26.8069 163.754 26.5689L161.51 25.2717C161.366 25.5096 161.286 25.7805 161.276 26.0583V37.0302Z" fill="black"/>
<path opacity="0.3" d="M175.049 20.4385C174.956 20.0993 174.647 19.9913 174.279 20.2037L164.316 25.9726C164.08 26.1185 163.886 26.3241 163.754 26.5689L161.51 25.2725C161.643 25.0285 161.837 24.8232 162.072 24.6762L172.03 18.9069C172.277 18.7819 172.551 18.7168 172.828 18.7168C173.105 18.7168 173.378 18.7819 173.626 18.9069L174.277 19.2833C174.477 19.4134 174.649 19.5829 174.781 19.7815C174.914 19.9801 175.005 20.2036 175.049 20.4385Z" fill="white"/>
</g>
<defs>
<clipPath id="clip0_118_2652">
<rect width="194" height="184" fill="white"/>
</clipPath>
</defs>
</svg>
