<svg width="194" height="163" viewBox="0 0 194 163" fill="none" xmlns="http://www.w3.org/2000/svg">
<path d="M30.2606 148.172C67.7188 167.723 128.45 167.723 165.907 148.172C203.364 128.62 203.365 96.9221 165.907 77.3711C128.449 57.8201 67.7179 57.8197 30.2602 77.3711C-7.19749 96.9225 -7.19749 128.621 30.2606 148.172Z" fill="#FAFAFA"/>
<path d="M129.429 151.762C137.003 151.762 143.142 148.838 143.142 145.232C143.142 141.626 137.003 138.703 129.429 138.703C121.856 138.703 115.717 141.626 115.717 145.232C115.717 148.838 121.856 151.762 129.429 151.762Z" fill="#F0F0F0"/>
<path d="M22.2065 32.2868V54.7698C22.2065 55.5108 22.7269 55.811 23.3689 55.4398L75.5781 25.3235C75.9162 25.1033 76.1977 24.8065 76.3996 24.4573C76.6016 24.1081 76.7184 23.7162 76.7405 23.3135V0.829187C76.7405 0.0881522 76.2201 -0.212014 75.5781 0.159174L23.3689 30.2745C23.0305 30.495 22.7488 30.7921 22.5469 31.1418C22.3449 31.4914 22.2283 31.8837 22.2065 32.2868Z" fill="#F0F0F0"/>
<path d="M25.8419 31.9509L41.4858 22.928C42.2011 22.5153 42.7823 22.8499 42.7823 23.6758V39.3862C42.7579 39.8356 42.6277 40.2729 42.4025 40.6625C42.1772 41.0522 41.8631 41.3833 41.4858 41.629L25.8419 50.6519C25.1266 51.0646 24.5454 50.73 24.5454 49.9041V34.1936C24.5698 33.7443 24.6999 33.307 24.9252 32.9173C25.1505 32.5277 25.4645 32.1965 25.8419 31.9509Z" fill="#FAFAFA"/>
<path d="M38.5106 30.7694L33.8611 40.4087L31.4916 39.041C31.3781 38.9755 31.2528 38.933 31.1229 38.9159C30.993 38.8988 30.861 38.9075 30.7344 38.9414C30.6078 38.9752 30.4892 39.0337 30.3852 39.1134C30.2812 39.1931 30.194 39.2925 30.1285 39.4059L24.5491 49.0612V49.9032C24.5491 50.7291 25.1303 51.0646 25.8456 50.651L41.4894 41.6281C41.8665 41.3825 42.1803 41.0516 42.4055 40.6623C42.6308 40.273 42.7611 39.8361 42.7859 39.3871V33.8676L39.6385 30.5912C39.5679 30.4976 39.4731 30.425 39.3643 30.3811C39.2556 30.3372 39.1369 30.3237 39.021 30.342C38.9051 30.3603 38.7964 30.4097 38.7065 30.485C38.6166 30.5603 38.5489 30.6586 38.5106 30.7694Z" fill="#313A46"/>
<path d="M26.8943 37.6996C27.8615 37.0699 28.6665 36.2211 29.2438 35.2223C29.8211 34.2234 30.1545 33.1026 30.2169 31.9509C30.2502 31.5688 30.1927 31.1842 30.0491 30.8285C29.9055 30.4728 29.68 30.156 29.3907 29.9038L25.8419 31.9509C25.4645 32.1965 25.1505 32.5276 24.9252 32.9173C24.6999 33.307 24.5698 33.7443 24.5454 34.1936V37.9323C25.1472 38.2789 25.9774 38.2289 26.8943 37.6996Z" fill="#313A46"/>
<path d="M48.6229 20.2779L72.1342 6.71546C72.6707 6.40681 73.1035 6.62613 73.1035 7.20681C73.0797 7.53207 72.9796 7.84716 72.8112 8.12654C72.6428 8.40592 72.4109 8.64173 72.1342 8.81484L48.6224 22.3777C48.0859 22.6859 47.6536 22.467 47.6541 21.8864C47.6777 21.561 47.7777 21.2459 47.946 20.9664C48.1143 20.6869 48.3462 20.4511 48.6229 20.2779Z" fill="#FAFAFA"/>
<path d="M48.6229 24.9198L72.1342 11.3573C72.6707 11.0487 73.1035 11.268 73.1035 11.8487C73.0797 12.1739 72.9796 12.489 72.8112 12.7684C72.6428 13.0478 72.4109 13.2836 72.1342 13.4567L48.6224 27.0191C48.0859 27.3278 47.6536 27.1085 47.6541 26.5278C47.6777 26.2025 47.7778 25.8875 47.9461 25.6081C48.1144 25.3287 48.3463 25.0929 48.6229 24.9198Z" fill="#FAFAFA"/>
<path d="M48.6229 29.5616L72.1342 15.9987C72.6707 15.6905 73.1035 15.9094 73.1035 16.4901C73.0797 16.8154 72.9796 17.1305 72.8112 17.4099C72.6428 17.6892 72.4109 17.925 72.1342 18.0981L48.6224 31.661C48.0859 31.9696 47.6536 31.7503 47.6541 31.1696C47.6777 30.8444 47.7777 30.5293 47.9461 30.2499C48.1144 29.9705 48.3463 29.7347 48.6229 29.5616Z" fill="#FAFAFA"/>
<path d="M48.6229 34.2035L72.1347 20.6411C72.6711 20.3324 73.1035 20.5517 73.1035 21.1324C73.0798 21.4576 72.9797 21.7727 72.8114 22.0521C72.6431 22.3315 72.4112 22.5673 72.1347 22.7404L48.6229 36.3029C48.0864 36.6119 47.6541 36.3922 47.6541 35.8115C47.6777 35.4863 47.7778 35.1712 47.9461 34.8918C48.1144 34.6124 48.3463 34.3766 48.6229 34.2035Z" fill="#FAFAFA"/>
<path d="M11.2979 102.996V70.0264C11.32 69.6237 11.4368 69.2319 11.6387 68.8827C11.8407 68.5335 12.1221 68.2367 12.4602 68.0164L51.944 45.2404C52.586 44.8696 53.1064 45.1702 53.1064 45.9104V78.88C53.0842 79.2827 52.9673 79.6744 52.7654 80.0236C52.5635 80.3728 52.2821 80.6696 51.944 80.89L12.4602 103.666C11.8187 104.037 11.2979 103.737 11.2979 102.996Z" fill="#F0F0F0"/>
<path d="M11.2979 101.345V102.996C11.2979 103.737 11.8187 104.037 12.4602 103.666L51.944 80.8896C52.2821 80.6692 52.5635 80.3724 52.7654 80.0232C52.9673 79.674 53.0842 79.2822 53.1064 78.8795V77.2268L11.2979 101.345Z" fill="#313A46"/>
<path d="M30.4007 71.4464L34.4181 71.2351C34.9099 71.2092 35.0476 71.4889 34.7212 71.8605L30.0972 77.1134C29.7713 77.4841 29.5066 77.3845 29.5066 76.8901V72.3876C29.5092 72.1469 29.6028 71.9161 29.7686 71.7415C29.9345 71.5669 30.1603 71.4615 30.4007 71.4464Z" fill="#313A46"/>
<path d="M29.3663 79.9958C28.8836 80.0017 28.4081 79.8793 27.9884 79.6411C26.9955 79.0685 26.4482 77.8736 26.4482 76.2768C26.4482 73.05 28.7243 69.1116 31.5211 67.4982C32.907 66.6996 34.2143 66.5767 35.2077 67.1485C36.2011 67.7202 36.7474 68.9164 36.7474 70.5133C36.7474 73.7401 34.4713 77.678 31.6749 79.2914C30.98 79.7232 30.1841 79.9661 29.3663 79.9958ZM33.8302 67.1002C33.0669 67.1302 32.3246 67.3587 31.6767 67.7631C28.9643 69.3265 26.759 73.1464 26.759 76.2754C26.759 77.7579 27.2507 78.8581 28.1449 79.3736C29.039 79.889 30.2389 79.7657 31.5238 79.0238C34.2357 77.4604 36.4416 73.6409 36.4416 70.5119C36.4416 69.0294 35.9498 67.9293 35.0557 67.4138C34.6824 67.2022 34.2594 67.0939 33.8302 67.1002Z" fill="#313A46"/>
<path d="M13.4756 39.3889L11.0296 37.9841C9.861 37.2029 8.23859 37.2364 6.4445 38.2713C2.88494 40.326 0 45.5374 0 49.9144V50.9105C0 55.2879 5.89014 60.0441 5.89014 60.0441L8.2985 61.4051C8.2985 61.4051 6.85178 59.7569 7.0163 59.4188C8.59401 56.1839 12.889 47.049 12.8886 43.4755V42.4795C12.8954 41.7583 12.8016 41.0397 12.61 40.3444L12.8863 40.5029L13.4756 39.3889ZM6.44182 49.4239C4.66204 50.4513 3.21979 49.6182 3.21934 47.5653C4.17741 47.4148 6.58578 43.3067 6.44182 41.9895C8.22115 40.9621 9.66385 41.7952 9.66385 43.8481C9.60325 44.9651 9.27992 46.0521 8.7201 47.0209C8.16028 47.9897 7.37974 48.813 6.44182 49.4239Z" fill="#313A46"/>
<g opacity="0.2">
<path d="M13.4756 39.3889L11.0296 37.9841C9.861 37.2029 8.23859 37.2364 6.4445 38.2713C2.88494 40.326 0 45.5374 0 49.9144V50.9105C0 55.2879 5.89014 60.0441 5.89014 60.0441L8.2985 61.4051C8.2985 61.4051 6.85178 59.7569 7.0163 59.4188C8.59401 56.1839 12.889 47.049 12.8886 43.4755V42.4795C12.8954 41.7583 12.8016 41.0397 12.61 40.3444L12.8863 40.5029L13.4756 39.3889ZM6.44182 49.4239C4.66204 50.4513 3.21979 49.6182 3.21934 47.5653C4.17741 47.4148 6.58578 43.3067 6.44182 41.9895C8.22115 40.9621 9.66385 41.7952 9.66385 43.8481C9.60325 44.9651 9.27992 46.0521 8.7201 47.0209C8.16028 47.9897 7.37974 48.813 6.44182 49.4239Z" fill="black"/>
</g>
<path d="M13.4764 39.3902C13.4488 39.3721 13.4203 39.3554 13.391 39.3402C12.2407 38.6979 10.705 38.7836 9.01909 39.7578C6.47079 41.2319 4.26495 44.322 3.22194 47.5657C3.22194 47.5693 3.21881 47.5729 3.21881 47.5764C2.80969 48.8111 2.59287 50.1013 2.57593 51.4018V52.3974C2.57593 55.7698 6.39747 59.6809 8.1549 61.301C8.19192 61.3361 8.23253 61.3673 8.27606 61.3939C8.27964 61.3975 8.28723 61.4011 8.29036 61.4046C8.39356 61.4676 8.50879 61.5083 8.62866 61.5242C8.74854 61.5401 8.87041 61.5308 8.98646 61.4968C9.10251 61.4629 9.21018 61.4051 9.30257 61.3271C9.39496 61.2492 9.47001 61.1528 9.52293 61.0442C11.043 57.9398 15.4622 48.5899 15.4622 44.9638V43.9646C15.4622 41.7169 14.7018 40.1254 13.4764 39.3902ZM5.85473 49.6995C5.81523 49.4868 5.79652 49.2708 5.79885 49.0545C5.85893 47.9373 6.18169 46.8501 6.74095 45.8808C7.30021 44.9116 8.08023 44.0877 9.01775 43.476C9.2047 43.3668 9.40063 43.2737 9.60341 43.1977C11.1038 42.6518 12.2411 43.5157 12.2411 45.3355C12.1804 46.4524 11.8569 47.5393 11.2968 48.5078C10.7368 49.4763 9.95593 50.2992 9.01775 50.9095C7.44049 51.8239 6.1261 51.27 5.85473 49.6995Z" fill="#313A46"/>
<path d="M12.2408 45.3355C12.1802 46.4524 11.8567 47.5392 11.2967 48.5077C10.7367 49.4763 9.95597 50.2991 9.01787 50.9096C7.43927 51.823 6.12489 51.27 5.85352 49.6995C6.05623 49.625 6.25217 49.5332 6.43918 49.4253C7.37733 48.8141 8.15799 47.9904 8.71774 47.0212C9.2775 46.052 9.60059 44.9645 9.66076 43.8472C9.66265 43.6293 9.64349 43.4118 9.60353 43.1977C11.1052 42.6519 12.2408 43.5157 12.2408 45.3355Z" fill="#313A46"/>
<g opacity="0.2">
<path d="M12.2408 45.3355C12.1802 46.4524 11.8567 47.5392 11.2967 48.5077C10.7367 49.4763 9.95597 50.2991 9.01787 50.9096C7.43927 51.823 6.12489 51.27 5.85352 49.6995C6.05623 49.625 6.25217 49.5332 6.43918 49.4253C7.37733 48.8141 8.15799 47.9904 8.71774 47.0212C9.2775 46.052 9.60059 44.9645 9.66076 43.8472C9.66265 43.6293 9.64349 43.4118 9.60353 43.1977C11.1052 42.6519 12.2408 43.5157 12.2408 45.3355Z" fill="black"/>
</g>
<path d="M59.2152 100.793C59.2152 100.793 60.8247 90.5386 57.245 81.6855C53.6653 72.8324 48.824 72.2942 46.3213 73.556C43.8186 74.8179 45.4428 79.7148 47.6831 83.0072C50.6194 87.323 55.5738 96.6268 55.3946 104.976L59.2152 100.793Z" fill="#313A46"/>
<path opacity="0.2" d="M59.2152 100.793C59.2152 100.793 60.8247 90.5386 57.245 81.6855C53.6653 72.8324 48.824 72.2942 46.3213 73.556C43.8186 74.8179 45.4428 79.7148 47.6831 83.0072C50.6194 87.323 55.5738 96.6268 55.3946 104.976L59.2152 100.793Z" fill="black"/>
<path d="M57.6035 101.446H57.5905C57.5506 101.445 57.5114 101.435 57.4752 101.419C57.439 101.402 57.4064 101.378 57.3794 101.349C57.3524 101.319 57.3314 101.285 57.3177 101.247C57.304 101.21 57.2978 101.17 57.2995 101.13C57.8927 87.0644 50.8576 76.5367 47.8243 74.5159C47.7897 74.4945 47.7597 74.4663 47.7362 74.433C47.7128 74.3997 47.6962 74.3621 47.6876 74.3223C47.6789 74.2825 47.6784 74.2414 47.686 74.2014C47.6936 74.1614 47.7091 74.1233 47.7317 74.0894C47.7543 74.0556 47.7835 74.0266 47.8176 74.0042C47.8516 73.9818 47.8898 73.9665 47.9299 73.9592C47.9699 73.9518 48.0111 73.9526 48.0509 73.9615C48.0906 73.9703 48.1282 73.9871 48.1614 74.0108C51.7379 76.3938 58.4985 87.1323 57.9075 101.156C57.9042 101.234 57.8708 101.308 57.8141 101.362C57.7574 101.416 57.6819 101.447 57.6035 101.446Z" fill="white"/>
<path d="M58.5787 112.992C57.9676 111.454 56.3881 109.74 52.3019 107.907C48.2156 106.074 45.1814 103.634 44.6163 101.864C44.4479 101.376 44.4267 100.849 44.5553 100.349C44.6839 99.8484 44.9566 99.3969 45.3396 99.0501C45.3396 99.0501 41.5074 98.6034 41.0254 96.257C40.4179 93.3022 43.7678 93.1079 43.7678 93.1079C43.7678 93.1079 39.3744 86.9241 38.2049 84.1548C37.0353 81.3854 38.3868 81.2415 41.219 82.2886C44.0512 83.3356 49.4558 88.6246 50.2923 90.2371C50.2923 90.2371 51.7524 88.4344 53.3252 89.6216C54.898 90.8089 54.9767 94.3148 54.0463 95.5812C54.6738 95.4644 55.3218 95.532 55.9116 95.7758C56.5015 96.0196 57.0079 96.4291 57.3694 96.9547C58.9694 99.0501 59.4961 104.287 59.4961 104.287L58.5787 112.992Z" fill="#313A46"/>
<path d="M58.866 111.562C58.7978 111.562 58.7316 111.539 58.6781 111.497C58.6246 111.454 58.5868 111.395 58.571 111.329C56.396 102.286 46.0817 87.8474 39.6747 83.2552C39.6387 83.2335 39.6076 83.2046 39.5834 83.1703C39.5591 83.1361 39.5422 83.0971 39.5338 83.056C39.5253 83.0149 39.5255 82.9725 39.5343 82.9314C39.5431 82.8904 39.5603 82.8516 39.5849 82.8175C39.6094 82.7834 39.6408 82.7548 39.677 82.7335C39.7131 82.7121 39.7533 82.6985 39.7951 82.6935C39.8368 82.6884 39.8791 82.6921 39.9193 82.7042C39.9595 82.7163 39.9968 82.7366 40.0288 82.7638C46.5162 87.4133 56.9597 102.033 59.1633 111.189C59.1822 111.268 59.1693 111.35 59.1274 111.419C59.0855 111.487 59.018 111.537 58.9398 111.556C58.9156 111.561 58.8908 111.563 58.866 111.562Z" fill="white"/>
<path d="M139.791 20.4793C139.738 20.4795 139.686 20.4653 139.64 20.4382L138.383 19.7133C138.315 19.6721 138.266 19.606 138.246 19.5291C138.226 19.4522 138.238 19.3706 138.277 19.3018C138.317 19.233 138.382 19.1825 138.459 19.161C138.535 19.1396 138.617 19.1489 138.687 19.1871L139.944 19.9125C140.002 19.9459 140.047 19.9976 140.073 20.0594C140.098 20.1212 140.103 20.1898 140.085 20.2544C140.068 20.319 140.03 20.3761 139.977 20.4168C139.923 20.4575 139.858 20.4794 139.791 20.4793Z" fill="white"/>
<path d="M58.5789 46.9623V113.421C58.5789 114.16 59.0988 114.46 59.7412 114.091L137.322 69.339C137.661 69.1187 137.942 68.822 138.144 68.4727C138.346 68.1235 138.463 67.7317 138.485 67.3289V0.870261C138.485 0.130119 137.965 -0.170047 137.322 0.200247L59.7403 44.9522C59.4023 45.1725 59.1209 45.4693 58.9191 45.8186C58.7173 46.1678 58.6007 46.5596 58.5789 46.9623Z" fill="#455A64"/>
<path d="M67.6587 59.2387C67.6587 61.553 69.3924 62.4293 71.5303 61.1956L133.035 25.7193V17.3405L71.5303 52.8169C69.3924 54.0506 67.6587 56.9263 67.6587 59.2387Z" fill="#F5F5F5"/>
<path d="M138.243 14.3344C140.382 13.1007 142.115 13.9771 142.115 16.2909C142.115 18.6046 140.382 21.4812 138.243 22.7145L133.035 25.7193V17.3406L138.243 14.3344Z" fill="#313A46"/>
<path d="M136.388 21.3977C136.165 21.3999 135.945 21.3428 135.752 21.2324C135.514 21.0729 135.324 20.8526 135.202 20.5945C135.079 20.3364 135.028 20.0501 135.054 19.7655C135.087 19.0666 135.287 18.3856 135.637 17.7795C135.987 17.1734 136.477 16.6598 137.066 16.2815C137.291 16.098 137.566 15.9873 137.856 15.964C138.145 15.9407 138.435 16.0059 138.686 16.151C138.938 16.2961 139.139 16.5142 139.263 16.7762C139.388 17.0383 139.429 17.332 139.383 17.6184C139.35 18.3173 139.15 18.9983 138.8 19.6044C138.45 20.2105 137.96 20.7241 137.371 21.1024C137.075 21.285 136.736 21.3868 136.388 21.3977ZM138.049 16.5941C137.809 16.6057 137.575 16.6794 137.371 16.8081C136.877 17.1358 136.466 17.5733 136.17 18.0864C135.873 18.5995 135.699 19.1742 135.662 19.7655C135.615 19.9437 135.629 20.1324 135.7 20.3024C135.771 20.4724 135.896 20.6144 136.055 20.7065C136.215 20.7986 136.401 20.8357 136.584 20.8121C136.766 20.7885 136.936 20.7054 137.067 20.5758C137.561 20.2482 137.973 19.8107 138.269 19.2977C138.566 18.7847 138.739 18.2101 138.777 17.6188C138.799 17.4414 138.774 17.2613 138.705 17.0963C138.636 16.9313 138.525 16.7872 138.384 16.6781C138.281 16.6209 138.166 16.5919 138.049 16.5941Z" fill="white"/>
<path d="M139.138 32.6745L79.7166 66.951C79.3783 67.1712 79.0968 67.4679 78.8948 67.8172C78.6928 68.1664 78.5761 68.5583 78.5542 68.9611V87.2324C78.5542 87.9725 79.0741 88.2722 79.7166 87.9024L139.138 53.6254C139.476 53.4053 139.758 53.1085 139.96 52.7593C140.162 52.41 140.278 52.0181 140.3 51.6153V33.3463C140.299 32.6043 139.779 32.3042 139.138 32.6745Z" fill="#313A46"/>
<path opacity="0.2" d="M139.138 32.6745L79.7166 66.951C79.3783 67.1712 79.0968 67.4679 78.8948 67.8172C78.6928 68.1664 78.5761 68.5583 78.5542 68.9611V87.2324C78.5542 87.9725 79.0741 88.2722 79.7166 87.9024L139.138 53.6254C139.476 53.4053 139.758 53.1085 139.96 52.7593C140.162 52.41 140.278 52.0181 140.3 51.6153V33.3463C140.299 32.6043 139.779 32.3042 139.138 32.6745Z" fill="white"/>
<path d="M101.315 57.5311L112.09 51.3147C112.626 51.0065 113.058 51.2254 113.058 51.8061C113.034 52.1312 112.934 52.4463 112.766 52.7257C112.598 53.0051 112.366 53.2409 112.09 53.4141L101.315 59.63C100.779 59.9382 100.347 59.7194 100.347 59.1387C100.371 58.8135 100.471 58.4985 100.639 58.2192C100.807 57.9398 101.039 57.7041 101.315 57.5311Z" fill="white"/>
<path d="M100.347 63.3272C100.347 63.9056 100.78 64.1245 101.315 63.8185L133.884 45.0295C134.161 44.8564 134.393 44.6205 134.561 44.3411C134.729 44.0618 134.829 43.7467 134.852 43.4215C134.852 42.8431 134.419 42.6237 133.884 42.9302L101.315 61.7209C101.039 61.8939 100.807 62.1294 100.639 62.4085C100.471 62.6876 100.371 63.0023 100.347 63.3272Z" fill="white"/>
<path d="M100.347 67.517C100.347 68.0976 100.78 68.3147 101.315 68.0083L133.884 49.2193C134.161 49.0462 134.393 48.8104 134.561 48.531C134.729 48.2516 134.829 47.9365 134.852 47.6113C134.852 47.0329 134.419 46.8135 133.884 47.12L101.315 65.9112C101.039 66.084 100.807 66.3195 100.639 66.5985C100.471 66.8775 100.371 67.1921 100.347 67.517Z" fill="white"/>
<path d="M100.347 71.7063C100.347 72.2848 100.78 72.5037 101.315 72.1977L133.884 53.4087C134.161 53.2356 134.393 52.9998 134.561 52.7204C134.729 52.441 134.829 52.1259 134.852 51.8007C134.852 51.2222 134.419 51.0034 133.884 51.312L101.315 70.1001C101.039 70.273 100.807 70.5086 100.639 70.7877C100.471 71.0667 100.371 71.3815 100.347 71.7063Z" fill="white"/>
<path d="M81.5325 67.9989L95.5535 59.9087C96.195 59.5384 96.7159 59.8386 96.7159 60.5788V74.6593C96.6939 75.0621 96.5772 75.454 96.3753 75.8032C96.1733 76.1525 95.8918 76.4492 95.5535 76.6694L81.5325 84.7595C80.891 85.1298 80.3701 84.8297 80.3701 84.0895V70.009C80.392 69.6062 80.5086 69.2143 80.7106 68.865C80.9126 68.5157 81.1942 68.219 81.5325 67.9989Z" fill="white"/>
<path d="M92.8881 66.9398L88.7196 75.5786L86.5951 74.3533C86.4934 74.2946 86.3811 74.2565 86.2647 74.2411C86.1482 74.2258 86.0298 74.2335 85.9164 74.2639C85.8029 74.2942 85.6965 74.3466 85.6034 74.4181C85.5102 74.4895 85.432 74.5786 85.3733 74.6803L80.3701 83.3337V84.0895C80.3701 84.8297 80.8901 85.1298 81.5325 84.7595L95.553 76.6716C95.8913 76.4514 96.1728 76.1547 96.3748 75.8054C96.5768 75.4562 96.6935 75.0643 96.7154 74.6615V69.7159L93.8944 66.7799C93.8306 66.6977 93.7458 66.6341 93.6489 66.5958C93.5521 66.5576 93.4467 66.546 93.3439 66.5623C93.241 66.5787 93.1444 66.6223 93.0642 66.6888C92.984 66.7552 92.9232 66.8419 92.8881 66.9398Z" fill="#313A46"/>
<path d="M82.4758 73.1509C83.3427 72.5866 84.0641 71.8259 84.5815 70.9308C85.0989 70.0356 85.3978 69.0311 85.4537 67.9989C85.4836 67.6564 85.4321 67.3117 85.3033 66.9928C85.1746 66.6739 84.9723 66.39 84.7129 66.164L81.5325 67.9985C81.1942 68.2186 80.9127 68.5154 80.7107 68.8646C80.5087 69.2139 80.3921 69.6058 80.3701 70.0085V73.3586C80.9097 73.6699 81.6541 73.6253 82.4758 73.1509Z" fill="#313A46"/>
<path d="M139.138 59.9088L79.7166 94.1875C79.3783 94.4076 79.0967 94.7044 78.8947 95.0536C78.6927 95.4029 78.5761 95.7948 78.5542 96.1976V114.467C78.5542 115.207 79.0741 115.506 79.7166 115.137L139.138 80.8601C139.476 80.64 139.758 80.3433 139.96 79.994C140.162 79.6447 140.278 79.2528 140.3 78.85V60.5788C140.299 59.8409 139.779 59.5407 139.138 59.9088Z" fill="#313A46"/>
<path opacity="0.2" d="M139.138 59.9088L79.7166 94.1875C79.3783 94.4076 79.0967 94.7044 78.8947 95.0536C78.6927 95.4029 78.5761 95.7948 78.5542 96.1976V114.467C78.5542 115.207 79.0741 115.506 79.7166 115.137L139.138 80.8601C139.476 80.64 139.758 80.3433 139.96 79.994C140.162 79.6447 140.278 79.2528 140.3 78.85V60.5788C140.299 59.8409 139.779 59.5407 139.138 59.9088Z" fill="white"/>
<path d="M101.315 84.7671L112.09 78.5512C112.626 78.243 113.058 78.4619 113.058 79.0425C113.034 79.3677 112.934 79.6828 112.766 79.9622C112.598 80.2416 112.366 80.4774 112.09 80.6506L101.315 86.8665C100.779 87.1747 100.347 86.9559 100.347 86.3752C100.371 86.05 100.471 85.7349 100.639 85.4554C100.807 85.176 101.039 84.9402 101.315 84.7671Z" fill="white"/>
<path d="M100.347 90.5636C100.347 91.1443 100.78 91.361 101.315 91.0523L133.884 72.2656C134.161 72.0925 134.393 71.8567 134.561 71.5773C134.729 71.2979 134.829 70.9827 134.852 70.6575C134.852 70.0791 134.419 69.8602 133.884 70.1662L101.315 88.9574C101.039 89.1303 100.807 89.3658 100.639 89.6449C100.471 89.924 100.371 90.2387 100.347 90.5636Z" fill="white"/>
<path d="M100.347 94.7535C100.347 95.3315 100.78 95.5508 101.315 95.2421L133.884 76.4558C134.161 76.2827 134.393 76.0468 134.561 75.7675C134.729 75.4881 134.829 75.173 134.852 74.8478C134.852 74.2694 134.419 74.0505 133.884 74.3587L101.315 93.1472C101.039 93.3201 100.807 93.5557 100.639 93.8347C100.471 94.1138 100.371 94.4286 100.347 94.7535Z" fill="white"/>
<path d="M100.347 98.9428C100.347 99.5208 100.78 99.7402 101.315 99.4315L133.884 80.6452C134.161 80.4721 134.393 80.2362 134.561 79.9568C134.729 79.6774 134.829 79.3624 134.852 79.0372C134.852 78.4565 134.419 78.2399 133.884 78.5459L101.315 97.3366C101.039 97.5095 100.807 97.7451 100.639 98.0241C100.471 98.3032 100.371 98.618 100.347 98.9428Z" fill="white"/>
<path d="M81.5325 95.235L95.5535 87.147C96.195 86.7772 96.7159 87.0769 96.7159 87.8171V101.896C96.694 102.299 96.5773 102.691 96.3754 103.04C96.1734 103.389 95.8918 103.686 95.5535 103.906L81.5325 111.996C80.891 112.366 80.3701 112.066 80.3701 111.326V97.245C80.3921 96.8423 80.5087 96.4504 80.7107 96.1011C80.9127 95.7519 81.1942 95.4551 81.5325 95.235Z" fill="white"/>
<path d="M92.8881 94.1764L88.7196 102.815L86.5951 101.589C86.4934 101.531 86.3811 101.493 86.2646 101.477C86.1481 101.462 86.0298 101.47 85.9163 101.5C85.8028 101.531 85.6964 101.583 85.6033 101.654C85.5101 101.726 85.4319 101.815 85.3733 101.917L80.3701 110.57V111.326C80.3701 112.066 80.8901 112.366 81.5325 111.996L95.5535 103.906C95.8918 103.686 96.1733 103.389 96.3753 103.04C96.5772 102.691 96.6939 102.299 96.7159 101.896V96.9525L93.8949 94.016C93.831 93.9337 93.7462 93.87 93.6492 93.8317C93.5523 93.7934 93.4469 93.7818 93.3439 93.7982C93.241 93.8146 93.1443 93.8584 93.0641 93.9249C92.9839 93.9914 92.9231 94.0783 92.8881 94.1764Z" fill="#313A46"/>
<path d="M82.4758 100.387C83.3427 99.8231 84.0641 99.0624 84.5815 98.1673C85.0989 97.2721 85.3978 96.2677 85.4537 95.2354C85.4836 94.8929 85.4321 94.5481 85.3033 94.2291C85.1746 93.9102 84.9723 93.6261 84.7129 93.4001L81.5325 95.235C81.1942 95.4551 80.9127 95.7519 80.7107 96.1011C80.5087 96.4504 80.3921 96.8423 80.3701 97.245V100.595C80.9097 100.906 81.6541 100.861 82.4758 100.387Z" fill="#313A46"/>
<path d="M138.483 3.72008V0.870291C138.483 0.130149 137.963 -0.170017 137.321 0.200277L59.7403 44.9523C59.402 45.1725 59.1205 45.4692 58.9185 45.8184C58.7166 46.1677 58.5999 46.5596 58.5779 46.9623V49.8139L138.483 3.72008Z" fill="#313A46"/>
<path d="M128.966 6.11289C128.716 6.2763 128.507 6.49646 128.357 6.75551C128.208 7.01456 128.121 7.30522 128.105 7.6039C128.105 8.15286 128.491 8.37531 128.966 8.10105C129.217 7.93769 129.426 7.71755 129.576 7.45848C129.725 7.19942 129.812 6.90874 129.828 6.61004C129.83 6.06108 129.444 5.83863 128.966 6.11289Z" fill="#F5F5F5"/>
<path d="M132.387 4.14127C132.136 4.30453 131.928 4.52459 131.778 4.78358C131.628 5.04258 131.542 5.3332 131.526 5.63183C131.526 6.1808 131.911 6.40324 132.387 6.12898C132.638 5.96565 132.846 5.74556 132.996 5.48658C133.146 5.22759 133.232 4.93702 133.248 4.63843C133.248 4.08902 132.863 3.86657 132.387 4.14127Z" fill="#F5F5F5"/>
<path d="M135.807 2.1692C135.556 2.33258 135.347 2.55272 135.197 2.81177C135.048 3.07082 134.961 3.36149 134.945 3.6602C134.945 4.20916 135.331 4.43161 135.807 4.1569C136.057 3.99354 136.266 3.77345 136.416 3.51448C136.565 3.25551 136.652 2.96495 136.668 2.66635C136.667 2.11738 136.281 1.89494 135.807 2.1692Z" fill="#F5F5F5"/>
<path d="M139.725 142.286C139.86 142.629 139.952 142.988 139.999 143.354C140.126 143.732 140.155 144.135 140.084 144.527C139.786 145.026 139.313 145.395 138.757 145.564C138.357 145.654 137.943 145.66 137.54 145.583C137.137 145.505 136.755 145.344 136.417 145.111C135.602 144.625 134.986 144.033 133.828 143.704C132.998 143.526 132.217 143.172 131.537 142.665C130.894 142.149 130.035 140.723 131.265 140.393C132.506 140.06 135.173 141.228 137.607 141.334L139.725 142.286Z" fill="#263238"/>
<path d="M139.611 140.678C139.611 140.678 139.755 142.385 139.756 142.591C139.758 143.169 137.628 143.94 137.232 142.591L136.894 140.779L139.611 140.678Z" fill="#F28F8F"/>
<path d="M136.997 103.24C137.728 104.315 138.398 105.43 139.005 106.581C139.005 106.581 139.215 109.066 139.215 110.718C139.215 113.756 138.742 116.102 138.311 122.086C139.002 123.264 139.398 124.591 139.465 125.954C139.644 128.665 139.647 128.648 139.665 141.141C139.26 141.358 138.816 141.493 138.359 141.538C137.902 141.582 137.441 141.536 137.002 141.401L132.965 123.886L132.525 117.014L131.264 108.468L136.997 103.24Z" fill="#37474F"/>
<path d="M127.472 145.415C127.617 145.565 127.568 145.845 127.632 146.353C127.707 146.731 127.727 147.117 127.692 147.501C127.458 148.032 127.034 148.457 126.504 148.694C126.118 148.833 125.708 148.891 125.298 148.864C124.889 148.837 124.49 148.725 124.126 148.536C123.257 148.155 122.573 147.643 121.381 147.461C120.536 147.388 119.717 147.134 118.979 146.716C118.277 146.284 117.246 144.974 118.426 144.495C119.616 144.011 122.563 144.884 124.992 144.686L127.472 145.415Z" fill="#263238"/>
<path d="M128.032 143.272C128.032 143.272 127.575 145.218 127.464 145.652C127.196 146.695 124.884 146.747 124.884 145.545L125.039 142.775L128.032 143.272Z" fill="#F28F8F"/>
<path d="M131.777 103.752C132.936 106.021 134.053 108.03 134.091 110.455C134.173 115.576 132.047 121.22 131.264 124.922C131.497 126.262 131.562 127.627 131.459 128.984C131.304 130.53 127.767 144.609 127.767 144.609C127.767 144.609 125.8 145.017 124.963 144.131L125.959 117.014L126.227 109.136L131.777 103.752Z" fill="#37474F"/>
<path d="M130.186 89.8861L130.919 93.9169L134.563 93.6489L133.798 89.0798L130.186 89.8861Z" fill="#FFA8A7"/>
<path d="M138.411 93.3568C138.051 92.2606 136.659 91.068 135.266 91.3262C133.197 91.6772 131.158 92.186 129.167 92.848C127.893 93.3027 126.731 94.4038 126.626 98.594L126.226 109.136C126.776 109.625 127.436 109.974 128.151 110.153C130.09 110.686 131.365 111.002 134.309 110.359C138.141 109.523 139.053 107.205 139.053 107.205C139.053 107.205 138.906 101.628 138.791 98.594C138.693 96.0167 138.659 94.109 138.411 93.3568Z" fill="#455A64"/>
<path d="M128.63 84.7359L110.056 79.7001C108.375 79.4129 107.673 83.5089 109.353 83.7966L128.447 85.7244L128.63 84.7359Z" fill="#263238"/>
<path d="M123.289 93.2406L119.492 93.3563C119.492 93.3563 120.065 87.713 120.417 86.9751C120.769 86.2372 121.618 86.0818 122.455 85.8423C123.292 85.6029 123.295 85.2045 123.295 85.2045L122.538 85.1281C121.875 85.0607 121.614 84.2347 121.9 83.6777C122.034 83.4173 122.257 83.0077 122.66 83.1176L123.662 83.3892C123.677 82.9488 123.567 82.5132 123.344 82.1327C123.011 81.7619 122.784 81.8754 122.117 81.6445C121.618 81.4721 120.606 81.1621 119.786 81.4989C118.966 81.8357 118.344 83.3682 118.138 84.4532C117.924 85.7075 117.58 86.936 117.11 88.1186C116.379 90.1313 115.308 94.2564 115.207 95.9126C115.162 96.6751 115.231 97.1285 116.082 97.3313C116.932 97.5341 123.178 97.5461 123.178 97.5461L123.289 93.2406Z" fill="#FFA8A7"/>
<path d="M127.488 85.1098C127.488 85.1098 126.605 86.4154 126.717 86.5552C126.92 86.6911 127.144 86.7903 127.381 86.8482L127.488 85.1098Z" fill="#FFA8A7"/>
<path d="M130.185 80.9722C129.335 81.4006 127.866 82.1934 127.461 85.3009C127.045 88.492 127.595 89.5202 128.025 89.9428C128.316 90.2282 129.902 90.2456 130.695 90.0076C131.689 89.7096 133.931 88.8583 134.953 87.219C136.156 85.2907 136.425 82.7075 135.068 81.6802C134.38 81.1595 133.572 80.8214 132.718 80.6976C131.864 80.5738 130.992 80.6683 130.185 80.9722Z" fill="#FFA8A7"/>
<path d="M132.68 119.483L134.617 114.014C136.117 113.483 137.462 112.587 138.528 111.407C138.528 111.407 138.097 112.966 135.023 114.564L132.901 119.738L132.883 122.615L132.68 119.483Z" fill="#263238"/>
<path d="M127.284 82.0411C127.564 82.8067 128.034 84.6796 129.99 85.4627C129.99 85.4627 130.27 84.2687 131.274 84.3951C132.279 84.5215 132.451 85.8035 131.833 86.5972C131.216 87.391 130.617 87.106 130.617 87.106C130.617 87.106 130.483 88.8185 131.626 89.5944C132.052 89.8452 132.531 89.9939 133.025 90.029C133.518 90.0641 134.013 89.9846 134.47 89.7967C135.128 89.4948 136.059 87.9207 136.606 86.6253C137.762 83.8908 137.927 81.6976 136.18 81.0062C135.965 79.7626 135.406 79.2954 134.279 79.0636C131.854 78.5637 130.022 80.1557 127.987 79.8747C126.926 79.7291 126.965 81.1665 127.284 82.0411Z" fill="#263238"/>
<path d="M136.22 81.4238L137.362 80.7154C137.316 80.6404 137.255 80.5753 137.183 80.5239C137.112 80.4724 137.03 80.4356 136.944 80.4155C136.858 80.3953 136.769 80.3923 136.682 80.4066C136.595 80.4209 136.512 80.4522 136.437 80.4987C136.362 80.5452 136.296 80.6061 136.245 80.6777C136.193 80.7494 136.157 80.8305 136.136 80.9164C136.116 81.0023 136.113 81.0913 136.128 81.1784C136.142 81.2654 136.173 81.3488 136.22 81.4238Z" fill="#263238"/>
<path d="M122.439 93.1616C122.439 93.1616 127.782 92.856 129.169 92.8489C130.556 92.8417 131.983 95.1645 131.13 96.7497C130.569 97.7936 128.814 98.1505 126.6 98.2572C124.404 98.3636 122.153 98.3635 122.153 98.3635C122.153 98.3635 120.142 96.0967 122.439 93.1616Z" fill="#455A64"/>
<path d="M126.637 98.2546C126.637 98.2546 130.023 98.2099 131.129 96.7488C131.129 96.7488 130.871 97.6261 129.558 98.1934C128.616 98.5549 127.624 98.7683 126.617 98.8258L126.637 98.2546Z" fill="#37474F"/>
<path d="M110.056 79.7001C108.375 79.4129 107.673 83.5089 109.353 83.7966L112.016 84.0646C110.926 83.9542 111.683 80.141 112.515 80.3665L110.056 79.7001Z" fill="#455A64"/>
<path d="M177.707 78.6057C177.707 79.437 177.456 80.2489 176.988 80.9357C176.519 81.6226 175.854 82.1524 175.079 82.4561C174.305 82.7598 173.457 82.8234 172.646 82.6386C171.834 82.4537 171.098 82.029 170.532 81.4197L170.259 81.0896C170.255 81.0847 170.25 81.0847 170.25 81.0802C169.617 80.2321 169.333 79.1739 169.457 78.1232C169.581 77.0725 170.104 76.1093 170.917 75.4314C171.73 74.7536 172.772 74.4128 173.829 74.479C174.885 74.5453 175.877 75.0136 176.598 75.7876L176.88 76.1266C176.881 76.1266 176.882 76.1271 176.883 76.1279C176.884 76.1288 176.885 76.1299 176.885 76.1311C177.418 76.8461 177.706 77.7139 177.707 78.6057Z" fill="#455A64"/>
<path d="M177.707 78.6057C177.707 79.437 177.456 80.2489 176.988 80.9358C176.519 81.6226 175.854 82.1524 175.08 82.4561C174.305 82.7598 173.457 82.8234 172.646 82.6386C171.835 82.4537 171.098 82.029 170.532 81.4197L170.259 81.0896C170.255 81.0847 170.25 81.0847 170.25 81.0803L153.011 60.2875L160.276 56.0981L176.599 75.7876L176.88 76.1266C176.881 76.1266 176.883 76.1271 176.883 76.1279C176.884 76.1288 176.885 76.1299 176.885 76.1311C177.418 76.8461 177.707 77.7139 177.707 78.6057Z" fill="#455A64"/>
<path d="M163.443 72.8668C164.163 73.6437 165.155 74.1148 166.213 74.1829C167.271 74.251 168.315 73.911 169.13 73.2329C169.944 72.5548 170.467 71.5903 170.591 70.5382C170.715 69.4861 170.43 68.4266 169.796 67.5782C169.796 67.577 169.795 67.5758 169.794 67.575C169.793 67.5742 169.792 67.5737 169.791 67.5737L167.659 65.0062C167.661 65.0062 167.662 65.0067 167.663 65.0076C167.664 65.0086 167.664 65.0098 167.664 65.0111C168.299 65.8596 168.584 66.9191 168.46 67.9711C168.336 69.0232 167.813 69.9877 166.998 70.6658C166.184 71.3439 165.14 71.684 164.082 71.6159C163.024 71.5478 162.032 71.0767 161.312 70.2997L163.443 72.8668Z" fill="#313A46"/>
<path d="M160.007 23.3988C161.309 23.5423 162.567 23.9511 163.704 24.5999L158.459 21.5518C154.94 19.1366 149.876 19.2791 144.247 22.5229C133.618 28.6548 124.999 43.5711 124.999 55.8355C124.993 61.8612 127.055 66.1662 130.437 68.2142L130.511 68.2562L136.108 71.4794C135.115 70.8343 134.249 70.0116 133.555 69.0526C134.933 69.2025 136.326 69.1225 137.678 68.8159C138.17 68.7091 138.667 68.5792 139.171 68.4193C139.106 68.3972 139.043 68.3715 138.982 68.3424C138.712 68.2195 138.455 68.0729 138.211 67.9042C137.772 67.596 137.381 67.225 137.049 66.8032C136.597 66.2274 136.23 65.5895 135.96 64.9093C135.594 64.9605 135.226 64.9861 134.858 64.9861C133.988 65.0033 133.125 64.8317 132.328 64.4831C132.142 64.3994 131.963 64.3025 131.791 64.1933C131.631 64.0923 131.478 63.9797 131.323 63.8614C131 62.3493 130.843 60.8066 130.855 59.2606C130.855 46.9962 139.474 32.0799 150.109 25.9475C151.467 25.1533 152.907 24.5084 154.404 24.0241C154.807 24.1896 155.185 24.4086 155.53 24.6754C155.894 24.9553 156.222 25.2792 156.507 25.6398C156.959 26.2191 157.328 26.8587 157.603 27.5399C157.968 27.4887 158.336 27.463 158.705 27.4631C159.716 27.4365 160.716 27.6796 161.602 28.1675C161.828 28.2874 162.042 28.4281 162.242 28.5878C162.164 28.2269 162.075 27.8776 161.974 27.5399C161.575 26.0517 160.909 24.6484 160.007 23.3988Z" fill="#263238"/>
<path d="M163.704 24.5999C163.603 24.5409 163.502 24.4878 163.402 24.4342C162.344 23.8824 161.193 23.5313 160.007 23.3988C158.734 23.2576 157.447 23.3155 156.192 23.5703C155.588 23.6886 154.991 23.8407 154.403 24.0259C152.906 24.5102 151.466 25.1551 150.108 25.9493C139.473 32.0808 130.854 46.9998 130.854 59.2624C130.842 60.8084 130.999 62.3511 131.322 63.8631C131.381 64.1356 131.446 64.396 131.517 64.6564C131.915 66.2369 132.606 67.7287 133.555 69.0544C133.977 69.6379 134.464 70.1719 135.006 70.6464C135.352 70.9518 135.721 71.2309 136.108 71.4812C139.615 73.7423 144.586 73.5471 150.102 70.3681C160.736 64.2361 169.356 49.3198 169.356 37.0554C169.356 30.9096 167.191 26.6006 163.704 24.5999ZM161.603 28.1693C161.829 28.2891 162.043 28.4299 162.243 28.5896C162.582 28.8604 162.89 29.1681 163.161 29.5071C164.5 31.1879 165.211 33.7983 165.211 37.0537C165.211 47.7909 157.343 61.4051 148.031 66.7795C145.684 68.1352 143.426 68.8512 141.508 68.8512C140.708 68.8649 139.915 68.718 139.173 68.4192C139.109 68.3971 139.046 68.3715 138.984 68.3424C138.715 68.2195 138.457 68.0729 138.214 67.9042C137.913 67.6928 137.635 67.4508 137.384 67.1819H137.379C137.266 67.0636 137.159 66.9336 137.052 66.8032C136.6 66.2273 136.233 65.5895 135.963 64.9093C135.279 63.1069 134.953 61.1891 135.002 59.2624C135.002 59.1203 135.002 58.9783 135.015 58.8304C135.21 48.158 142.995 34.8341 152.182 29.5366C152.395 29.4124 152.608 29.294 152.822 29.1815C154.305 28.3548 155.924 27.7995 157.603 27.5417C157.968 27.4905 158.336 27.4648 158.705 27.4649C159.499 27.4521 160.289 27.597 161.027 27.891C161.226 27.9679 161.419 28.061 161.603 28.1693Z" fill="#455A64"/>
<path d="M165.209 37.0537C165.209 47.7909 157.34 61.4051 148.028 66.7795C147.463 67.1076 146.881 67.4057 146.285 67.6729C146.282 67.6761 146.277 67.6782 146.273 67.6787C144.783 68.3979 143.158 68.7971 141.504 68.8507C140.705 68.8645 139.911 68.7176 139.169 68.4188C139.105 68.3967 139.042 68.3711 138.98 68.342C138.711 68.2191 138.453 68.0724 138.21 67.9038C137.771 67.5955 137.379 67.2245 137.048 66.8027C136.93 66.6491 136.811 66.495 136.704 66.3234C136.912 66.3413 137.131 66.3529 137.356 66.3529C139.275 66.3529 141.532 65.6382 143.878 64.2812C153.192 58.9068 161.059 45.2931 161.059 34.5559C161.059 31.602 160.473 29.181 159.36 27.4984C160.148 27.5493 160.914 27.7784 161.6 28.1684C161.826 28.2883 162.04 28.429 162.24 28.5887C162.579 28.8595 162.887 29.1672 163.158 29.5062C164.337 30.986 165.03 33.1819 165.172 35.9048C165.197 36.2796 165.209 36.6633 165.209 37.0537Z" fill="#37474F"/>
<path opacity="0.6" d="M163.414 35.8168C163.414 46.554 155.545 60.1678 146.233 65.5426C143.887 66.8978 141.628 67.6143 139.71 67.6143C138.913 67.6281 138.121 67.4811 137.382 67.1819H137.376C137.264 67.0636 137.157 66.9336 137.05 66.8031C136.598 66.2273 136.231 65.5895 135.961 64.9092C135.277 63.1069 134.951 61.189 135 59.2624C135 59.1203 135 58.9783 135.012 58.8304C135.208 48.158 142.992 34.8341 152.18 29.5365C152.393 29.4124 152.606 29.294 152.819 29.1814C154.303 28.3548 155.922 27.7995 157.6 27.5417C157.966 27.4905 158.334 27.4648 158.702 27.4649C159.497 27.4521 160.286 27.5969 161.025 27.891C161.143 28.0094 161.256 28.1398 161.363 28.2698C162.702 29.9506 163.414 32.5614 163.414 35.8168Z" fill="white"/>
</svg>
