<svg width="194" height="189" viewBox="0 0 194 189" fill="none" xmlns="http://www.w3.org/2000/svg">
<g clip-path="url(#clip0_119_3626)">
<path d="M165.364 92.8818C127.36 70.894 65.9454 70.8944 28.1887 92.8818C-9.56787 114.869 -9.36969 150.521 28.6339 172.508C66.6375 194.496 128.057 194.497 165.815 172.508C203.574 150.519 203.37 114.871 165.364 92.8818Z" fill="#F5F5F5"/>
<path d="M88.3574 175.398L96.3472 183.034L118.655 175.195L110.663 167.561L88.3574 175.398Z" fill="#E0E0E0"/>
<path d="M48.4421 148.42L51.6964 150.301L62.5266 143.994L44.0021 133.277L33.1711 139.585L37.9228 142.334L30.3958 143.437L36.8743 158.133L51.7628 155.95L48.4421 148.42Z" fill="#E0E0E0"/>
<path d="M146.155 134.521L167.336 125.693L158.347 118.442L141.45 125.484L141.116 121.582L141.729 121.726L147.465 113.459L126.066 108.426L141.571 99.4545L130.74 93.1475L112.216 103.866L121.991 109.56L117.504 116.027L125.819 117.983L115.027 118.272L119.804 108.733L105.048 106.217L100.371 115.55L75.033 116.229L75.6668 123.675L69.0572 122.106L63.2825 130.363L81.6668 134.725L61.2085 135.809L62.6533 144.691L86.7406 143.416L86.9859 144.025L73.2273 145.46L74.8545 150.627L61.7897 154.921L62.6775 155.827L59.0135 154.601L46.0276 167.728L59.3586 172.19L69.0798 162.365L74.7155 168.118L87.1278 164.038L86.0948 165.083L99.4257 169.544L108.532 160.34L109.769 161.061L126.89 151.156L139.671 146.634L130.637 138.057L130.851 138.141L139.431 130.755L129.403 126.817L138.857 126.564L137.164 127.269L146.155 134.521ZM112.52 123.276L114.742 118.838L115.22 124.444L113.2 126.182L108.023 122.509L112.52 123.276ZM101.874 124.439L101.617 121.418L106.568 122.261L92.497 128.936L93.2563 127.849L81.2175 124.991L101.874 124.439ZM102.054 152.949L99.0811 151.954L92.8646 158.237L90.2615 149.974L112.312 147.014L102.054 152.949ZM84.1555 159.728L92.2241 158.887L87.7561 163.402L84.1555 159.728ZM114.488 145.756L111.351 137.984L88.2906 141.078L87.482 136.106L89.4788 133.252L96.791 138.438L112.562 130.954L122.594 134.894L112.925 138.315L121.296 146.263L117.465 144.031L114.488 145.756Z" fill="#E0E0E0"/>
<path d="M116.808 172.08L131.88 173.849L136.978 158.992L121.908 157.224L116.808 172.08Z" fill="#E0E0E0"/>
<path d="M135.865 141.42C143.369 137.079 155.496 137.079 162.952 141.42C170.408 145.762 170.368 152.801 162.864 157.143C155.36 161.484 143.233 161.485 135.777 157.143C128.321 152.801 128.361 145.762 135.865 141.42Z" fill="#E0E0E0"/>
<path d="M103.004 104.184L58.6155 130.048C58.0921 130.353 57.4975 130.514 56.892 130.515C56.2865 130.516 55.6916 130.356 55.1672 130.053L32.516 116.941C32.3856 116.865 32.2774 116.757 32.2022 116.626C32.127 116.495 32.0874 116.347 32.0874 116.196C32.0874 116.045 32.127 115.896 32.2022 115.765C32.2774 115.635 32.3856 115.526 32.516 115.45L76.9001 89.5857C77.4236 89.2806 78.0182 89.1195 78.6238 89.1186C79.2294 89.1177 79.8245 89.2771 80.3489 89.5807L103.002 102.692C103.132 102.768 103.241 102.876 103.317 103.007C103.392 103.138 103.432 103.287 103.432 103.438C103.433 103.589 103.393 103.738 103.318 103.869C103.243 104 103.134 104.109 103.004 104.184Z" fill="#E0E0E0"/>
<path d="M56.9129 119.982L56.8862 129.447L101.675 103.362L101.702 93.8965L56.9129 119.982Z" fill="#313A46"/>
<path d="M49.2053 106.599L33.5963 97.5682L33.5442 115.941L56.8859 129.445L56.913 119.98C53.9036 114.755 52.2143 111.825 49.2053 106.599Z" fill="#313A46"/>
<path opacity="0.3" d="M49.2053 106.599L33.5963 97.5682L33.5442 115.941L56.8859 129.445L56.913 119.98C53.9036 114.755 52.2143 111.825 49.2053 106.599Z" fill="black"/>
<path d="M56.913 119.982L101.702 93.8965C98.6925 88.6702 97.0036 85.7415 93.9942 80.5173L49.2053 106.599C52.2143 111.825 53.9036 114.755 56.913 119.982Z" fill="#313A46"/>
<path opacity="0.1" d="M56.913 119.982L101.702 93.8965C98.6925 88.6702 97.0036 85.7415 93.9942 80.5173L49.2053 106.599C52.2143 111.825 53.9036 114.755 56.913 119.982Z" fill="black"/>
<g opacity="0.5">
<path d="M93.8085 86.701L96.4345 92.2391C96.4758 92.313 96.4887 92.3994 96.4709 92.4822C96.4531 92.565 96.4057 92.6383 96.3377 92.6886L88.9421 96.9674C88.9058 96.9841 88.8664 96.993 88.8265 96.9936C88.7865 96.9941 88.7469 96.9862 88.7102 96.9704C88.6735 96.9547 88.6405 96.9314 88.6133 96.9021C88.5861 96.8727 88.5654 96.838 88.5524 96.8002L85.9394 91.2813C85.9257 91.2507 85.9152 91.2187 85.9081 91.1859C85.9002 91.1493 85.8974 91.1117 85.8997 91.0743C85.903 91.0422 85.9096 91.0106 85.9193 90.9798C85.9303 90.95 85.9453 90.9218 85.964 90.8962C85.9844 90.8707 86.0089 90.8488 86.0366 90.8314L93.4322 86.5526C93.4545 86.5403 93.4786 86.5317 93.5035 86.5271C93.5341 86.522 93.5652 86.522 93.5958 86.5271C93.6224 86.5336 93.648 86.5438 93.6717 86.5576C93.7017 86.5744 93.7291 86.5955 93.753 86.6203C93.7745 86.645 93.7931 86.6721 93.8085 86.701ZM95.802 92.2124L93.6462 87.6605L92.0579 92.8123C92.039 92.8796 91.9953 92.9372 91.9356 92.9733C91.9089 92.989 91.8792 92.999 91.8484 93.0029C91.8177 93.0067 91.7864 93.0042 91.7567 92.9955L86.7225 91.627L88.892 96.2098L95.8012 92.2124M93.0475 87.5614L87.0425 91.0358L91.5956 92.2738L93.0475 87.5614Z" fill="white"/>
</g>
<path d="M93.9963 80.5157L78.3874 71.4847L33.5964 97.5682L49.2054 106.599L93.9963 80.5157Z" fill="#313A46"/>
<path opacity="0.2" d="M93.9963 80.5157L78.3874 71.4847L33.5964 97.5682L49.2054 106.599L93.9963 80.5157Z" fill="black"/>
<path opacity="0.2" d="M78.3853 71.4852L33.5964 97.5682L43.1462 103.093L87.9354 77.0099L78.3853 71.4852Z" fill="black"/>
<path d="M67.7633 98.7811L52.7246 107.539L57.8535 116.444L72.8921 107.687L67.7633 98.7811Z" fill="#455A64"/>
<g opacity="0.5">
<path d="M64.383 107.663L63.7626 108.022L62.511 105.79L63.4405 105.252L64.383 107.663Z" fill="white"/>
<path d="M64.2139 108.134C64.2773 108.098 64.348 108.075 64.421 108.069C64.4941 108.063 64.5676 108.073 64.6363 108.098C64.705 108.124 64.7672 108.164 64.8184 108.217C64.8697 108.269 64.9087 108.333 64.9327 108.402C65.0077 108.539 65.0282 108.699 64.99 108.851C64.9519 109.002 64.8579 109.134 64.7271 109.219C64.6621 109.254 64.5903 109.275 64.5165 109.28C64.4426 109.285 64.3686 109.275 64.2994 109.248C64.2302 109.222 64.1674 109.181 64.1155 109.128C64.0636 109.075 64.0237 109.012 63.9986 108.942C63.9241 108.806 63.905 108.645 63.945 108.495C63.9851 108.345 64.0814 108.216 64.2139 108.134Z" fill="white"/>
<path d="M67.1817 106.998C67.3563 107.142 67.4971 107.323 67.5941 107.528C67.6912 107.733 67.7421 107.957 67.7432 108.184C67.7578 108.392 67.7164 108.6 67.6232 108.787C67.53 108.974 67.3884 109.132 67.2134 109.245L63.3257 111.494C63.1536 111.589 62.9562 111.628 62.7608 111.606C62.5655 111.584 62.3818 111.502 62.2351 111.37C62.06 111.227 61.9188 111.046 61.8217 110.841C61.7246 110.636 61.674 110.412 61.6735 110.185L61.5947 104.791C61.58 104.583 61.6215 104.375 61.7147 104.188C61.8079 104.001 61.9494 103.843 62.1245 103.73C62.2968 103.636 62.4941 103.597 62.6894 103.619C62.8846 103.641 63.0682 103.723 63.2152 103.853L67.1817 106.998ZM67.3068 108.134C67.3064 107.998 67.276 107.864 67.2177 107.741C67.1594 107.618 67.0747 107.509 66.9697 107.423L63.004 104.279C62.9163 104.2 62.8061 104.15 62.6889 104.137C62.5716 104.124 62.4531 104.147 62.3498 104.204C62.2447 104.272 62.1596 104.367 62.1036 104.479C62.0477 104.592 62.0227 104.717 62.0315 104.842L62.1095 110.235C62.1107 110.371 62.1414 110.505 62.1997 110.628C62.2579 110.751 62.3422 110.859 62.4466 110.946C62.5348 111.025 62.6452 111.074 62.7626 111.087C62.88 111.101 62.9986 111.077 63.1021 111.02L66.9897 108.771C67.0946 108.703 67.1794 108.608 67.2352 108.496C67.291 108.384 67.3157 108.259 67.3068 108.134Z" fill="white"/>
</g>
<path d="M74.0595 107.005L68.9307 98.0996L67.7625 98.7794L72.8913 107.685L74.0595 107.005Z" fill="#313A46"/>
<path opacity="0.3" d="M74.0595 107.005L68.9307 98.0996L67.7625 98.7794L72.8913 107.685L74.0595 107.005Z" fill="black"/>
<path opacity="0.1" d="M57.8534 116.443L72.892 107.685L72.4168 106.891L58.6486 114.909L53.9232 106.84L52.7253 107.537L57.8534 116.443Z" fill="black"/>
<path d="M99.6508 99.8816L98.0767 100.792L99.6558 101.705L99.6508 99.8816Z" fill="#455A64"/>
<path d="M98.0771 100.791L59.1289 123.313L59.1339 125.136L99.6563 101.704L98.0771 100.791Z" fill="#37474F"/>
<path d="M42.4934 32.1455C42.5013 32.1898 42.5146 32.2337 42.5255 32.2776L42.5292 32.2926C42.543 32.3453 42.5564 32.398 42.5747 32.4507C42.5897 32.4925 42.6093 32.5343 42.6277 32.5782L42.6327 32.5903C42.6569 32.6459 42.6811 32.7011 42.7103 32.7576C42.7316 32.7994 42.7575 32.837 42.7817 32.8767L42.7858 32.8843C42.825 32.9474 42.8663 33.0097 42.911 33.072C42.9352 33.1042 42.9611 33.1359 42.9869 33.1677C43.0128 33.1995 43.032 33.2271 43.0579 33.2564C43.0691 33.2693 43.0795 33.2823 43.0912 33.2952C43.1396 33.3488 43.196 33.4002 43.2502 33.452C43.2756 33.4763 43.2982 33.5014 43.3245 33.5256C43.3758 33.572 43.4329 33.6163 43.4888 33.6615C43.521 33.6874 43.5531 33.7138 43.5869 33.7393C43.6065 33.7547 43.6253 33.7706 43.6461 33.7861C43.707 33.8304 43.7742 33.8731 43.8401 33.9157C43.9061 33.9583 43.9761 34.0081 44.0512 34.052L49.0958 36.9896L67.5732 26.2992L62.5303 23.3591C60.3979 22.1174 56.9329 22.1174 54.7871 23.3591L44.078 29.5554C42.9293 30.2197 42.3982 31.1048 42.4742 31.9745V31.9791C42.4796 32.0351 42.4838 32.0903 42.4934 32.1455Z" fill="#455A64"/>
<path opacity="0.5" d="M42.4934 32.1455C42.5013 32.1898 42.5146 32.2337 42.5255 32.2776L42.5292 32.2926C42.543 32.3453 42.5564 32.398 42.5747 32.4507C42.5897 32.4925 42.6093 32.5343 42.6277 32.5782L42.6327 32.5903C42.6569 32.6459 42.6811 32.7011 42.7103 32.7576C42.7316 32.7994 42.7575 32.837 42.7817 32.8767L42.7858 32.8843C42.825 32.9474 42.8663 33.0097 42.911 33.072C42.9352 33.1042 42.9611 33.1359 42.9869 33.1677C43.0128 33.1995 43.032 33.2271 43.0579 33.2564C43.0691 33.2693 43.0795 33.2823 43.0912 33.2952C43.1396 33.3488 43.196 33.4002 43.2502 33.452C43.2756 33.4763 43.2982 33.5014 43.3245 33.5256C43.3758 33.572 43.4329 33.6163 43.4888 33.6615C43.521 33.6874 43.5531 33.7138 43.5869 33.7393C43.6065 33.7547 43.6253 33.7706 43.6461 33.7861C43.707 33.8304 43.7742 33.8731 43.8401 33.9157C43.9061 33.9583 43.9761 34.0081 44.0512 34.052L49.0958 36.9896L67.5732 26.2992L62.5303 23.3591C60.3979 22.1174 56.9329 22.1174 54.7871 23.3591L44.078 29.5554C42.9293 30.2197 42.3982 31.1048 42.4742 31.9745V31.9791C42.4796 32.0351 42.4838 32.0903 42.4934 32.1455Z" fill="white"/>
<path d="M44.0522 34.0507C43.9788 34.0089 43.9137 33.9617 43.8436 33.9174L43.8394 33.9144C43.7735 33.8726 43.7063 33.8308 43.6454 33.7848C43.6245 33.7694 43.6037 33.7535 43.5862 33.738C43.5549 33.7133 43.5232 33.6887 43.4923 33.6636L43.4881 33.6602C43.4322 33.6151 43.375 33.5708 43.3237 33.5244C43.2974 33.5001 43.2749 33.475 43.2495 33.4508C43.1956 33.4002 43.141 33.3496 43.0934 33.2977L43.0905 33.294C43.0788 33.281 43.0684 33.2681 43.0571 33.2551C43.0313 33.2258 43.0096 33.1961 42.9862 33.1665C42.9628 33.1368 42.9357 33.1054 42.9128 33.0745L42.9103 33.0707C42.8644 33.0088 42.8231 32.9453 42.7851 32.883L42.7809 32.8755C42.7571 32.8374 42.7325 32.7994 42.7117 32.7609V32.7563C42.6825 32.7011 42.6583 32.6459 42.6341 32.5891L42.6291 32.5769C42.6111 32.5351 42.5923 32.4963 42.5777 32.4553V32.4494C42.5594 32.3967 42.546 32.3441 42.5323 32.2914L42.5285 32.2763C42.5172 32.2345 42.5051 32.1927 42.4972 32.1509V32.1442C42.4876 32.089 42.4834 32.0338 42.4784 31.977V31.9724C42.4734 31.9201 42.4655 31.8683 42.4651 31.816L42.5143 49.1069C42.5143 49.1232 42.5143 49.1391 42.5143 49.155C42.5143 49.193 42.5239 49.2302 42.5273 49.2678C42.5327 49.3255 42.5364 49.3828 42.5469 49.4405C42.5489 49.4501 42.5469 49.4602 42.5502 49.4698C42.5577 49.507 42.5723 49.5434 42.5819 49.5806C42.5965 49.6354 42.6099 49.6901 42.6291 49.7445C42.6332 49.7558 42.6345 49.7671 42.6387 49.7783C42.6512 49.8122 42.6708 49.8448 42.6854 49.8783C42.71 49.9355 42.735 49.9924 42.7655 50.0493C42.7726 50.0626 42.7767 50.0769 42.7847 50.0911C42.8001 50.1183 42.8218 50.1446 42.8385 50.1714C42.8781 50.2362 42.9219 50.3001 42.9674 50.3633C42.9812 50.3817 42.9904 50.4009 43.005 50.4189C43.0379 50.4607 43.0755 50.5025 43.1118 50.5443C43.1243 50.5581 43.1356 50.5723 43.1481 50.5861C43.2094 50.653 43.2732 50.7195 43.3446 50.7847C43.355 50.7943 43.3679 50.8031 43.3788 50.8127C43.4314 50.8604 43.4898 50.906 43.5457 50.9524C43.5957 50.9942 43.6441 51.0339 43.6984 51.0732C43.7606 51.1188 43.8294 51.1618 43.8966 51.2057C43.9441 51.2367 43.9867 51.2693 44.0367 51.2994L44.1039 51.3412L49.1481 54.2787L49.0993 36.9879L44.0522 34.0507Z" fill="#37474F"/>
<path opacity="0.3" d="M44.0522 34.0507C43.9788 34.0089 43.9137 33.9617 43.8436 33.9174L43.8394 33.9144C43.7735 33.8726 43.7063 33.8308 43.6454 33.7848C43.6245 33.7694 43.6037 33.7535 43.5862 33.738C43.5549 33.7133 43.5232 33.6887 43.4923 33.6636L43.4881 33.6602C43.4322 33.6151 43.375 33.5708 43.3237 33.5244C43.2974 33.5001 43.2749 33.475 43.2495 33.4508C43.1956 33.4002 43.141 33.3496 43.0934 33.2977L43.0905 33.294C43.0788 33.281 43.0684 33.2681 43.0571 33.2551C43.0313 33.2258 43.0096 33.1961 42.9862 33.1665C42.9628 33.1368 42.9357 33.1054 42.9128 33.0745L42.9103 33.0707C42.8644 33.0088 42.8231 32.9453 42.7851 32.883L42.7809 32.8755C42.7571 32.8374 42.7325 32.7994 42.7117 32.7609V32.7563C42.6825 32.7011 42.6583 32.6459 42.6341 32.5891L42.6291 32.5769C42.6111 32.5351 42.5923 32.4963 42.5777 32.4553V32.4494C42.5594 32.3967 42.546 32.3441 42.5323 32.2914L42.5285 32.2763C42.5172 32.2345 42.5051 32.1927 42.4972 32.1509V32.1442C42.4876 32.089 42.4834 32.0338 42.4784 31.977V31.9724C42.4734 31.9201 42.4655 31.8683 42.4651 31.816L42.5143 49.1069C42.5143 49.1232 42.5143 49.1391 42.5143 49.155C42.5143 49.193 42.5239 49.2302 42.5273 49.2678C42.5327 49.3255 42.5364 49.3828 42.5469 49.4405C42.5489 49.4501 42.5469 49.4602 42.5502 49.4698C42.5577 49.507 42.5723 49.5434 42.5819 49.5806C42.5965 49.6354 42.6099 49.6901 42.6291 49.7445C42.6332 49.7558 42.6345 49.7671 42.6387 49.7783C42.6512 49.8122 42.6708 49.8448 42.6854 49.8783C42.71 49.9355 42.735 49.9924 42.7655 50.0493C42.7726 50.0626 42.7767 50.0769 42.7847 50.0911C42.8001 50.1183 42.8218 50.1446 42.8385 50.1714C42.8781 50.2362 42.9219 50.3001 42.9674 50.3633C42.9812 50.3817 42.9904 50.4009 43.005 50.4189C43.0379 50.4607 43.0755 50.5025 43.1118 50.5443C43.1243 50.5581 43.1356 50.5723 43.1481 50.5861C43.2094 50.653 43.2732 50.7195 43.3446 50.7847C43.355 50.7943 43.3679 50.8031 43.3788 50.8127C43.4314 50.8604 43.4898 50.906 43.5457 50.9524C43.5957 50.9942 43.6441 51.0339 43.6984 51.0732C43.7606 51.1188 43.8294 51.1618 43.8966 51.2057C43.9441 51.2367 43.9867 51.2693 44.0367 51.2994L44.1039 51.3412L49.1481 54.2787L49.0993 36.9879L44.0522 34.0507Z" fill="white"/>
<path d="M67.574 26.2979L49.0967 36.9891L49.1455 54.28L67.6229 43.5896L67.574 26.2979Z" fill="#263238"/>
<path d="M29.8489 105.817C29.8435 105.814 29.8372 105.812 29.8318 105.809L29.8489 105.817Z" fill="#FFA8A7"/>
<path d="M29.1481 104.341L29.0346 53.7097C29.0757 52.9257 29.3012 52.1625 29.6928 51.4824C30.0843 50.8024 30.6308 50.2248 31.2876 49.7967L94.0932 13.5526C94.3209 13.3873 94.5879 13.2848 94.8675 13.2555C95.1472 13.2261 95.4296 13.2709 95.6865 13.3854L93.3217 12.0124C92.9079 11.7494 92.325 11.7711 91.6787 12.1453L28.8748 48.3932C28.218 48.8211 27.6715 49.3986 27.2799 50.0786C26.8884 50.7586 26.6629 51.5217 26.6218 52.3057L26.7353 102.937C26.7114 103.204 26.7539 103.473 26.8588 103.72C26.9638 103.966 27.1281 104.183 27.3369 104.35H27.3394C27.3795 104.377 27.4213 104.402 27.4646 104.423L29.7969 105.784C29.5726 105.621 29.3947 105.402 29.2809 105.149C29.1671 104.896 29.1213 104.618 29.1481 104.341Z" fill="#313A46"/>
<path opacity="0.3" d="M93.3214 12.0144C92.9076 11.7515 92.3247 11.7732 91.6784 12.1474L28.8745 48.3932C28.1313 48.8632 27.5333 49.5311 27.1472 50.3223L29.5633 51.7216C29.9495 50.9328 30.5468 50.2669 31.2885 49.7984L94.0929 13.5526C94.3206 13.3873 94.5876 13.2848 94.8672 13.2555C95.1469 13.2261 95.4293 13.2709 95.6862 13.3854L93.3214 12.0144Z" fill="white"/>
<path opacity="0.2" d="M26.6204 52.3057L26.7338 102.937C26.71 103.204 26.7524 103.473 26.8574 103.72C26.9624 103.966 27.1266 104.183 27.3355 104.35H27.338C27.378 104.377 27.4198 104.402 27.4631 104.423L29.7954 105.784C29.5708 105.621 29.3927 105.402 29.2789 105.148C29.1651 104.895 29.1195 104.616 29.1466 104.339L29.0331 53.7076C29.0523 53.0128 29.2334 52.3321 29.5622 51.72L27.1461 50.3206C26.8187 50.9322 26.6387 51.612 26.6204 52.3057Z" fill="black"/>
<path d="M95.7132 13.403L95.7014 13.3962C95.7052 13.3988 95.7086 13.4017 95.7123 13.4038L95.7132 13.403Z" fill="#FFA8A7"/>
<path d="M96.3617 14.8483C96.3887 14.5717 96.343 14.2927 96.229 14.0393C96.1151 13.7859 95.9368 13.5668 95.7121 13.4038C95.7084 13.4017 95.705 13.3988 95.7013 13.3963L95.6862 13.3875C95.4293 13.273 95.1469 13.2282 94.8673 13.2576C94.5876 13.2869 94.3206 13.3894 94.0929 13.5547L31.2881 49.7963C30.6313 50.2244 30.0849 50.802 29.6933 51.482C29.3018 52.1621 29.0762 52.9253 29.0352 53.7093L29.1486 104.341C29.1215 104.618 29.1671 104.897 29.2809 105.15C29.3947 105.404 29.5728 105.623 29.7974 105.786C29.8091 105.793 29.8208 105.8 29.8325 105.806C29.8441 105.813 29.8441 105.812 29.8496 105.815C30.1044 105.922 30.3822 105.961 30.6566 105.93C30.9311 105.899 31.193 105.798 31.4175 105.637L94.221 69.3918C94.8775 68.9635 95.4238 68.3859 95.8153 67.706C96.2068 67.0261 96.4325 66.2631 96.474 65.4792L96.3617 14.8483ZM93.1053 67.4568L31.3762 103.079L31.266 53.7014C31.3085 53.3118 31.4317 52.9355 31.6277 52.5964C31.8237 52.2573 32.0882 51.9629 32.4042 51.7321L94.1334 16.1102L94.2435 65.4875C94.201 65.8771 94.0778 66.2534 93.8818 66.5925C93.6858 66.9316 93.4213 67.226 93.1053 67.4568Z" fill="#313A46"/>
<path d="M94.1334 16.1118L92.5358 17.035L92.6422 64.7057C92.5997 65.0952 92.4765 65.4716 92.2805 65.8107C92.0845 66.1498 91.8201 66.4441 91.5041 66.6749L31.3716 101.373L31.3753 103.078L93.1045 67.4564C93.4206 67.2255 93.685 66.9311 93.881 66.5919C94.077 66.2527 94.2002 65.8763 94.2427 65.4867L94.1334 16.1118Z" fill="#313A46"/>
<path opacity="0.3" d="M94.1334 16.1118L92.5358 17.035L92.6422 64.7057C92.5997 65.0952 92.4765 65.4716 92.2805 65.8107C92.0845 66.1498 91.8201 66.4441 91.5041 66.6749L31.3716 101.373L31.3753 103.078L93.1045 67.4564C93.4206 67.2255 93.685 66.9311 93.881 66.5919C94.077 66.2527 94.2002 65.8763 94.2427 65.4867L94.1334 16.1118Z" fill="black"/>
<path d="M92.6423 64.7057L92.5359 17.035L32.4043 51.7334C32.0883 51.9641 31.8238 52.2585 31.6278 52.5976C31.4318 52.9367 31.3086 53.3131 31.2661 53.7026L31.3717 101.373L91.5041 66.6741C91.8201 66.4434 92.0845 66.1492 92.2805 65.8102C92.4764 65.4713 92.5997 65.0951 92.6423 64.7057Z" fill="#455A64"/>
<g opacity="0.5">
<path d="M72.1069 62.134L72.1119 63.9268L53.796 74.5231L53.791 72.7303L72.1069 62.134Z" fill="white"/>
<path d="M55.5546 56.7309L56.6577 57.3635L54.0985 61.8058L56.6744 63.2771L55.5788 65.179L53.0029 63.7077L50.4428 68.15L49.3376 67.5228L51.8989 63.0785L49.323 61.6072L50.4211 59.7011L52.997 61.1724L55.5546 56.7309Z" fill="white"/>
<path d="M75.3954 45.2516L76.4985 45.8842L73.9393 50.3265L76.5152 51.7977L75.4196 53.6997L72.8437 52.2284L70.2845 56.6707L69.1793 56.0435L71.7385 51.6012L69.1626 50.13L70.2607 48.2239L72.8366 49.6951L75.3954 45.2516Z" fill="white"/>
</g>
<path d="M53.4668 22.2415L51.682 18.8194L51.6736 18.7705L52.2577 14.9001C52.3086 14.5732 52.259 14.2385 52.1156 13.9404C51.9721 13.6424 51.7416 13.3951 51.4546 13.2315L43.4148 8.60025C43.2357 8.49701 43.023 8.4693 42.8235 8.5232C42.624 8.57711 42.4541 8.70822 42.3511 8.88769C42.248 9.06716 42.2204 9.28029 42.2742 9.48019C42.328 9.68009 42.4588 9.85039 42.6379 9.95363L50.6756 14.5866L50.7173 14.6702L50.1332 18.5405C50.0815 18.8843 50.1399 19.2356 50.3001 19.544L52.085 22.9653L52.0879 23.0342L49.5295 29.1803C49.446 29.3809 49.4034 29.5963 49.4044 29.8137V30.9873C49.4019 31.0614 49.4217 31.1346 49.4613 31.1972C49.5009 31.2598 49.5584 31.3091 49.6263 31.3385C49.7975 31.4257 49.9869 31.4712 50.1789 31.4712C50.371 31.4712 50.5603 31.4257 50.7315 31.3385C50.7949 31.3102 50.8496 31.2656 50.8902 31.2092C50.9307 31.1528 50.9556 31.0866 50.9622 31.0174L50.9685 29.7823L53.5273 23.6363C53.6202 23.4137 53.663 23.1732 53.6525 22.9321C53.642 22.6911 53.5786 22.4552 53.4668 22.2415Z" fill="#313A46"/>
<path d="M55.6927 18.2955V18.2416L56.6844 15.3513C56.7792 15.0752 56.7986 14.7787 56.7407 14.4925L55.303 7.37565C55.2621 7.17257 55.1424 6.99407 54.9702 6.87944C54.798 6.7648 54.5874 6.72342 54.3847 6.76439C54.182 6.80537 54.0039 6.92534 53.8895 7.09792C53.7751 7.27049 53.7338 7.48154 53.7747 7.68463L55.2112 14.8441L54.2195 17.7345C54.0972 18.0916 54.1015 18.4801 54.2316 18.8345L55.2366 21.5697V21.6215L53.6775 26.6889C53.6291 26.8457 53.6045 27.0089 53.6045 27.173V28.2743C53.6104 28.3432 53.6346 28.4093 53.6746 28.4657C53.7146 28.522 53.7689 28.5667 53.8319 28.595C54.003 28.6824 54.1924 28.7279 54.3845 28.7279C54.5766 28.7279 54.7659 28.6824 54.9371 28.595C55.0057 28.5658 55.0639 28.5165 55.1041 28.4536C55.1443 28.3907 55.1646 28.3172 55.1624 28.2425L55.1657 27.1492L56.7253 22.0814C56.831 21.7374 56.8211 21.3681 56.6969 21.0303L55.6927 18.2955Z" fill="#455A64"/>
<path d="M69.6979 11.3923H66.9989C66.7295 11.3923 66.4641 11.4588 66.2264 11.5861C65.9887 11.7133 65.7861 11.8974 65.6363 12.1219L64.1281 14.3842L64.0797 14.4177L62.0996 14.8864C61.8515 14.9443 61.6205 15.0596 61.4249 15.223C61.2293 15.3864 61.0745 15.5935 60.9731 15.8275C60.8229 16.189 60.8001 16.591 60.9084 16.9673L61.132 17.8035C61.1349 17.8139 61.1356 17.8247 61.1342 17.8354C61.1328 17.8461 61.1292 17.8565 61.1237 17.8657C61.1182 17.875 61.1109 17.8831 61.1022 17.8895C61.0936 17.8959 61.0837 17.9005 61.0732 17.903L60.4661 18.0539C60.1898 18.1228 59.9362 18.2628 59.7303 18.46C59.5244 18.6571 59.3734 18.9047 59.2921 19.1782L57.4121 25.4772C57.3664 25.6301 57.3432 25.7888 57.3433 25.9484V26.9218H57.3458C57.3517 26.9907 57.3758 27.0568 57.4157 27.1132C57.4556 27.1696 57.5098 27.2144 57.5727 27.2429C57.7439 27.3301 57.9333 27.3755 58.1253 27.3755C58.3174 27.3755 58.5067 27.3301 58.6779 27.2429C58.7496 27.2131 58.8099 27.1612 58.8501 27.0948C58.8902 27.0283 58.9081 26.9507 58.9012 26.8733L58.9045 25.9246L60.7857 19.6264L60.8437 19.5712L61.4508 19.4198C61.6968 19.3593 61.9253 19.2423 62.1183 19.0779C62.3113 18.9135 62.4634 18.7064 62.5627 18.4728C62.7088 18.114 62.73 17.7163 62.6227 17.344L62.3995 16.5078C62.3967 16.4973 62.396 16.4863 62.3975 16.4755C62.399 16.4647 62.4027 16.4544 62.4083 16.4451C62.4138 16.4356 62.4212 16.4274 62.43 16.421C62.4389 16.4146 62.4489 16.4101 62.4596 16.4078L64.4393 15.9392C64.8425 15.8439 65.1947 15.599 65.4248 15.2539L66.9334 12.9916L67.0006 12.9556H69.6996C69.8034 12.958 69.9066 12.9396 70.0032 12.9015C70.0998 12.8633 70.1878 12.8062 70.262 12.7335C70.3363 12.6608 70.3953 12.574 70.4356 12.4781C70.4758 12.3822 70.4966 12.2793 70.4966 12.1752C70.4966 12.0712 70.4758 11.9682 70.4356 11.8723C70.3953 11.7765 70.3363 11.6896 70.262 11.6169C70.1878 11.5442 70.0998 11.4871 70.0032 11.449C69.9066 11.4108 69.8034 11.3924 69.6996 11.3948L69.6979 11.3923Z" fill="#313A46"/>
<g opacity="0.1">
<path d="M53.4668 22.2415L51.682 18.8194L51.6736 18.7705L52.2577 14.9001C52.3086 14.5732 52.259 14.2385 52.1156 13.9404C51.9721 13.6424 51.7416 13.3951 51.4546 13.2315L43.4148 8.60025C43.2357 8.49701 43.023 8.4693 42.8235 8.5232C42.624 8.57711 42.4541 8.70822 42.3511 8.88769C42.248 9.06716 42.2204 9.28029 42.2742 9.48019C42.328 9.68009 42.4588 9.85039 42.6379 9.95363L50.6756 14.5866L50.7173 14.6702L50.1332 18.5405C50.0815 18.8843 50.1399 19.2356 50.3001 19.544L52.085 22.9653L52.0879 23.0342L49.5295 29.1803C49.446 29.3809 49.4034 29.5963 49.4044 29.8137V30.9873C49.4019 31.0614 49.4217 31.1346 49.4613 31.1972C49.5009 31.2598 49.5584 31.3091 49.6263 31.3385C49.7975 31.4257 49.9869 31.4712 50.1789 31.4712C50.371 31.4712 50.5603 31.4257 50.7315 31.3385C50.7949 31.3102 50.8496 31.2656 50.8902 31.2092C50.9307 31.1528 50.9556 31.0866 50.9622 31.0174L50.9685 29.7823L53.5273 23.6363C53.6202 23.4137 53.663 23.1732 53.6525 22.9321C53.642 22.6911 53.5786 22.4552 53.4668 22.2415Z" fill="white"/>
<path d="M55.6927 18.2955V18.2416L56.6844 15.3513C56.7792 15.0752 56.7986 14.7787 56.7407 14.4925L55.303 7.37565C55.2621 7.17257 55.1424 6.99407 54.9702 6.87944C54.798 6.7648 54.5874 6.72342 54.3847 6.76439C54.182 6.80537 54.0039 6.92534 53.8895 7.09792C53.7751 7.27049 53.7338 7.48154 53.7747 7.68463L55.2112 14.8441L54.2195 17.7345C54.0972 18.0916 54.1015 18.4801 54.2316 18.8345L55.2366 21.5697V21.6215L53.6775 26.6889C53.6291 26.8457 53.6045 27.0089 53.6045 27.173V28.2743C53.6104 28.3432 53.6346 28.4093 53.6746 28.4657C53.7146 28.522 53.7689 28.5667 53.8319 28.595C54.003 28.6824 54.1924 28.7279 54.3845 28.7279C54.5766 28.7279 54.7659 28.6824 54.9371 28.595C55.0057 28.5658 55.0639 28.5165 55.1041 28.4536C55.1443 28.3907 55.1646 28.3172 55.1624 28.2425L55.1657 27.1492L56.7253 22.0814C56.831 21.7374 56.8211 21.3681 56.6969 21.0303L55.6927 18.2955Z" fill="white"/>
<path d="M69.6979 11.3923H66.9989C66.7295 11.3923 66.4641 11.4588 66.2264 11.5861C65.9887 11.7133 65.7861 11.8974 65.6363 12.1219L64.1281 14.3842L64.0797 14.4177L62.0996 14.8864C61.8515 14.9443 61.6205 15.0596 61.4249 15.223C61.2293 15.3864 61.0745 15.5935 60.9731 15.8275C60.8229 16.189 60.8001 16.591 60.9084 16.9673L61.132 17.8035C61.1349 17.8139 61.1356 17.8247 61.1342 17.8354C61.1328 17.8461 61.1292 17.8565 61.1237 17.8657C61.1182 17.875 61.1109 17.8831 61.1022 17.8895C61.0936 17.8959 61.0837 17.9005 61.0732 17.903L60.4661 18.0539C60.1898 18.1228 59.9362 18.2628 59.7303 18.46C59.5244 18.6571 59.3734 18.9047 59.2921 19.1782L57.4121 25.4772C57.3664 25.6301 57.3432 25.7888 57.3433 25.9484V26.9218H57.3458C57.3517 26.9907 57.3758 27.0568 57.4157 27.1132C57.4556 27.1696 57.5098 27.2144 57.5727 27.2429C57.7439 27.3301 57.9333 27.3755 58.1253 27.3755C58.3174 27.3755 58.5067 27.3301 58.6779 27.2429C58.7496 27.2131 58.8099 27.1612 58.8501 27.0948C58.8902 27.0283 58.9081 26.9507 58.9012 26.8733L58.9045 25.9246L60.7857 19.6264L60.8437 19.5712L61.4508 19.4198C61.6968 19.3593 61.9253 19.2423 62.1183 19.0779C62.3113 18.9135 62.4634 18.7064 62.5627 18.4728C62.7088 18.114 62.73 17.7163 62.6227 17.344L62.3995 16.5078C62.3967 16.4973 62.396 16.4863 62.3975 16.4755C62.399 16.4647 62.4027 16.4544 62.4083 16.4451C62.4138 16.4356 62.4212 16.4274 62.43 16.421C62.4389 16.4146 62.4489 16.4101 62.4596 16.4078L64.4393 15.9392C64.8425 15.8439 65.1947 15.599 65.4248 15.2539L66.9334 12.9916L67.0006 12.9556H69.6996C69.8034 12.958 69.9066 12.9396 70.0032 12.9015C70.0998 12.8633 70.1878 12.8062 70.262 12.7335C70.3363 12.6608 70.3953 12.574 70.4356 12.4781C70.4758 12.3822 70.4966 12.2793 70.4966 12.1752C70.4966 12.0712 70.4758 11.9682 70.4356 11.8723C70.3953 11.7765 70.3363 11.6896 70.262 11.6169C70.1878 11.5442 70.0998 11.4871 70.0032 11.449C69.9066 11.4108 69.8034 11.3924 69.6996 11.3948L69.6979 11.3923Z" fill="white"/>
</g>
<path d="M29.1541 1.71753L33.6663 6.91198L36.7996 5.06273L40.4711 13.8382L36.2113 7.61606L32.8794 9.85874L29.1541 1.71753Z" fill="#313A46"/>
<path d="M50.5754 0L48.4797 4.1998L50.5754 4.52298L48.8561 8.77672L52.4562 3.87661L49.6083 3.39203L50.5754 0Z" fill="#313A46"/>
<path d="M68.9516 1.41443L68.0918 6.40777L66.3724 5.76181L65.4771 10.8233L66.8739 6.94629L68.8081 7.77203L68.9516 1.41443Z" fill="#313A46"/>
<path d="M71.71 10.2844L75.1662 7.24816V8.76753L77.6562 7.01904L74.3059 10.6285L74.3964 8.49618L71.71 10.2844Z" fill="#313A46"/>
<path d="M70.4766 14.8446L73.501 17.7391L74.0742 16.1118L77.334 18.6485L73.9053 14.342L73.2861 16.4961L70.4766 14.8446Z" fill="#313A46"/>
<path d="M46.4687 21.0178L41.8705 22.7408L43.4897 23.98L39.9363 26.035L45.7394 24.4629L44.0021 23.0627L46.4687 21.0178Z" fill="#313A46"/>
<g opacity="0.5">
<path d="M29.1541 1.71753L33.6663 6.91198L36.7996 5.06273L40.4711 13.8382L36.2113 7.61606L32.8794 9.85874L29.1541 1.71753Z" fill="white"/>
<path d="M50.5754 0L48.4797 4.1998L50.5754 4.52298L48.8561 8.77672L52.4562 3.87661L49.6083 3.39203L50.5754 0Z" fill="white"/>
<path d="M68.9516 1.41443L68.0918 6.40777L66.3724 5.76181L65.4771 10.8233L66.8739 6.94629L68.8081 7.77203L68.9516 1.41443Z" fill="white"/>
<path d="M71.71 10.2844L75.1662 7.24816V8.76753L77.6562 7.01904L74.3059 10.6285L74.3964 8.49618L71.71 10.2844Z" fill="white"/>
<path d="M70.4766 14.8446L73.501 17.7391L74.0742 16.1118L77.334 18.6485L73.9053 14.342L73.2861 16.4961L70.4766 14.8446Z" fill="white"/>
<path d="M46.4687 21.0178L41.8705 22.7408L43.4897 23.98L39.9363 26.035L45.7394 24.4629L44.0021 23.0627L46.4687 21.0178Z" fill="white"/>
</g>
<path d="M111.349 136.595L85.9246 140.005L89.4292 148.697L114.854 145.284L111.349 136.595Z" fill="#313A46"/>
<path opacity="0.2" d="M111.349 136.595L101.486 144.133L85.9238 140.005L111.349 136.595Z" fill="white"/>
<path opacity="0.1" d="M111.349 136.595L114.854 145.284L89.4314 148.697L85.9268 140.005L101.489 144.133L111.349 136.595Z" fill="white"/>
<path d="M123.237 106.374L117.503 114.639L141.731 120.337L147.465 112.072L123.237 106.374Z" fill="#313A46"/>
<path opacity="0.3" d="M147.465 112.072L131.907 114.935L123.237 106.374L147.465 112.072Z" fill="white"/>
<path opacity="0.1" d="M147.465 112.072L141.731 120.337L117.503 114.639L123.237 106.374L131.907 114.935L147.465 112.072Z" fill="white"/>
<path d="M68.2605 120.86L62.5266 129.125L86.7549 134.824L92.4888 126.559L68.2605 120.86Z" fill="#313A46"/>
<path opacity="0.3" d="M92.4888 126.559L76.9315 129.422L68.2605 120.86L92.4888 126.559Z" fill="white"/>
<path opacity="0.1" d="M92.4888 126.559L86.7549 134.824L62.5266 129.126L68.2605 120.86L76.9315 129.422L92.4888 126.559Z" fill="white"/>
<path d="M158.347 117.055L137.166 125.883L146.155 133.134L167.336 124.307L158.347 117.055Z" fill="#313A46"/>
<path opacity="0.5" d="M158.347 117.055L154.246 126.224L137.166 125.883L158.347 117.055Z" fill="white"/>
<path opacity="0.3" d="M158.347 117.055L167.336 124.307L146.155 133.134L137.166 125.883L154.246 126.224L158.347 117.055Z" fill="white"/>
<path d="M117.771 120.86L109.19 128.244L130.852 136.75L139.433 129.366L117.771 120.86Z" fill="#313A46"/>
<path opacity="0.2" d="M139.431 129.366L123.184 130.279L117.771 120.86L139.431 129.366Z" fill="white"/>
<path opacity="0.1" d="M139.431 129.366L130.85 136.75L109.19 128.244L117.771 120.86L123.185 130.279L139.431 129.366Z" fill="white"/>
<path d="M136.978 157.604L121.908 155.835L116.81 170.691L131.882 172.46L136.978 157.604Z" fill="#313A46"/>
<path opacity="0.5" d="M121.908 155.835L129.677 164.189L116.81 170.691L121.908 155.835Z" fill="white"/>
<path opacity="0.3" d="M131.879 172.46L116.807 170.691L129.674 164.189L121.908 155.835L136.98 157.604L131.879 172.46Z" fill="white"/>
<path d="M110.663 166.171L88.3574 174.009L96.3472 181.646L118.655 173.806L110.663 166.171Z" fill="#313A46"/>
<path opacity="0.5" d="M110.663 166.171L105.344 175.126L88.3582 174.009L110.663 166.171Z" fill="white"/>
<path opacity="0.3" d="M110.663 166.171L118.656 173.806L96.3479 181.646L88.3582 174.009L105.344 175.126L110.663 166.171Z" fill="white"/>
<path d="M130.741 91.7603L112.216 102.478L123.046 108.785L141.571 98.0669L130.741 91.7603Z" fill="#313A46"/>
<path opacity="0.5" d="M112.215 102.479L128.481 101.596L130.741 91.7611L112.215 102.479Z" fill="white"/>
<path opacity="0.3" d="M112.215 102.479L123.045 108.786L141.57 98.0677L130.741 91.7603L128.481 101.596L112.215 102.479Z" fill="white"/>
<path d="M106.288 120.668L86.8877 129.696L97.1162 136.942L116.517 127.915L106.288 120.668Z" fill="#313A46"/>
<path opacity="0.6" d="M86.8862 129.695L103.165 130.263L106.288 120.668L86.8862 129.695Z" fill="white"/>
<path opacity="0.4" d="M86.8862 129.695L97.1148 136.941L116.515 127.914L106.287 120.668L103.164 130.263L86.8862 129.695Z" fill="white"/>
<path d="M140.777 116.194L114.695 116.892L115.453 125.802L141.536 125.103L140.777 116.194Z" fill="#313A46"/>
<path opacity="0.5" d="M140.777 116.194L128.733 122.574L114.695 116.893L140.777 116.194Z" fill="white"/>
<path opacity="0.3" d="M140.777 116.194L141.536 125.103L115.453 125.802L114.695 116.892L128.733 122.574L140.777 116.194Z" fill="white"/>
<path d="M101.116 114.141L75.0332 114.839L75.7917 123.749L101.874 123.05L101.116 114.141Z" fill="#313A46"/>
<path opacity="0.5" d="M101.116 114.141L89.0726 120.521L75.0332 114.839L101.116 114.141Z" fill="white"/>
<path opacity="0.3" d="M101.116 114.141L101.874 123.051L75.7917 123.749L75.0332 114.839L89.0726 120.521L101.116 114.141Z" fill="white"/>
<path d="M112.412 155.027L99.0809 150.566L86.095 163.691L99.4259 168.153L112.412 155.027Z" fill="#313A46"/>
<path opacity="0.2" d="M99.0809 150.566L101.872 159.914L86.095 163.691L99.0809 150.566Z" fill="white"/>
<path opacity="0.1" d="M99.4259 168.153L86.095 163.691L101.872 159.914L99.0809 150.566L112.412 155.028L99.4259 168.153Z" fill="white"/>
<path d="M105.046 104.828L97.7607 119.371L112.52 121.887L119.802 107.345L105.046 104.828Z" fill="#313A46"/>
<path opacity="0.5" d="M105.046 104.828L111.548 113.537L97.7607 119.371L105.046 104.828Z" fill="white"/>
<path opacity="0.3" d="M112.521 121.887L97.7615 119.371L111.549 113.537L105.047 104.828L119.803 107.345L112.521 121.887Z" fill="white"/>
<path d="M126.03 132.292L112.925 136.928L126.568 149.879L139.673 145.242L126.03 132.292Z" fill="#313A46"/>
<path opacity="0.5" d="M126.03 132.292L139.673 145.242L124.216 142.152L126.03 132.292Z" fill="white"/>
<path opacity="0.3" d="M126.03 132.292L124.214 142.152L139.671 145.242L126.566 149.879L112.923 136.928L126.03 132.292Z" fill="white"/>
<path d="M117.465 142.643L98.9402 153.361L109.77 159.668L128.295 148.95L117.465 142.643Z" fill="#313A46"/>
<path opacity="0.6" d="M98.9395 153.362L115.205 152.48L117.465 142.643L98.9395 153.362Z" fill="white"/>
<path opacity="0.4" d="M98.9395 153.362L109.77 159.669L128.294 148.951L117.465 142.643L115.205 152.478L98.9395 153.362Z" fill="white"/>
<path d="M75.1423 149.143L61.7913 153.533L74.7171 166.729L88.0723 162.339L75.1423 149.143Z" fill="#313A46"/>
<path opacity="0.5" d="M77.0734 156.908L74.7156 166.728L61.7898 153.533L77.0734 156.908Z" fill="white"/>
<path opacity="0.3" d="M75.1424 149.143L88.0716 162.335L74.7164 166.725L77.0741 156.906L61.7905 153.53L75.1424 149.143Z" fill="white"/>
<path d="M88.3433 142.494L73.2271 144.071L77.9258 158.99L93.042 157.414L88.3433 142.494Z" fill="#313A46"/>
<path opacity="0.6" d="M88.3434 142.494L93.0421 157.413L80.5281 151.297L88.3434 142.494Z" fill="white"/>
<path opacity="0.4" d="M88.3433 142.494L80.528 151.297L93.042 157.411L77.9258 158.99L73.2271 144.072L88.3433 142.494Z" fill="white"/>
<path d="M72.3445 157.675L59.0135 153.213L46.0276 166.338L59.3586 170.8L72.3445 157.675Z" fill="#313A46"/>
<path opacity="0.6" d="M59.0135 153.213L61.8043 162.561L46.0276 166.338L59.0135 153.213Z" fill="white"/>
<path opacity="0.4" d="M59.3586 170.8L46.0276 166.338L61.8043 162.561L59.0135 153.213L72.3445 157.675L59.3586 170.8Z" fill="white"/>
<path d="M44.0013 131.889L33.1711 138.196L51.6965 148.915L62.5266 142.608L44.0013 131.889Z" fill="#313A46"/>
<path opacity="0.2" d="M62.5266 142.607L46.2613 141.723L44.0012 131.888L62.5266 142.607Z" fill="white"/>
<path opacity="0.1" d="M62.5268 142.607L51.6966 148.915L33.1721 138.197L44.0023 131.89L46.2624 141.725L62.5268 142.607Z" fill="white"/>
<path d="M45.2817 139.865L30.3958 142.05L36.8743 156.744L51.7628 154.561L45.2817 139.865Z" fill="#313A46"/>
<path opacity="0.5" d="M45.2817 139.865L51.7628 154.561L38.5432 148.967L45.2817 139.865Z" fill="white"/>
<path opacity="0.3" d="M45.2817 139.865L38.5432 148.967L51.7628 154.561L36.8743 156.744L30.3958 142.05L45.2817 139.865Z" fill="white"/>
<path d="M87.2079 133.043L61.2085 134.42L62.6537 143.303L88.6531 141.926L87.2079 133.043Z" fill="#313A46"/>
<path opacity="0.6" d="M87.2079 133.043L75.6685 139.733L61.2085 134.423L87.2079 133.043Z" fill="white"/>
<path opacity="0.3" d="M87.2079 133.043L88.6531 141.926L62.6537 143.303L61.2085 134.42L75.6685 139.73L87.2079 133.043Z" fill="white"/>
<path opacity="0.1" d="M85.973 107.782L82.1346 110.001L74.8962 114.187L93.7466 121.584L102.328 114.2L85.973 107.782Z" fill="black"/>
<path d="M87.2706 107.04L83.4322 109.259L76.1938 113.445L93.7467 120.337L102.328 112.954L87.2706 107.04Z" fill="#313A46"/>
<path opacity="0.6" d="M86.0823 113.867L102.329 112.954L87.2705 107.04L83.4321 109.259L86.0823 113.867Z" fill="white"/>
<path opacity="0.4" d="M102.329 112.954L86.0824 113.867L83.4339 109.259L76.1956 113.445L93.7484 120.337L102.329 112.954Z" fill="white"/>
<path d="M166.361 81.3002L166.918 71.8796C166.993 70.5978 166.751 69.3172 166.213 68.1519C165.675 66.9866 164.858 65.9728 163.834 65.2009L160.459 62.6572L160.951 82.868L166.361 81.3002Z" fill="#313A46"/>
<path opacity="0.1" d="M166.361 81.3002L166.918 71.8796C166.993 70.5978 166.751 69.3172 166.213 68.1519C165.675 66.9866 164.858 65.9728 163.834 65.2009L160.459 62.6572L160.951 82.868L166.361 81.3002Z" fill="black"/>
<path opacity="0.1" d="M161.113 70.9932C162.734 71.5479 164.412 71.9186 166.115 72.0982C165.72 72.3988 165.269 72.6154 164.788 72.7345C164.307 72.8537 163.806 72.8729 163.317 72.791C162.846 72.6603 162.407 72.433 162.027 72.1236C161.648 71.8142 161.337 71.4293 161.113 70.9932Z" fill="black"/>
<path d="M154.868 154.109C154.593 154.977 153.644 155.474 152.738 155.546C151.829 155.547 150.923 155.431 150.044 155.201C148.041 154.837 146.113 155.197 144.117 155.15C143.461 155.156 142.807 155.084 142.168 154.938C141.525 154.789 140.943 154.445 140.501 153.954C140.251 153.655 140.085 153.294 140.021 152.909C139.98 153.199 140.002 153.496 140.085 153.777C140.168 154.059 140.31 154.32 140.501 154.542C140.943 155.034 141.525 155.377 142.168 155.526C142.807 155.672 143.461 155.744 144.117 155.738C146.113 155.786 148.043 155.425 150.044 155.789C150.923 156.02 151.829 156.135 152.738 156.134C153.644 156.062 154.593 155.565 154.868 154.698C154.954 154.398 154.978 154.083 154.938 153.773C154.925 153.887 154.902 154 154.868 154.109Z" fill="#263238"/>
<path d="M154.816 152.447L154.448 150.625C154.403 150.3 154.299 149.985 154.14 149.698C154.059 149.555 153.941 149.437 153.799 149.355C153.656 149.274 153.495 149.232 153.331 149.234C152.234 149.088 150.694 148.69 149.784 149.318C148.344 150.305 146.627 150.805 144.883 150.744C143.977 150.71 143.07 150.524 142.171 150.634C141.271 150.745 140.335 151.247 140.068 152.114C139.992 152.371 139.977 152.642 140.022 152.906C140.085 153.291 140.251 153.652 140.501 153.951C140.943 154.442 141.525 154.786 142.168 154.935C142.808 155.082 143.462 155.153 144.117 155.147C146.113 155.194 148.043 154.834 150.044 155.198C150.924 155.428 151.829 155.544 152.738 155.543C153.644 155.471 154.594 154.974 154.869 154.106C154.902 153.996 154.926 153.883 154.938 153.769C154.967 153.325 154.926 152.879 154.816 152.447Z" fill="#37474F"/>
<path d="M149.517 147.409L149.439 149.782C149.43 150.025 149.516 150.262 149.679 150.443C149.841 150.624 150.067 150.735 150.309 150.753C151.104 150.809 151.902 150.801 152.696 150.73C153.018 150.7 153.319 150.555 153.543 150.321C153.767 150.088 153.9 149.782 153.917 149.458L154.011 147.705L149.517 147.409Z" fill="#FFA8A7"/>
<path d="M164.984 146.147C164.974 146.498 164.864 146.838 164.667 147.128C164.385 147.47 163.987 147.695 163.549 147.759C163.026 147.848 162.488 147.789 161.997 147.586C161.506 147.384 161.082 147.047 160.774 146.614C160.476 146.182 160.307 145.673 160.023 145.23C159.596 144.638 159.07 144.125 158.468 143.714C157.865 143.304 157.335 142.795 156.9 142.209C156.695 141.923 156.56 141.591 156.508 141.242C156.456 140.893 156.488 140.537 156.601 140.202C156.544 140.281 156.495 140.365 156.454 140.453C156.321 140.805 156.277 141.185 156.326 141.558C156.375 141.931 156.516 142.286 156.735 142.591C157.178 143.194 157.719 143.719 158.335 144.143C158.95 144.568 159.486 145.097 159.92 145.706C160.208 146.162 160.379 146.687 160.685 147.132C160.997 147.577 161.429 147.924 161.93 148.133C162.431 148.342 162.981 148.404 163.516 148.312C163.964 148.245 164.371 148.013 164.657 147.662C164.912 147.255 165.029 146.777 164.988 146.298C164.991 146.248 164.986 146.196 164.984 146.147Z" fill="#263238"/>
<path d="M164.265 143.167C163.545 141.903 162.06 140.982 160.915 140.086C160.287 139.542 159.516 139.191 158.694 139.076C158.284 139.027 157.868 139.101 157.499 139.289C157.131 139.478 156.827 139.772 156.626 140.134C156.616 140.155 156.611 140.178 156.602 140.2C156.489 140.534 156.458 140.89 156.51 141.239C156.562 141.589 156.696 141.92 156.902 142.207C157.337 142.792 157.867 143.301 158.469 143.712C159.072 144.123 159.598 144.636 160.025 145.228C160.307 145.671 160.476 146.179 160.776 146.611C161.084 147.044 161.508 147.381 161.999 147.584C162.489 147.786 163.027 147.846 163.55 147.756C163.988 147.692 164.387 147.467 164.668 147.125C164.866 146.835 164.976 146.495 164.985 146.145C164.993 146.031 164.995 145.916 164.993 145.802C164.973 144.877 164.723 143.971 164.265 143.167Z" fill="#37474F"/>
<path d="M161.143 142.071V144.228C161.671 144.477 162.252 144.593 162.836 144.567C163.419 144.542 163.988 144.374 164.493 144.08L164.695 142.138L161.143 142.071Z" fill="#FFA8A7"/>
<path d="M165.26 102.928C165.906 104.869 165.112 114.091 164.735 122.937C166.134 126.282 166.173 135.857 165.366 142.6C165.366 142.6 162.63 143.427 160.1 142.564L157.847 123.908L157.407 113.391C157.407 113.391 156.609 122.722 155.696 128.708C156.557 133.293 156.65 134.256 154.524 148.359C154.524 148.359 151.08 149.4 148.497 148.13C147.295 128.318 148.693 110.392 148.92 103.9L165.26 102.928Z" fill="#455A64"/>
<path opacity="0.3" d="M157.674 119.796L157.314 111.218C159.526 111.218 161.579 109.561 163.14 107.99C161.641 110.666 158.734 111.854 158.734 111.854L157.674 119.796Z" fill="black"/>
<path d="M148.647 85.6676L148.58 104.424C158.45 108.568 164.846 104.825 165.714 102.877C165.26 96.0394 166.873 88.0411 166.748 84.6428C166.624 81.2445 166.208 77.4164 160.949 78.1841L155.358 78.7305L152.521 79.4212L148.647 85.6676Z" fill="#313A46"/>
<path d="M160.951 75.4957C161.148 75.51 161.346 75.4846 161.534 75.4209C161.722 75.3573 161.895 75.2568 162.043 75.1253C162.157 75.0001 162.24 74.8498 162.285 74.6866C162.33 74.5234 162.336 74.3518 162.302 74.1858C162.468 74.1539 162.623 74.0814 162.754 73.9748C162.885 73.8682 162.988 73.7309 163.053 73.575C163.105 73.4023 163.116 73.2201 163.086 73.0425C163.055 72.8649 162.984 72.6967 162.879 72.551C163.118 72.4887 163.342 72.3751 163.534 72.218C163.726 72.061 163.882 71.8643 163.991 71.6413C164.102 71.4127 164.164 71.1633 164.172 70.9092C164.181 70.6551 164.136 70.4021 164.04 70.1666C164.304 70.0963 164.545 69.9594 164.74 69.7691C164.936 69.5788 165.079 69.3414 165.157 69.0796C165.239 68.8077 165.253 68.5198 165.198 68.2413C165.143 67.9628 165.02 67.7021 164.84 67.4824C165.067 67.1786 165.21 66.8201 165.254 66.4432C165.298 66.0663 165.241 65.6844 165.091 65.3363C164.916 64.9883 164.656 64.6911 164.334 64.4733C164.012 64.2555 163.639 64.1243 163.252 64.0925C163.306 63.7274 163.269 63.3545 163.142 63.0077C163.016 62.6608 162.806 62.3511 162.53 62.1065C162.252 61.8728 161.92 61.7136 161.565 61.6438C161.209 61.574 160.842 61.596 160.497 61.7077C160.37 61.4027 160.169 61.1349 159.911 60.9289C159.653 60.723 159.348 60.5858 159.023 60.5299C158.698 60.4741 158.365 60.5015 158.053 60.6096C157.742 60.7177 157.463 60.903 157.242 61.1483C157.08 60.9648 156.875 60.8245 156.645 60.7397C156.415 60.6549 156.168 60.6282 155.926 60.662C155.678 60.6868 155.441 60.7713 155.233 60.9083C155.025 61.0452 154.854 61.2306 154.734 61.4484C154.422 61.3062 154.079 61.2466 153.738 61.2754C153.397 61.3042 153.069 61.4205 152.785 61.613C152.502 61.8054 152.273 62.0677 152.119 62.3746C151.966 62.6815 151.894 63.0227 151.911 63.3654C151.661 63.4395 151.443 63.594 151.291 63.8049C151.138 64.0159 151.059 64.2714 151.066 64.5319C151.087 64.799 151.193 65.0523 151.368 65.2547C151.543 65.4571 151.779 65.598 152.04 65.6566C152.535 68.3368 153.418 70.9301 154.662 73.3542C155.216 74.4342 155.896 75.5283 156.97 76.0907C158.132 76.699 159.956 76.3524 160.951 75.4957Z" fill="#455A64"/>
<path d="M151.64 69.1711L150.483 71.1881L151.751 71.6576L151.64 69.1711Z" fill="#F28F8F"/>
<path d="M152.039 65.6583C151.27 68.4513 151.156 71.3847 151.706 74.2293C151.766 74.7191 151.949 75.1856 152.237 75.5856C152.619 75.9972 153.148 76.241 153.708 76.2642C154.263 76.2839 154.818 76.2304 155.358 76.1049V78.7293C157.346 79.1992 159.392 79.3848 160.949 78.1828V75.4957C159.828 75.8553 158.635 75.93 157.478 75.7131C156.105 74.971 155.829 72.4565 156.022 71.7934C156.145 71.9546 156.312 72.0762 156.503 72.1431C156.694 72.21 156.9 72.2192 157.096 72.1697C157.285 72.1181 157.461 72.0285 157.615 71.9063C157.768 71.7841 157.895 71.6319 157.988 71.459C158.171 71.1123 158.285 70.7326 158.321 70.3418C158.419 69.8709 158.347 69.3806 158.118 68.9579C157.942 68.7225 157.7 68.5461 157.422 68.4522C157.144 68.3583 156.844 68.3514 156.562 68.4323C156.283 68.52 156.024 68.6619 155.799 68.8501C155.574 69.0383 155.389 69.269 155.254 69.529C155.164 69.6899 155.086 69.8577 155.023 70.0307C154.999 70.0977 154.953 70.1545 154.893 70.1917C154.832 70.2289 154.761 70.2443 154.691 70.2353C154.62 70.2263 154.555 70.1935 154.506 70.1423C154.457 70.0911 154.427 70.0246 154.42 69.9538C154.349 69.1994 154.486 68.44 154.814 67.7575C154.588 67.7344 154.369 67.6605 154.175 67.5412C153.981 67.4219 153.816 67.2604 153.692 67.0685C153.561 66.8896 153.473 66.6825 153.435 66.4637C153.398 66.2448 153.411 66.0202 153.475 65.8075C152.992 65.8408 152.506 65.7903 152.039 65.6583Z" fill="#FFA8A7"/>
<path d="M153.627 69.4074C154.54 69.434 155.449 69.2656 156.292 68.9135C157.135 68.5614 157.894 68.0335 158.518 67.3649C158.607 67.2712 158.664 67.151 158.679 67.0223C158.694 66.8936 158.667 66.7635 158.602 66.6517L158.596 66.6412C158.554 66.5706 158.498 66.5097 158.432 66.4623C158.365 66.415 158.289 66.3823 158.209 66.3665C158.129 66.3507 158.046 66.3521 157.967 66.3706C157.887 66.3892 157.813 66.4244 157.748 66.474C157.212 66.8913 156.576 67.1619 155.905 67.2592C155.95 66.2846 157.297 64.3864 157.991 63.7024C158.211 63.5403 158.372 63.3105 158.45 63.0481C158.461 62.9618 158.451 62.8742 158.421 62.7926C158.391 62.711 158.342 62.6377 158.278 62.579C158.218 62.519 158.143 62.4748 158.062 62.4501C157.98 62.4254 157.894 62.421 157.81 62.4372C157.896 62.4055 157.969 62.3453 158.017 62.2666C158.064 62.1878 158.083 62.0953 158.071 62.0041C158.056 61.9134 158.016 61.8286 157.956 61.7589C157.896 61.6892 157.818 61.6372 157.731 61.6086C157.647 61.5731 157.558 61.5551 157.467 61.5555C157.377 61.5559 157.287 61.5748 157.204 61.6111C157.189 61.5348 157.153 61.464 157.101 61.4061C157.049 61.3482 156.983 61.3054 156.909 61.282C156.759 61.2372 156.599 61.2431 156.453 61.2988C156.299 61.3513 156.151 61.4201 156.012 61.504C155.93 61.3845 155.808 61.2974 155.669 61.2576C155.529 61.2178 155.381 61.2277 155.248 61.2858C153.49 62.1789 151.382 65.0487 151.367 67.0213C151.382 67.6288 151.622 68.2092 152.039 68.65C152.457 69.0909 153.022 69.3607 153.627 69.4074Z" fill="#FFA8A7"/>
<path d="M157.808 62.4368C156.823 62.9148 156.032 63.7187 155.569 64.713C155.73 63.2187 157.213 62.5033 157.808 62.4368Z" fill="#F28F8F"/>
<path d="M157.202 61.6107C155.716 62.3168 155.059 63.0573 154.657 63.7032C154.872 63.1684 155.217 62.6964 155.662 62.3307C156.107 61.965 156.636 61.7174 157.202 61.6107Z" fill="#F28F8F"/>
<path d="M156.01 61.5036C155.159 61.8623 154.428 62.457 153.903 63.2178C154.067 62.7681 154.35 62.3712 154.721 62.0694C155.092 61.7676 155.537 61.5721 156.01 61.5036Z" fill="#F28F8F"/>
<path d="M156.576 68.4198C155.604 68.8873 154.515 69.051 153.45 68.8898C153.295 68.2791 152.951 67.7335 152.466 67.3319C152.149 67.0673 151.779 66.8732 151.382 66.7625C151.374 66.8486 151.364 66.936 151.363 67.0192C151.378 67.6274 151.618 68.2084 152.036 68.6494C152.454 69.0904 153.021 69.3599 153.627 69.4057C154.54 69.4323 155.448 69.264 156.291 68.9118C157.135 68.5597 157.894 68.0318 158.518 67.3633C158.603 67.2732 158.657 67.1588 158.674 67.036C158.691 66.9133 158.67 66.7883 158.612 66.6784C158.091 67.4218 157.39 68.0208 156.576 68.4198Z" fill="#F28F8F"/>
<path opacity="0.2" d="M154.034 84.9251C152.372 84.9523 150.679 85.0388 148.999 85.0998L148.647 85.6676L148.634 89.1796C149.798 88.9283 150.889 88.4145 151.824 87.6773C152.76 86.9401 153.516 85.9988 154.034 84.9251Z" fill="black"/>
<path d="M154.195 79.0136L143.049 75.8465L152.865 71.1638C154.292 68.5432 151.677 66.3176 149.456 66.6408L138.108 72.2584C137.274 72.6416 136.567 73.2567 136.071 74.0306C135.576 74.8045 135.313 75.7047 135.313 76.6242C135.312 77.5548 135.582 78.4654 136.089 79.2453C136.595 80.0253 137.317 80.641 138.166 81.0175L151.117 86.7609C154.978 88.055 157.712 80.0112 154.195 79.0136Z" fill="#313A46"/>
<path opacity="0.2" d="M143.049 75.8465L139.864 74.9413C141.512 74.6038 143.202 74.5234 144.874 74.703L145.342 74.7532L143.049 75.8465Z" fill="black"/>
</g>
<defs>
<clipPath id="clip0_119_3626">
<rect width="194" height="189" fill="white"/>
</clipPath>
</defs>
</svg>
