<svg width="180" height="28" viewBox="0 0 180 28" fill="none" xmlns="http://www.w3.org/2000/svg">
<path d="M9.41939 3.50879H27.2107V22.5014H9.41939C6.92123 22.5014 4.52539 21.5009 2.75892 19.72C0.992452 17.9391 6.10352e-05 15.5237 6.10352e-05 13.0051H6.10352e-05C6.10352e-05 10.4865 0.992452 8.0711 2.75892 6.2902C4.52539 4.50929 6.92123 3.50879 9.41939 3.50879V3.50879Z" fill="#F8CB35"/>
<path d="M16.2219 19.8759C15.9784 19.8759 15.7556 19.8566 15.5537 19.818C15.3517 19.7823 15.1854 19.7363 15.0547 19.6799L15.7229 18.2632C15.9338 18.3315 16.1254 18.3671 16.2976 18.3701C16.4729 18.373 16.6333 18.3285 16.7788 18.2364C16.9243 18.1444 17.058 17.9929 17.1798 17.782L17.349 17.4924L16.066 10.4668H17.9906L18.5697 15.501H18.641L20.9086 10.4668H22.9892L19.0732 18.0493C18.8801 18.4206 18.6514 18.7428 18.3871 19.0161C18.1257 19.2893 17.8153 19.5002 17.456 19.6487C17.0996 19.8002 16.6882 19.8759 16.2219 19.8759Z" fill="black"/>
<path d="M7.75006 17.3095L9.26478 8.18555H11.1626L10.6013 11.6159H10.6548C10.7676 11.4318 10.9191 11.2447 11.1092 11.0546C11.3022 10.8616 11.5383 10.7012 11.8175 10.5735C12.0967 10.4428 12.4279 10.3774 12.811 10.3774C13.31 10.3774 13.7481 10.5081 14.1253 10.7695C14.5024 11.0279 14.7742 11.4184 14.9405 11.9412C15.1069 12.4609 15.1247 13.1128 14.994 13.8969C14.8693 14.6602 14.6391 15.3047 14.3035 15.8304C13.9708 16.3532 13.5713 16.7497 13.105 17.0199C12.6417 17.2872 12.1502 17.4209 11.6304 17.4209C11.2621 17.4209 10.9592 17.36 10.7216 17.2382C10.487 17.1165 10.3043 16.9635 10.1736 16.7794C10.0429 16.5922 9.94938 16.4037 9.89295 16.2136H9.79939L9.62119 17.3095H7.75006ZM10.1781 13.888C10.1127 14.2949 10.1112 14.6498 10.1736 14.9528C10.239 15.2557 10.3637 15.4918 10.5478 15.6611C10.735 15.8275 10.98 15.9106 11.2829 15.9106C11.5948 15.9106 11.871 15.826 12.1116 15.6567C12.3551 15.4844 12.5571 15.2468 12.7175 14.9439C12.8778 14.638 12.9907 14.286 13.056 13.888C13.1184 13.493 13.1199 13.1455 13.0605 12.8455C13.0011 12.5456 12.8793 12.3109 12.6952 12.1416C12.511 11.9723 12.2616 11.8877 11.9467 11.8877C11.6408 11.8877 11.3661 11.9694 11.1225 12.1327C10.882 12.2961 10.68 12.5277 10.5167 12.8277C10.3563 13.1277 10.2434 13.4811 10.1781 13.888Z" fill="black"/>
<path d="M164.746 11.1211C166.139 11.1211 167.084 11.3572 167.674 11.5697C168.595 11.9238 168.784 11.9002 170.035 11.5933C171.215 11.2864 172.49 11.1211 173.859 11.1211C178.416 11.1211 179.809 12.0891 179.384 14.686L178.652 19.3133C178.487 20.423 178.251 20.6118 176.834 20.6118H176.433C174.945 20.6118 174.709 20.423 174.875 19.3133L175.63 14.6388C175.913 12.7973 175.04 12.4904 173.434 12.4904C172.585 12.4904 171.593 12.6084 171.026 12.7265C170.649 12.7973 170.436 12.9626 170.365 13.4111L169.421 19.3133C169.256 20.423 169.02 20.6118 167.603 20.6118H167.202C165.714 20.6118 165.478 20.423 165.644 19.3133L166.399 14.568C166.682 12.7737 165.785 12.4904 164.203 12.4904C163.354 12.4904 162.362 12.6084 161.795 12.7265C161.418 12.7973 161.205 12.9626 161.134 13.4111L160.19 19.3133C160.025 20.423 159.789 20.6118 158.372 20.6118H157.971C156.483 20.6118 156.247 20.423 156.413 19.3133L157.428 13.0334C157.569 12.1363 157.782 11.8057 159.789 11.4752C160.993 11.2864 162.976 11.1211 164.746 11.1211Z" fill="white"/>
<path d="M146.161 20.8725C139.716 20.8725 139.409 18.7005 139.834 16.0091C140.282 13.2941 141.274 11.1221 147.719 11.1221C154.141 11.1221 154.448 13.2941 153.999 16.0091C153.574 18.7005 152.582 20.8725 146.161 20.8725ZM146.373 19.574C149.254 19.574 149.679 18.3228 150.033 16.0091C150.41 13.6954 150.387 12.4206 147.507 12.4206C144.626 12.4206 144.178 13.6954 143.8 16.0091C143.446 18.3228 143.493 19.574 146.373 19.574Z" fill="white"/>
<path d="M131.776 20.8247C126.087 20.8719 124.93 19.1721 125.426 15.9613C125.921 12.7741 127.645 11.0743 133.335 11.0979C136.002 11.1215 137.466 11.3812 137.797 11.4284C138.41 11.5465 138.481 11.6409 138.387 12.2783C138.269 12.9394 138.08 13.0102 137.537 12.963C136.97 12.8922 135.294 12.6797 133.878 12.6797C130.62 12.6797 129.746 13.5532 129.368 15.9613C128.991 18.393 129.557 19.2665 132.815 19.2665C134.232 19.2665 136.002 19.0541 136.593 18.9832C137.136 18.9124 137.324 18.9832 137.206 19.6679C137.112 20.3053 137.018 20.3998 136.38 20.4942C136.026 20.565 134.444 20.8247 131.776 20.8247Z" fill="white"/>
<path d="M118.831 20.8019C115.148 20.8019 113.92 19.952 114.298 17.5911L115.573 9.58772C115.738 8.4781 115.998 8.26562 117.438 8.26562H117.815C119.303 8.26562 119.515 8.4781 119.35 9.58772L119.161 10.7209C119.09 11.1695 119.208 11.3348 119.704 11.3348H123.411C123.977 11.3348 124.025 11.5236 123.93 12.043C123.836 12.6096 123.765 12.7277 123.198 12.7277H119.492C118.996 12.7277 118.831 12.9166 118.736 13.3651L118.075 17.6383C117.839 19.1729 118.76 19.2437 120.058 19.2437C121.144 19.2437 122.183 19.1257 122.868 19.0548C123.411 19.0076 123.552 19.0785 123.458 19.7395C123.364 20.3769 123.269 20.4478 122.655 20.5658C122.136 20.6366 120.814 20.8019 118.831 20.8019Z" fill="white"/>
<path d="M105.421 20.6124H105.019C103.532 20.6124 103.296 20.4235 103.461 19.3139L104.406 13.3645C104.5 12.8923 104.382 12.7271 103.886 12.7271H102.281C101.714 12.7271 101.643 12.609 101.738 12.0424C101.832 11.523 101.927 11.3342 102.493 11.3342H104.099C104.595 11.3342 104.76 11.1689 104.831 10.7203L104.949 10.0357C105.256 8.09975 106.648 7.27344 110.331 7.27344C112.315 7.27344 113.684 7.48592 114.132 7.55674C114.746 7.65118 114.817 7.722 114.699 8.33583C114.605 9.02049 114.416 9.06771 113.896 9.02049C113.212 8.94966 112.22 8.83162 111.063 8.83162C109.67 8.83162 108.891 9.02049 108.679 10.2718L108.608 10.7203C108.537 11.1689 108.655 11.3342 109.151 11.3342H112.74C113.33 11.3342 113.377 11.523 113.283 12.0424C113.188 12.609 113.117 12.7271 112.527 12.7271H108.939C108.443 12.7271 108.277 12.9159 108.183 13.3645L107.239 19.3139C107.073 20.4235 106.837 20.6124 105.421 20.6124Z" fill="white"/>
<path d="M91.9346 20.8725C85.4894 20.8725 85.1825 18.7005 85.6074 16.0091C86.056 13.2941 87.0476 11.1221 93.4928 11.1221C99.9144 11.1221 100.221 13.2941 99.7727 16.0091C99.3477 18.7005 98.3562 20.8725 91.9346 20.8725ZM92.1471 19.574C95.0273 19.574 95.4523 18.3228 95.8064 16.0091C96.1842 13.6954 96.1606 12.4206 93.2803 12.4206C90.4 12.4206 89.9514 13.6954 89.5737 16.0091C89.2196 18.3228 89.2668 19.574 92.1471 19.574Z" fill="white"/>
<path d="M76.0254 20.8725C73.2632 20.8725 71.28 20.5656 70.8551 20.4948C70.2649 20.3767 70.194 20.2823 70.2885 19.6685C70.4065 18.9838 70.619 18.8658 71.1148 18.9366C71.7286 19.031 73.9006 19.3852 76.5212 19.3852C78.6224 19.3852 79.3306 19.2435 79.4487 18.4172C79.5667 17.5437 79.2598 17.4256 76.5212 17.2604C72.0827 17.0479 70.6662 16.7174 71.0676 14.2148C71.5633 11.1457 74.0187 11.1221 77.8197 11.1221C80.3222 11.1221 82.1401 11.4054 82.565 11.4762C83.1553 11.5706 83.2261 11.6415 83.1317 12.2553C83.0372 12.9163 82.8247 13.058 82.3053 12.9872C81.8568 12.9399 79.9917 12.6566 77.7725 12.6566C75.5532 12.6566 74.8686 12.7039 74.7269 13.5302C74.6089 14.3093 74.8214 14.4745 77.3947 14.569C81.9512 14.7814 83.4622 14.9467 83.0136 17.7325C82.5414 20.7072 79.4723 20.8725 76.0254 20.8725Z" fill="white"/>
<path d="M34.7432 0.5L35.0586 0.513672C35.3629 0.541873 35.634 0.61388 35.874 0.733398C36.198 0.894803 36.4338 1.12773 36.6123 1.39551C36.7861 1.65619 36.9064 1.95081 37.0059 2.23926C37.0655 2.4123 37.1247 2.61095 37.1846 2.80566C38.3442 2.83391 41.1993 2.82097 43.9648 2.81152C45.507 2.80626 47.0144 2.80236 48.1641 2.80859C48.7384 2.81171 49.2269 2.81787 49.5869 2.82715C49.7663 2.83177 49.9181 2.83775 50.0342 2.84473C50.0918 2.8482 50.1456 2.85146 50.1914 2.85645C50.2084 2.8583 50.2337 2.86136 50.2627 2.86621L50.3574 2.8877L50.5137 2.94434C51.2662 3.25122 51.5457 3.95792 51.6758 4.58203C51.746 4.91926 51.7828 5.27802 51.8164 5.60059C51.8351 5.7803 51.852 5.94902 51.873 6.10645C55.1087 6.20254 59.591 6.11014 62.8311 6.11035C64.3117 6.11047 65.3275 6.66583 65.8574 7.68555C66.3579 8.6487 66.3658 9.92288 66.1299 11.2539C65.768 13.2952 65.3084 15.4914 64.9326 17.4883C64.5049 19.7615 64.3572 21.6376 63.1582 23.5117C62.8789 23.9482 62.5203 24.2881 62.1602 24.5791C61.9802 24.7245 61.7942 24.8616 61.6162 24.9922C61.4358 25.1246 61.2643 25.2493 61.0977 25.3789C60.7459 25.6525 60.38 25.9811 59.9463 26.209C59.4806 26.4536 58.938 26.5909 58.168 26.5908L33.2695 26.5811H32.0791C30.5619 26.5805 29.3909 26.1077 28.498 25.3164C27.6164 24.5349 27.0388 23.4723 26.6416 22.3438C26.5624 22.1186 26.4856 21.7321 26.4092 21.2676C26.3304 20.7883 26.2456 20.1838 26.1582 19.4961C25.9833 18.1195 25.795 16.3936 25.6143 14.6387C25.2489 11.0922 24.9242 7.52091 24.792 6.25098C24.7579 5.92345 24.71 5.61245 24.666 5.26367C24.6237 4.92829 24.5881 4.57664 24.5918 4.23047C24.5994 3.52736 24.7715 2.80084 25.4062 2.21777C25.7618 1.89112 26.241 1.4713 26.7646 1.13184C27.2759 0.800391 27.8969 0.500078 28.5264 0.5H34.7432ZM61.124 8.30371C60.814 8.31145 60.4774 8.32081 60.1143 8.32812L58.9453 8.34082L42.5146 8.33887H42.5137C42.2054 8.33847 41.9784 8.3342 41.7832 8.3418C41.5906 8.3493 41.4721 8.36735 41.3877 8.39453C41.2705 8.43226 41.1467 8.50511 40.9473 8.89355C40.9467 8.89475 40.945 8.89815 40.9424 8.9043C40.9389 8.9125 40.9343 8.92391 40.9287 8.93848C40.9174 8.96818 40.9036 9.00754 40.8877 9.05664C40.8557 9.15532 40.8177 9.28473 40.7744 9.44238C40.688 9.75751 40.5843 10.1724 40.4688 10.6582C40.2379 11.6289 39.9634 12.8695 39.6904 14.1357C39.1382 16.6974 38.6144 19.2609 38.4443 20.0527C38.1752 21.3063 37.7923 22.0922 37.4258 22.6689C37.3156 22.8424 37.2051 22.9972 37.1064 23.1338C40.4652 23.1339 43.8239 23.1351 47.1826 23.1357C50.8444 23.1364 54.5062 23.1367 58.168 23.1367C58.7733 23.1367 59.2362 23.1442 59.626 23.1279C60.0131 23.1117 60.2824 23.0729 60.4951 23C60.8732 22.8703 61.1775 22.5977 61.6279 21.7471C61.9054 21.2228 62.0927 20.5662 62.249 19.8213C62.3266 19.4515 62.395 19.0687 62.4639 18.6768C62.5323 18.2874 62.602 17.8876 62.6797 17.4961C63.2338 14.7049 63.6533 12.7252 63.874 11.3037C63.9841 10.5945 64.0416 10.0464 64.043 9.62109C64.0444 9.19177 63.9883 8.93027 63.9092 8.7666C63.7876 8.51528 63.5347 8.34592 62.6729 8.30078C62.2566 8.27898 61.7499 8.28809 61.124 8.30371ZM34.7617 2.74316C34.7113 2.74448 34.6519 2.74538 34.584 2.74512C33.762 2.74182 32.2817 2.74216 30.9404 2.75C29.9454 2.75582 29.0507 2.76582 28.5488 2.7793C28.5435 2.86863 28.5401 2.97374 28.5391 3.09473C28.5359 3.47003 28.5544 3.96555 28.5908 4.5498C28.6636 5.71678 28.8041 7.20671 28.9648 8.7334C29.2841 11.7651 29.688 14.9784 29.7783 15.958C29.8898 17.1677 29.9356 18.2629 30.1123 19.29C30.2863 20.3014 30.5787 21.1749 31.1406 21.9023C31.7539 22.6962 32.4912 23.0742 33.1807 23.0947C33.8623 23.1149 34.5912 22.7888 35.207 21.9814C35.7184 21.311 36.0327 20.4764 36.2725 19.5078C36.5162 18.5233 36.6653 17.4886 36.8896 16.3584C37.0981 15.308 37.2969 14.2514 37.4961 13.1943C37.6951 12.1383 37.8946 11.0815 38.1045 10.0342C38.4471 8.32492 38.8526 7.25574 39.6484 6.67773C40.0501 6.38604 40.5106 6.2482 41.0146 6.17969C41.511 6.11223 42.0881 6.10742 42.7363 6.10742C45.0343 6.10742 47.3978 6.1731 49.6641 6.11035C49.665 5.93347 49.6587 5.73021 49.6387 5.53418C49.6193 5.3446 49.5895 5.18568 49.5537 5.07324L37.7402 5.0459V5.04492C37.1396 5.04557 36.6814 5.01247 36.3311 4.92285C35.9614 4.82826 35.6808 4.66296 35.4814 4.38965C35.3061 4.14933 35.2239 3.85785 35.1562 3.62793C35.0823 3.37664 35.0052 3.10988 34.8584 2.79492C34.8486 2.77397 34.8389 2.75618 34.8311 2.74023C34.8114 2.74077 34.7889 2.74245 34.7617 2.74316Z" fill="black" stroke="white"/>
<path fill-rule="evenodd" clip-rule="evenodd" d="M42.7368 6.60703C45.1678 6.60703 47.7236 6.6843 50.1391 6.59721C50.1975 6.14751 50.1864 4.75098 49.8011 4.57417L37.741 4.54519C36.1958 4.547 35.9086 4.31385 35.7157 3.75788C35.5636 3.3196 35.4479 2.78727 35.2326 2.37572C35.1591 2.2351 35.0802 2.23035 34.7718 2.22568C33.5337 2.20677 30.0978 2.23457 28.658 2.21607C27.9788 2.20733 27.8356 2.4299 27.8804 2.88016C28.3247 7.34512 28.7692 11.7142 29.1691 16.0542C29.3858 18.4059 29.4815 20.5726 30.7446 22.2077C32.1128 23.9788 34.2125 24.1092 35.6044 22.2844C36.7476 20.7856 36.946 18.6412 37.3798 16.4558C37.7979 14.349 38.1761 12.2205 38.5947 10.1317C39.283 6.69769 40.119 6.607 42.7368 6.60703Z" fill="#F8CB35"/>
<path fill-rule="evenodd" clip-rule="evenodd" d="M36.1953 23.6344C43.5191 23.6344 50.8429 23.6372 58.1666 23.6372C60.5398 23.6372 61.1309 23.7519 62.0682 21.9817C62.6903 20.8067 62.8626 19.1327 63.1682 17.5933C65.3749 6.47885 65.5413 7.84082 58.9437 7.84089L42.5131 7.83895C41.327 7.83746 40.9562 7.77856 40.501 8.66488C40.1024 9.44121 38.2784 18.4348 37.9535 19.9479C37.4404 22.3371 36.5158 22.8719 36.1953 23.6344H36.1953Z" fill="#F1B40B"/>
</svg>
