<svg width="40" height="40" viewBox="0 0 40 40" fill="none" xmlns="http://www.w3.org/2000/svg">
<rect width="40" height="40" rx="8" fill="#FF6200"/>
<mask id="mask0_367_1039" style="mask-type:luminance" maskUnits="userSpaceOnUse" x="8" y="9" width="24" height="22">
<path d="M27.2809 16.0225C26.7179 16.0033 26.1607 15.999 25.6105 16.0082C22.297 16.0636 19.2348 16.6223 16.6651 17.5244C16.2215 17.6799 15.7927 17.8458 15.3797 18.0212L15.5938 17.2222L17.1588 11.3824C17.2588 11.0099 17.6426 10.7882 18.0152 10.8882L25.7066 12.9496C26.0792 13.0493 26.3008 13.4333 26.2009 13.8056L26.0833 14.2444C24.5361 14.495 22.6705 15.2787 22.6383 15.2902C23.6933 15.1769 24.768 15.1148 25.8529 15.1048C26.4064 15.0994 26.9628 15.1079 27.5202 15.1301L27.7629 14.2245C28.0943 12.9887 27.3607 11.7187 26.1252 11.3873L18.434 9.32592C17.198 8.99479 15.9282 9.72787 15.5968 10.9636L14.0553 16.7157L13.9714 17.0289L13.45 18.9739C8.70287 21.6963 7.1452 25.8441 11.7055 29.4785C10.314 26.7533 10.7975 24.5736 12.4186 22.8226C12.9962 22.1985 13.7185 21.629 14.5521 21.1087C14.8929 20.896 15.2522 20.6914 15.6278 20.4945C17.2177 19.6623 19.0993 18.9706 21.1001 18.3927C22.4453 18.0038 23.8444 17.6663 25.2451 17.372L24.8848 18.7167L23.1034 25.3632L22.2325 28.6127C22.1326 28.9848 21.7488 29.2067 21.3762 29.107L13.6848 27.0456C13.3122 26.9456 13.0908 26.5616 13.1905 26.1893C13.6983 24.2944 15.1565 22.7725 16.5889 21.6794C18.2494 20.4122 19.8751 19.7205 19.9461 19.6906C18.5 20.1629 17.244 20.6717 16.1795 21.2153C15.4214 21.6027 14.7607 22.008 14.1977 22.4309C13.2928 23.1108 12.6398 23.8367 12.2416 24.6073C11.8775 25.3118 11.7333 26.0568 11.8093 26.8556C11.886 27.66 12.4239 28.3558 13.1979 28.5882C13.2204 28.5951 13.2432 28.6015 13.2662 28.6076L20.9574 30.669C22.1932 31.0001 23.4634 30.2671 23.7946 29.0313L24.6823 25.7186L26.5489 18.754L27.0132 17.022C28.386 16.766 29.7386 16.5487 31.0204 16.3615C29.754 16.1746 28.5036 16.0642 27.2809 16.0225Z" fill="white"/>
</mask>
<g mask="url(#mask0_367_1039)">
<path d="M27.2809 16.0226C26.7179 16.0032 26.1608 15.9991 25.6104 16.0081C22.2969 16.0636 19.2348 16.6225 16.6651 17.5243C16.2215 17.6799 15.7927 17.846 15.3797 18.0213L15.5937 17.2221L17.1589 11.3824C17.2588 11.01 17.6426 10.7882 18.0151 10.8882L25.7066 12.9497C26.0791 13.0492 26.3009 13.4335 26.2008 13.8056L26.0832 14.2443C24.536 14.495 22.6706 15.2788 22.6384 15.2901C23.6932 15.1769 24.7679 15.1148 25.8529 15.105C26.4063 15.0995 26.9629 15.1078 27.5202 15.1302L27.7629 14.2245C28.0943 12.9886 27.3606 11.7187 26.1252 11.3873L18.434 9.32586C17.198 8.99471 15.9282 9.72793 15.5968 10.9635L14.0553 16.7156L13.9714 17.0289L13.45 18.974C8.70287 21.6962 7.14519 25.8441 11.7055 29.4785C10.314 26.7534 10.7975 24.5736 12.4186 22.8227C12.9962 22.1986 13.7185 21.6291 14.5521 21.1087C14.8929 20.8959 15.2521 20.6914 15.6278 20.4946C17.2177 19.6624 19.0992 18.9707 21.1 18.3927C22.4452 18.0038 23.8443 17.6664 25.245 17.3719L24.8847 18.7166L23.1034 25.3631L22.2324 28.6127C22.1326 28.9848 21.7489 29.2067 21.3762 29.107L13.6848 27.0456C13.3122 26.9456 13.0908 26.5616 13.1905 26.1893C13.6983 24.2943 15.1565 22.7724 16.5889 21.6794C18.2494 20.4121 19.8749 19.7206 19.9461 19.6907C18.5 20.163 17.244 20.6718 16.1795 21.2155C15.4214 21.6028 14.7607 22.008 14.1977 22.431C13.2928 23.1108 12.6397 23.8368 12.2416 24.6074C11.8775 25.3117 11.7333 26.0568 11.8093 26.8556C11.886 27.6601 12.424 28.3558 13.1979 28.5882C13.2204 28.5951 13.2432 28.6015 13.2662 28.6076L20.9574 30.669C22.1932 31.0001 23.4634 30.2671 23.7946 29.0313L24.6823 25.7186L26.549 18.754L27.0132 17.0219C28.386 16.7661 29.7387 16.5487 31.0205 16.3615C29.7539 16.1747 28.5036 16.0641 27.2809 16.0226Z" fill="white"/>
</g>
</svg>
